<svg id="图层_1" data-name="图层 1" xmlns="http://www.w3.org/2000/svg" viewBox="0 0 300.97 39.34"><defs><style>.cls-1,.cls-2,.cls-3{fill:none;}.cls-1{stroke:#d71718;stroke-width:0.57px;stroke-dasharray:2.4 2.4;}.cls-1,.cls-3{stroke-miterlimit:22.93;}.cls-2,.cls-3{stroke:#c9caca;stroke-width:0.22px;}</style></defs><path class="cls-1" d="M340,230.68" transform="translate(-187.73 -249.44)"/><path class="cls-2" d="M448.4,288.66h-1.17" transform="translate(-187.73 -249.44)"/><path class="cls-2" d="M441.16,288.67h-1.7" transform="translate(-187.73 -249.44)"/><path class="cls-2" d="M432.46,288.66h-7" transform="translate(-187.73 -249.44)"/><path class="cls-2" d="M434.31,288.64h1.38" transform="translate(-187.73 -249.44)"/><path class="cls-2" d="M433.39,288.66H426" transform="translate(-187.73 -249.44)"/><line class="cls-2" x1="245.03" y1="39.22" x2="245.04" y2="39.22"/><path class="cls-2" d="M426,288.65h-.56" transform="translate(-187.73 -249.44)"/><path class="cls-2" d="M440.35,288.67H432.9" transform="translate(-187.73 -249.44)"/><path class="cls-2" d="M453.16,288.67h-5.45" transform="translate(-187.73 -249.44)"/><path class="cls-2" d="M448.4,288.66h.06" transform="translate(-187.73 -249.44)"/><path class="cls-2" d="M443.86,288.59h-4.4" transform="translate(-187.73 -249.44)"/><path class="cls-2" d="M480.34,250.59h.07l.82.17c.32.07.68.17,1,.28l.4.13.2.08.12,0" transform="translate(-187.73 -249.44)"/><path class="cls-2" d="M456.93,288.64h0" transform="translate(-187.73 -249.44)"/><path class="cls-2" d="M457.56,288.59h-.63" transform="translate(-187.73 -249.44)"/><polyline class="cls-2" points="297.46 3.09 297.46 3.09 297.43 3.09 297.4 3.09 297.35 3.09 297.26 3.09 297.12 3.09 296.65 3.09 295.76 3.09 295.29 3.09 294.7 3.09 293.15 3.09 291.21 3.09 288.72 3.09 288.1 3.09 287.42 3.09 286.7 3.09 285.9 3.09 284.25 3.09 282.35 3.09 278.49 3.09 274.23 3.09 272.46 3.09 270.6 3.09 266.85 3.09"/><path class="cls-2" d="M453.44,288.66h0l0,0-.06,0-.11,0-.24-.06-.38-.09-.5-.11-.61-.11" transform="translate(-187.73 -249.44)"/><path class="cls-2" d="M456.84,288.66a.43.43,0,0,0,.19,0h0" transform="translate(-187.73 -249.44)"/><path class="cls-2" d="M457.05,288.61H457" transform="translate(-187.73 -249.44)"/><polyline class="cls-2" points="269.11 39.22 269.09 39.22 269.09 39.22"/><path class="cls-2" d="M488.59,263.44c0-.74,0-1.48,0-2.28a19.3,19.3,0,0,0-.65-4.86,6.5,6.5,0,0,0-2.73-3.77" transform="translate(-187.73 -249.44)"/><path class="cls-2" d="M488.17,280.94c-.07.33-.16.66-.25,1a7.73,7.73,0,0,1-.79,1.8" transform="translate(-187.73 -249.44)"/><polyline class="cls-2" points="297.46 36.25 297.46 36.25 297.43 36.25 297.4 36.25 297.35 36.25 297.26 36.25 297.12 36.25 296.65 36.25 295.76 36.25 295.29 36.25 294.7 36.25 293.15 36.25 291.21 36.25 288.72 36.25 288.1 36.25 287.42 36.25 286.7 36.25 285.9 36.25 284.25 36.25 282.35 36.25 278.49 36.25 274.23 36.25 272.46 36.25 270.6 36.25 266.85 36.25"/><path class="cls-2" d="M488.59,274.78c0,1,0,1.93,0,3a21.22,21.22,0,0,1-.37,3.18,9.21,9.21,0,0,1-1,2.78,6,6,0,0,1-1.94,2" transform="translate(-187.73 -249.44)"/><path class="cls-2" d="M191.24,252.53a5.8,5.8,0,0,0-1.94,2,8.9,8.9,0,0,0-1,2.77,20.25,20.25,0,0,0-.37,3.19c-.06,1.05-.06,2-.06,3" transform="translate(-187.73 -249.44)"/><path class="cls-2" d="M188.26,257.27c.07-.33.15-.65.25-1a7.92,7.92,0,0,1,.79-1.8" transform="translate(-187.73 -249.44)"/><path class="cls-2" d="M187.83,274.78c0,.74,0,1.48,0,2.27a19.3,19.3,0,0,0,.65,4.86,6.41,6.41,0,0,0,2.73,3.78" transform="translate(-187.73 -249.44)"/><line class="cls-2" x1="296.47" y1="3.09" x2="296.47" y2="2.44"/><line class="cls-2" x1="289.33" y1="38.52" x2="289.32" y2="38.95"/><path class="cls-2" d="M458.66,288.54a.28.28,0,0,0,.23.13" transform="translate(-187.73 -249.44)"/><polyline class="cls-2" points="245.04 39.23 245.06 39.23 245.17 39.23"/><line class="cls-2" x1="4.36" y1="36.25" x2="4.36" y2="36.82"/><line class="cls-2" x1="293.08" y1="1.24" x2="293.08" y2="1.24"/><line class="cls-2" x1="4.5" y1="3.09" x2="4.5" y2="2.35"/><path class="cls-2" d="M189,283.26a9.74,9.74,0,0,1-.78-2.32h0" transform="translate(-187.73 -249.44)"/><path class="cls-2" d="M487.38,255a9.52,9.52,0,0,1,.79,2.31" transform="translate(-187.73 -249.44)"/><polyline class="cls-2" points="245.03 39.23 245.02 39.23 245 39.23 244.96 39.23 244.91 39.23 244.83 39.23 244.74 39.23"/><polyline class="cls-2" points="259.5 39.23 259.49 39.23 259.4 39.23 259.28 39.23 259.14 39.23 258.98 39.23 258.79 39.23 258.58 39.23 258.35 39.23 258.08 39.23"/><line class="cls-2" x1="260.68" y1="39.21" x2="260.68" y2="39.22"/><path class="cls-2" d="M445.81,288.67h-4.65" transform="translate(-187.73 -249.44)"/><path class="cls-2" d="M425.48,288.66h0" transform="translate(-187.73 -249.44)"/><line class="cls-2" x1="15.27" y1="0.11" x2="12" y2="0.11"/><path class="cls-2" d="M210.77,249.55h3" transform="translate(-187.73 -249.44)"/><path class="cls-2" d="M484.2,251.88a11.48,11.48,0,0,0-1.23-.58" transform="translate(-187.73 -249.44)"/><line class="cls-2" x1="254.38" y1="0.11" x2="161.97" y2="0.11"/><line class="cls-2" x1="247.83" y1="39.14" x2="247.83" y2="39.16"/><line class="cls-2" x1="261.76" y1="39.19" x2="261.76" y2="39.19"/><line class="cls-2" x1="253.43" y1="39.23" x2="253.43" y2="39.23"/><polyline class="cls-2" points="289.03 39.23 289.03 39.23 289.01 39.23 288.96 39.23 288.9 39.23 288.81 39.23 288.67 39.23 288.48 39.23 288.25 39.23 287.96 39.23 287.59 39.23 287.11 39.23 286.46 39.23 285.64 39.23 284.64 39.23 283.53 39.23 282.47 39.23 281.51 39.23 280.64 39.23 279.79 39.23 278.89 39.23 277.99 39.23 277.13 39.23 276.37 39.23 275.7 39.23 275.11 39.23 274.6 39.23 274.14 39.23 273.7 39.23 273.28 39.23 272.9 39.23 272.57 39.23 272.27 39.23 272 39.23 271.75 39.23 271.53 39.23 271.38 39.23 271.28 39.23 271.23 39.23 271.2 39.23 271.18 39.23 271.17 39.23 271.17 39.23"/><line class="cls-2" x1="289.05" y1="39.23" x2="289.03" y2="39.23"/><path class="cls-2" d="M477,288.39a.28.28,0,0,1-.27.28" transform="translate(-187.73 -249.44)"/><line class="cls-2" x1="237.75" y1="39.22" x2="237.75" y2="39.22"/><line class="cls-2" x1="251.74" y1="39.22" x2="251.74" y2="39.21"/><path class="cls-2" d="M427.63,288.59h3.16" transform="translate(-187.73 -249.44)"/><path class="cls-2" d="M203,249.55h4.22" transform="translate(-187.73 -249.44)"/><polyline class="cls-2" points="7.82 38.08 7.64 38.05 7.43 38 7.22 37.95 7.01 37.89 6.8 37.83 6.6 37.77 6.46 37.73 6.45 37.73"/><line class="cls-2" x1="265.43" y1="39.23" x2="265.43" y2="39.13"/><line class="cls-2" x1="244.83" y1="39.23" x2="245.03" y2="39.23"/><line class="cls-2" x1="253.29" y1="39.23" x2="253.29" y2="39.23"/><line class="cls-2" x1="242.68" y1="39.23" x2="46.6" y2="39.23"/><path class="cls-2" d="M192.09,286.26a10.69,10.69,0,0,0,2,.89l.07,0" transform="translate(-187.73 -249.44)"/><polyline class="cls-2" points="46.6 39.23 46.27 39.23 45.74 39.23 45.32 39.23 44.91 39.23 44.52 39.23 44.34 39.23 44.16 39.23 43.83 39.23 43.51 39.23 43.22 39.23 42.96 39.23 42.73 39.23 42.56 39.23 42.44 39.23 42.37 39.23 42.34 39.23"/><path class="cls-2" d="M466.18,249.62h.89l1.19,0h.4" transform="translate(-187.73 -249.44)"/><path class="cls-2" d="M480.34,250.59l-.56-.1c-.79-.12-1.58-.2-2.37-.28L475,250c-1.59-.11-3.19-.2-4.78-.26l-1.59-.06" transform="translate(-187.73 -249.44)"/><path class="cls-2" d="M466.18,249.62h-.71c-1.59,0-3.18,0-4.78-.05H446.35" transform="translate(-187.73 -249.44)"/><line class="cls-2" x1="23.04" y1="0.11" x2="19.49" y2="0.11"/><path class="cls-2" d="M198.89,249.55h.84" transform="translate(-187.73 -249.44)"/><line class="cls-2" x1="11.08" y1="0.11" x2="11.16" y2="0.11"/><polyline class="cls-2" points="258.63 0.11 258.6 0.11 258.53 0.11 258.41 0.11 258.24 0.11 258.01 0.11 257.75 0.11 257.46 0.11 257.15 0.11 256.81 0.11 256.63 0.11 256.45 0.11 256.06 0.11 255.65 0.11 255.23 0.11 254.68 0.11 254.38 0.11"/><polyline class="cls-2" points="42.34 0.11 34.58 0.11 26.85 0.11 26.06 0.11"/><path class="cls-2" d="M478.61,287.88l1.17-.16a16.42,16.42,0,0,0,2.5-.56,11.39,11.39,0,0,0,2.06-.9" transform="translate(-187.73 -249.44)"/><path class="cls-2" d="M478.6,287.88h-.11" transform="translate(-187.73 -249.44)"/><line class="cls-2" x1="296.61" y1="36.25" x2="296.61" y2="36.82"/><path class="cls-2" d="M456.83,288.66h-3.39" transform="translate(-187.73 -249.44)"/><line class="cls-2" x1="300.86" y1="25.34" x2="300.86" y2="14"/><line class="cls-2" x1="0.11" y1="25.34" x2="0.11" y2="14"/><line class="cls-2" x1="266.85" y1="3.09" x2="34.12" y2="3.09"/><line class="cls-2" x1="0.11" y1="25.34" x2="0.11" y2="14"/><line class="cls-2" x1="300.86" y1="25.34" x2="300.86" y2="14"/><path class="cls-2" d="M456.83,288.66h-3.39" transform="translate(-187.73 -249.44)"/><path class="cls-2" d="M441.29,286.69c.68.08,1.32.16,1.91.25l1.65.25,1.45.24,1.3.21,1.18.17,1.05.15c.33,0,.64.08.91.13l.75.12" transform="translate(-187.73 -249.44)"/><path class="cls-2" d="M441.29,286.69l-.1,0-.09,0-.07,0,0-.05a.14.14,0,0,1,0-.06" transform="translate(-187.73 -249.44)"/><line class="cls-2" x1="296.61" y1="36.25" x2="296.61" y2="36.82"/><line class="cls-2" x1="241.2" y1="21.87" x2="241.2" y2="21.84"/><path class="cls-2" d="M478.6,287.88h-.11" transform="translate(-187.73 -249.44)"/><path class="cls-2" d="M478.61,287.88l1.17-.16a16.42,16.42,0,0,0,2.5-.56,11.39,11.39,0,0,0,2.06-.9" transform="translate(-187.73 -249.44)"/><path class="cls-2" d="M441,286.49a.14.14,0,0,1,0-.06l.05-.06.07-.05.09,0,.1,0h.1" transform="translate(-187.73 -249.44)"/><polyline class="cls-2" points="42.34 0.11 34.58 0.11 26.85 0.11 26.06 0.11"/><polyline class="cls-2" points="258.63 0.11 258.6 0.11 258.53 0.11 258.41 0.11 258.24 0.11 258.01 0.11 257.75 0.11 257.46 0.11 257.15 0.11 256.81 0.11 256.63 0.11 256.45 0.11 256.06 0.11 255.65 0.11 255.23 0.11 254.68 0.11 254.38 0.11"/><line class="cls-2" x1="34.17" y1="2.44" x2="34.12" y2="2.44"/><line class="cls-2" x1="266.8" y1="2.44" x2="34.17" y2="2.44"/><line class="cls-2" x1="266.85" y1="2.44" x2="266.8" y2="2.44"/><path class="cls-2" d="M221.85,251.88H192.23" transform="translate(-187.73 -249.44)"/><line class="cls-2" x1="11.08" y1="0.11" x2="11.16" y2="0.11"/><path class="cls-2" d="M198.89,249.55h.84" transform="translate(-187.73 -249.44)"/><line class="cls-2" x1="23.04" y1="0.11" x2="19.49" y2="0.11"/><path class="cls-2" d="M466.18,249.62h-.71c-1.59,0-3.18,0-4.78-.05H446.35" transform="translate(-187.73 -249.44)"/><path class="cls-2" d="M480.34,250.59l-.56-.1c-.79-.12-1.58-.2-2.37-.28L475,250c-1.59-.11-3.19-.2-4.78-.26l-1.59-.06" transform="translate(-187.73 -249.44)"/><path class="cls-2" d="M466.18,249.62h.89l1.19,0h.4" transform="translate(-187.73 -249.44)"/><line class="cls-2" x1="34.12" y1="36.82" x2="235.67" y2="36.82"/><polyline class="cls-2" points="46.6 39.23 46.27 39.23 45.74 39.23 45.32 39.23 44.91 39.23 44.52 39.23 44.34 39.23 44.16 39.23 43.83 39.23 43.51 39.23 43.22 39.23 42.96 39.23 42.73 39.23 42.56 39.23 42.44 39.23 42.37 39.23 42.34 39.23"/><path class="cls-2" d="M451.35,288.24l.57.1.46.1.35.09.22.06.11,0,.05,0h0" transform="translate(-187.73 -249.44)"/><polyline class="cls-2" points="4.36 36.82 4.36 36.82 4.39 36.82 4.42 36.82 4.47 36.82 4.56 36.82 4.7 36.82 5.16 36.82 6.01 36.82 6.45 36.82 7.01 36.82 8.47 36.82 10.3 36.82 12.65 36.82 13.24 36.82 13.89 36.82 14.56 36.82 15.33 36.82 16.91 36.82 18.75 36.82 22.54 36.82 26.76 36.82 28.52 36.82 30.37 36.82 34.12 36.82"/><path class="cls-2" d="M192.09,286.26a10.69,10.69,0,0,0,2,.89l.07,0" transform="translate(-187.73 -249.44)"/><line class="cls-2" x1="242.68" y1="39.23" x2="46.6" y2="39.23"/><line class="cls-2" x1="253.29" y1="39.23" x2="253.29" y2="39.23"/><line class="cls-2" x1="244.83" y1="39.23" x2="245.03" y2="39.23"/><line class="cls-2" x1="265.43" y1="39.23" x2="265.43" y2="39.13"/><polyline class="cls-2" points="7.82 38.08 7.64 38.05 7.43 38 7.22 37.95 7.01 37.89 6.8 37.83 6.6 37.77 6.46 37.73 6.45 37.73"/><path class="cls-2" d="M484.2,251.88H454.57" transform="translate(-187.73 -249.44)"/><path class="cls-2" d="M203,249.55h4.22" transform="translate(-187.73 -249.44)"/><path class="cls-2" d="M427.63,288.59h3.16" transform="translate(-187.73 -249.44)"/><path class="cls-2" d="M435.55,288.6h0" transform="translate(-187.73 -249.44)"/><line class="cls-2" x1="251.74" y1="39.22" x2="251.74" y2="39.21"/><path class="cls-2" d="M448.24,288.65h.16" transform="translate(-187.73 -249.44)"/><line class="cls-2" x1="237.75" y1="39.22" x2="237.75" y2="39.22"/><path class="cls-2" d="M443.91,288.59h5.57" transform="translate(-187.73 -249.44)"/><path class="cls-2" d="M439.28,288.33h4.6" transform="translate(-187.73 -249.44)"/><path class="cls-2" d="M477,288.39a.28.28,0,0,1-.27.28" transform="translate(-187.73 -249.44)"/><line class="cls-2" x1="289.05" y1="39.23" x2="289.03" y2="39.23"/><polyline class="cls-2" points="289.03 39.23 289.03 39.23 289.01 39.23 288.96 39.23 288.9 39.23 288.81 39.23 288.67 39.23 288.48 39.23 288.25 39.23 287.96 39.23 287.59 39.23 287.11 39.23 286.46 39.23 285.64 39.23 284.64 39.23 283.53 39.23 282.47 39.23 281.51 39.23 280.64 39.23 279.79 39.23 278.89 39.23 277.99 39.23 277.13 39.23 276.37 39.23 275.7 39.23 275.11 39.23 274.6 39.23 274.14 39.23 273.7 39.23 273.28 39.23 272.9 39.23 272.57 39.23 272.27 39.23 272 39.23 271.75 39.23 271.53 39.23 271.38 39.23 271.28 39.23 271.23 39.23 271.2 39.23 271.18 39.23 271.17 39.23 271.17 39.23"/><line class="cls-2" x1="237.89" y1="39.22" x2="237.89" y2="39.21"/><line class="cls-2" x1="239.9" y1="39.13" x2="239.9" y2="39.12"/><line class="cls-2" x1="253.43" y1="39.23" x2="253.43" y2="39.23"/><line class="cls-2" x1="261.76" y1="39.19" x2="261.76" y2="39.19"/><line class="cls-2" x1="247.83" y1="39.14" x2="247.83" y2="39.16"/><line class="cls-2" x1="254.38" y1="0.11" x2="161.97" y2="0.11"/><path class="cls-2" d="M484.2,251.88a11.48,11.48,0,0,0-1.23-.58" transform="translate(-187.73 -249.44)"/><path class="cls-2" d="M210.77,249.55h3" transform="translate(-187.73 -249.44)"/><line class="cls-2" x1="15.27" y1="0.11" x2="12" y2="0.11"/><path class="cls-2" d="M423.39,286.26h4l3.57,0c1.12,0,2.18,0,3.17.06s1.92.07,2.8.12,1.69.1,2.46.17,1.48.14,2.14.21l1.84.23,1.59.23,1.41.22,1.26.18,1.14.16,1,.13.88.13.71.12" transform="translate(-187.73 -249.44)"/><path class="cls-2" d="M425.48,288.66h0" transform="translate(-187.73 -249.44)"/><path class="cls-2" d="M434.67,288.42h.23l.18,0h.5l.32,0h3.27" transform="translate(-187.73 -249.44)"/><path class="cls-2" d="M445.81,288.67h-4.65" transform="translate(-187.73 -249.44)"/><path class="cls-2" d="M433.06,288.64h-5.29" transform="translate(-187.73 -249.44)"/><path class="cls-2" d="M439.23,288.58h-4.42" transform="translate(-187.73 -249.44)"/><path class="cls-2" d="M427.77,288.59h7.78" transform="translate(-187.73 -249.44)"/><line class="cls-2" x1="260.68" y1="39.21" x2="260.68" y2="39.22"/><path class="cls-2" d="M449.48,288.63h-1.23" transform="translate(-187.73 -249.44)"/><polyline class="cls-2" points="259.5 39.23 259.49 39.23 259.4 39.23 259.28 39.23 259.14 39.23 258.98 39.23 258.79 39.23 258.58 39.23 258.35 39.23 258.08 39.23"/><polyline class="cls-2" points="245.53 39.22 245.52 39.22 245.5 39.22 245.47 39.22 245.42 39.22 245.37 39.22 245.31 39.22 245.25 39.22 245.18 39.22 245.18 39.22"/><polyline class="cls-2" points="245.03 39.23 245.02 39.23 245 39.23 244.96 39.23 244.91 39.23 244.83 39.23 244.74 39.23"/><path class="cls-2" d="M443.88,288.5h-4.65" transform="translate(-187.73 -249.44)"/><line class="cls-2" x1="240.8" y1="20.3" x2="240.8" y2="20.68"/><path class="cls-2" d="M487.38,255a9.52,9.52,0,0,1,.79,2.31" transform="translate(-187.73 -249.44)"/><line class="cls-2" x1="241.2" y1="18.04" x2="241.2" y2="17.91"/><path class="cls-2" d="M189,283.26a9.74,9.74,0,0,1-.78-2.32h0" transform="translate(-187.73 -249.44)"/><line class="cls-2" x1="4.5" y1="3.09" x2="4.5" y2="2.35"/><line class="cls-2" x1="293.08" y1="1.24" x2="293.08" y2="1.24"/><line class="cls-2" x1="4.36" y1="36.25" x2="4.36" y2="36.82"/><polyline class="cls-2" points="245.04 39.23 245.06 39.23 245.17 39.23"/><line class="cls-2" x1="264.38" y1="20.7" x2="264.38" y2="20.3"/><path class="cls-2" d="M458.66,288.54a.28.28,0,0,0,.23.13" transform="translate(-187.73 -249.44)"/><line class="cls-2" x1="289.33" y1="38.52" x2="289.32" y2="38.95"/><line class="cls-2" x1="296.47" y1="3.09" x2="296.47" y2="2.44"/><line class="cls-2" x1="266.85" y1="36.25" x2="34.12" y2="36.25"/><polyline class="cls-2" points="34.12 36.25 30.37 36.25 28.51 36.25 26.75 36.25 22.48 36.25 18.62 36.25 16.72 36.25 15.07 36.25 14.27 36.25 13.55 36.25 12.87 36.25 12.25 36.25 9.76 36.25 7.82 36.25 6.27 36.25 5.68 36.25 5.21 36.25 4.32 36.25 3.85 36.25 3.71 36.25 3.63 36.25 3.57 36.25 3.54 36.25 3.51 36.25 3.51 36.25"/><path class="cls-2" d="M187.83,274.78c0,.74,0,1.48,0,2.27a19.3,19.3,0,0,0,.65,4.86,6.41,6.41,0,0,0,2.73,3.78" transform="translate(-187.73 -249.44)"/><path class="cls-2" d="M188.26,257.27c.07-.33.15-.65.25-1a7.92,7.92,0,0,1,.79-1.8" transform="translate(-187.73 -249.44)"/><path class="cls-2" d="M191.24,252.53a5.8,5.8,0,0,0-1.94,2,8.9,8.9,0,0,0-1,2.77,20.25,20.25,0,0,0-.37,3.19c-.06,1.05-.06,2-.06,3" transform="translate(-187.73 -249.44)"/><polyline class="cls-2" points="34.12 3.09 30.37 3.09 28.51 3.09 26.75 3.09 22.48 3.09 18.62 3.09 16.72 3.09 15.07 3.09 14.27 3.09 13.55 3.09 12.87 3.09 12.25 3.09 9.76 3.09 7.82 3.09 6.27 3.09 5.68 3.09 5.21 3.09 4.32 3.09 3.85 3.09 3.71 3.09 3.63 3.09 3.57 3.09 3.54 3.09 3.51 3.09 3.51 3.09"/><path class="cls-2" d="M488.59,274.78c0,1,0,1.93,0,3a21.22,21.22,0,0,1-.37,3.18,9.21,9.21,0,0,1-1,2.78,6,6,0,0,1-1.94,2" transform="translate(-187.73 -249.44)"/><polyline class="cls-2" points="297.46 36.25 297.46 36.25 297.43 36.25 297.4 36.25 297.35 36.25 297.26 36.25 297.12 36.25 296.65 36.25 295.76 36.25 295.29 36.25 294.7 36.25 293.15 36.25 291.21 36.25 288.72 36.25 288.1 36.25 287.42 36.25 286.7 36.25 285.9 36.25 284.25 36.25 282.35 36.25 278.49 36.25 274.23 36.25 272.46 36.25 270.6 36.25 266.85 36.25"/><path class="cls-2" d="M488.17,280.94c-.07.33-.16.66-.25,1a7.73,7.73,0,0,1-.79,1.8" transform="translate(-187.73 -249.44)"/><path class="cls-2" d="M488.59,263.44c0-.74,0-1.48,0-2.28a19.3,19.3,0,0,0-.65-4.86,6.5,6.5,0,0,0-2.73-3.77" transform="translate(-187.73 -249.44)"/><polyline class="cls-2" points="269.11 39.22 269.09 39.22 269.09 39.22"/><path class="cls-2" d="M457.05,288.61H457" transform="translate(-187.73 -249.44)"/><path class="cls-2" d="M456.84,288.66a.43.43,0,0,0,.19,0h0" transform="translate(-187.73 -249.44)"/><path class="cls-2" d="M467.85,288.32l-3.34.07-2.25.05-1.58,0-1.54,0-1.17,0-.71,0-.26,0-.14,0h0" transform="translate(-187.73 -249.44)"/><path class="cls-2" d="M453.44,288.66h0l0,0-.06,0-.11,0-.24-.06-.38-.09-.5-.11-.61-.11" transform="translate(-187.73 -249.44)"/><polyline class="cls-2" points="266.85 36.82 270.6 36.82 272.45 36.82 274.21 36.82 278.43 36.82 282.22 36.82 284.06 36.82 285.64 36.82 286.41 36.82 287.09 36.82 287.74 36.82 288.32 36.82 290.67 36.82 292.5 36.82 293.96 36.82 294.52 36.82 294.96 36.82 295.81 36.82 296.28 36.82 296.42 36.82 296.5 36.82 296.55 36.82 296.58 36.82 296.61 36.82 296.61 36.82"/><line class="cls-2" x1="253.67" y1="36.82" x2="266.85" y2="36.82"/><polyline class="cls-2" points="297.46 3.09 297.46 3.09 297.43 3.09 297.4 3.09 297.35 3.09 297.26 3.09 297.12 3.09 296.65 3.09 295.76 3.09 295.29 3.09 294.7 3.09 293.15 3.09 291.21 3.09 288.72 3.09 288.1 3.09 287.42 3.09 286.7 3.09 285.9 3.09 284.25 3.09 282.35 3.09 278.49 3.09 274.23 3.09 272.46 3.09 270.6 3.09 266.85 3.09"/><line class="cls-2" x1="244.03" y1="16.26" x2="261.15" y2="16.26"/><line class="cls-2" x1="243.55" y1="19.07" x2="245.67" y2="19.07"/><line class="cls-2" x1="243.55" y1="20.7" x2="245.67" y2="20.7"/><path class="cls-2" d="M448.88,265.7a3.26,3.26,0,0,1,3.26,3.26" transform="translate(-187.73 -249.44)"/><line class="cls-2" x1="264.41" y1="19.52" x2="264.41" y2="20.26"/><path class="cls-2" d="M452.14,269.7a3.26,3.26,0,0,1-3.26,3.26" transform="translate(-187.73 -249.44)"/><line class="cls-2" x1="261.15" y1="23.52" x2="244.03" y2="23.52"/><path class="cls-2" d="M431.76,273a3.26,3.26,0,0,1-3.26-3.26" transform="translate(-187.73 -249.44)"/><line class="cls-2" x1="240.77" y1="20.26" x2="240.77" y2="19.52"/><path class="cls-2" d="M428.5,269a3.26,3.26,0,0,1,3.26-3.26" transform="translate(-187.73 -249.44)"/><path class="cls-2" d="M457.56,288.59h-.63" transform="translate(-187.73 -249.44)"/><path class="cls-2" d="M456.93,288.64h0" transform="translate(-187.73 -249.44)"/><line class="cls-2" x1="253.25" y1="37.05" x2="253.25" y2="36.25"/><path class="cls-2" d="M480.34,250.59h.07l.82.17c.32.07.68.17,1,.28l.4.13.2.08.12,0" transform="translate(-187.73 -249.44)"/><path class="cls-2" d="M443.86,288.59h-4.4" transform="translate(-187.73 -249.44)"/><path class="cls-2" d="M448.4,288.66h.06" transform="translate(-187.73 -249.44)"/><path class="cls-2" d="M453.16,288.67h-5.45" transform="translate(-187.73 -249.44)"/><path class="cls-2" d="M448.46,288.6h-4.6" transform="translate(-187.73 -249.44)"/><path class="cls-2" d="M440.35,288.67H432.9" transform="translate(-187.73 -249.44)"/><path class="cls-2" d="M426,288.65h-.56" transform="translate(-187.73 -249.44)"/><line class="cls-2" x1="245.03" y1="39.22" x2="245.04" y2="39.22"/><path class="cls-2" d="M433.39,288.66H426" transform="translate(-187.73 -249.44)"/><path class="cls-2" d="M435.69,288.6h-8.06" transform="translate(-187.73 -249.44)"/><path class="cls-2" d="M434.31,288.64h1.38" transform="translate(-187.73 -249.44)"/><path class="cls-2" d="M439.32,288.32h-1.25a3.53,3.53,0,0,0-.46,0H435.1l-.15,0h-.14" transform="translate(-187.73 -249.44)"/><path class="cls-2" d="M439.17,288.58H444s0,0,0,0h-.2l-.11,0h-.13l-.17,0h-2l-.28,0h-1.86" transform="translate(-187.73 -249.44)"/><path class="cls-2" d="M432.46,288.66h-7" transform="translate(-187.73 -249.44)"/><path class="cls-2" d="M439.46,288.66h4.45" transform="translate(-187.73 -249.44)"/><path class="cls-2" d="M441.16,288.67h-1.7" transform="translate(-187.73 -249.44)"/><path class="cls-2" d="M448.4,288.66h-1.17" transform="translate(-187.73 -249.44)"/><path class="cls-2" d="M425.48,288.66h.14" transform="translate(-187.73 -249.44)"/><path class="cls-2" d="M432.9,288.66h-.14" transform="translate(-187.73 -249.44)"/><path class="cls-2" d="M435.56,288.6h-2.5" transform="translate(-187.73 -249.44)"/><line class="cls-2" x1="247.08" y1="38.98" x2="247.08" y2="38.95"/><path class="cls-2" d="M434.81,288.42h4.47" transform="translate(-187.73 -249.44)"/><line class="cls-2" x1="256.15" y1="39.03" x2="256.15" y2="39.06"/><path class="cls-2" d="M427.93,269a3.83,3.83,0,0,1,3.83-3.83" transform="translate(-187.73 -249.44)"/><path class="cls-2" d="M431.76,273.53a3.83,3.83,0,0,1-3.83-3.83" transform="translate(-187.73 -249.44)"/><path class="cls-2" d="M452.7,269.7a3.83,3.83,0,0,1-3.82,3.83" transform="translate(-187.73 -249.44)"/><path class="cls-2" d="M448.88,265.13A3.83,3.83,0,0,1,452.7,269" transform="translate(-187.73 -249.44)"/><polyline class="cls-2" points="264.41 19.52 264.42 19.52 264.43 19.52 264.48 19.52 264.55 19.52 264.69 19.52 264.98 19.52"/><path class="cls-2" d="M452.7,269.7h-.56" transform="translate(-187.73 -249.44)"/><polyline class="cls-2" points="240.77 20.26 240.77 20.26 240.75 20.26 240.7 20.26 240.63 20.26 240.49 20.26 240.2 20.26"/><path class="cls-2" d="M427.93,269h.57" transform="translate(-187.73 -249.44)"/><line class="cls-2" x1="244.03" y1="15.69" x2="261.15" y2="15.69"/><line class="cls-2" x1="261.15" y1="24.09" x2="244.03" y2="24.09"/><polyline class="cls-2" points="266.85 3.09 266.85 5.06 266.85 7.83 266.85 11.02 266.85 14"/><polyline class="cls-2" points="266.85 14 270.62 14 272.49 14 274.29 14 278.71 14 282.88 14 285.01 14 286.92 14 287.88 14 288.74 14 289.58 14 290.33 14 293.39 14 295.77 14 297.67 14 298.39 14 298.95 14 299.99 14 300.51 14 300.66 14 300.75 14 300.8 14 300.83 14 300.86 14 300.87 14"/><path class="cls-2" d="M451.49,288.21h0c.25-.06.52-.12.78-.2a4.87,4.87,0,0,0,.78-.28,3.07,3.07,0,0,0,.82-.56,4.21,4.21,0,0,0,.67-.9" transform="translate(-187.73 -249.44)"/><path class="cls-2" d="M456.84,288.66l.15,0" transform="translate(-187.73 -249.44)"/><path class="cls-2" d="M478.61,287.88h-.22l-.58,0-1.2.07-1.6.08-1.65.06-2.25.09-3.26.1" transform="translate(-187.73 -249.44)"/><polyline class="cls-2" points="266.85 25.34 270.62 25.34 272.49 25.34 274.29 25.34 278.71 25.34 282.88 25.34 285.01 25.34 286.92 25.34 287.88 25.34 288.74 25.34 289.58 25.34 290.33 25.34 293.39 25.34 295.77 25.34 297.67 25.34 298.39 25.34 298.95 25.34 299.99 25.34 300.51 25.34 300.66 25.34 300.75 25.34 300.8 25.34 300.83 25.34 300.86 25.34 300.87 25.34"/><polyline class="cls-2" points="34.12 14 30.35 14 28.48 14 26.69 14 22.26 14 18.09 14 15.96 14 14.05 14 13.09 14 12.23 14 11.39 14 10.64 14 7.58 14 5.21 14 3.31 14 2.58 14 2.02 14 0.99 14 0.47 14 0.31 14 0.23 14 0.17 14 0.14 14 0.11 14 0.11 14"/><polyline class="cls-2" points="34.12 36.25 34.12 34.28 34.12 31.5 34.12 28.32 34.12 25.34"/><polyline class="cls-2" points="266.85 25.34 266.85 27.61 266.85 32.47 266.85 36.25"/><line class="cls-2" x1="266.85" y1="25.34" x2="266.85" y2="14"/><line class="cls-2" x1="34.12" y1="14" x2="34.12" y2="25.34"/><line class="cls-2" x1="34.12" y1="25.34" x2="266.85" y2="25.34"/><polyline class="cls-2" points="34.12 14 34.12 11.72 34.12 6.86 34.12 3.09"/><line class="cls-2" x1="266.85" y1="14" x2="34.12" y2="14"/><line class="cls-2" x1="34.12" y1="36.25" x2="34.12" y2="36.82"/><line class="cls-2" x1="266.85" y1="3.09" x2="266.85" y2="2.44"/><path class="cls-2" d="M451.35,288.24c-.46.1-.93.17-1.4.23s-1,.1-1.49.13" transform="translate(-187.73 -249.44)"/><path class="cls-2" d="M224.08,250.23l.25-.07.33-.09.68-.15.32-.06.31-.05.64-.08.63-.06.64,0,.64,0,.65,0,.64,0h.45" transform="translate(-187.73 -249.44)"/><line class="cls-2" x1="247.82" y1="39.14" x2="247.82" y2="39.16"/><line class="cls-2" x1="256.19" y1="39.07" x2="256.19" y2="39.04"/><polyline class="cls-2" points="289.31 38.95 289.31 38.95 289.29 38.95 289.25 38.95 289.18 38.95 289.08 38.95 288.94 38.95 288.74 38.95 288.5 38.95 288.21 38.95 287.82 38.95 287.31 38.95 286.63 38.95 285.78 38.95 284.73 38.95 283.58 38.95 282.49 38.95 281.52 38.95 280.64 38.95 279.78 38.95 278.88 38.95 277.96 38.95 277.09 38.95 276.68 38.95"/><line class="cls-2" x1="251.55" y1="38.89" x2="251.55" y2="38.88"/><line class="cls-2" x1="256.19" y1="39.15" x2="256.19" y2="39.15"/><path class="cls-2" d="M234.32,288.67h-4.71L228,288.6c-.52,0-1-.07-1.56-.13a13.92,13.92,0,0,1-1.57-.27c-.26-.06-.52-.12-.78-.2a4.87,4.87,0,0,1-.78-.28,3,3,0,0,1-.83-.57,4.13,4.13,0,0,1-.67-.89" transform="translate(-187.73 -249.44)"/><line class="cls-2" x1="235.67" y1="36.82" x2="235.67" y2="36.25"/><path class="cls-2" d="M198.81,249.55h-.67l-1,0-.49,0-.5,0a8.54,8.54,0,0,0-1,.17,5.48,5.48,0,0,0-.89.3,4.56,4.56,0,0,0-.82.49,7.49,7.49,0,0,0-1.22,1.17" transform="translate(-187.73 -249.44)"/><path class="cls-2" d="M442.1,249.55h4.71c.52,0,1.05,0,1.57.05s1.05.07,1.57.14,1,.15,1.57.26l.78.2a6.09,6.09,0,0,1,.78.28,3,3,0,0,1,.81.56,4.19,4.19,0,0,1,.64.83" transform="translate(-187.73 -249.44)"/><path class="cls-2" d="M221.9,251.88a4,4,0,0,1,.48-.67,2.37,2.37,0,0,1,.28-.27l.28-.22.3-.17.15-.08.16-.06.3-.11.23-.07" transform="translate(-187.73 -249.44)"/><path class="cls-2" d="M224.08,250.23h-3.5l-3.49,0-3.41,0-3.21,0-2.91-.05-1.31,0-1.15,0-.95,0-.83,0-.76,0-.69,0-.61,0-.51,0-.42,0-.36,0-.56,0-.32-.05-.14,0,0,0v0h0" transform="translate(-187.73 -249.44)"/><line class="cls-2" x1="34.12" y1="2.44" x2="34.12" y2="3.09"/><polyline class="cls-2" points="261.15 23.52 261.15 23.52 261.15 23.54 261.15 23.59 261.15 23.66 261.15 23.8 261.15 24.09"/><polyline class="cls-2" points="244.03 24.09 244.03 23.8 244.03 23.66 244.03 23.59 244.03 23.54 244.03 23.52 244.03 23.52"/><polyline class="cls-2" points="261.15 15.69 261.15 15.98 261.15 16.12 261.15 16.19 261.15 16.24 261.15 16.26 261.15 16.26"/><line class="cls-2" x1="244.03" y1="16.26" x2="244.03" y2="15.69"/><line class="cls-2" x1="240.2" y1="20.26" x2="240.2" y2="19.52"/><path class="cls-2" d="M430.62,269.26a.74.74,0,0,1,.75-.75" transform="translate(-187.73 -249.44)"/><path class="cls-2" d="M431.37,270.15a.75.75,0,0,1-.75-.75" transform="translate(-187.73 -249.44)"/><line class="cls-2" x1="242.89" y1="19.96" x2="242.89" y2="19.82"/><path class="cls-2" d="M434.14,269.4a.74.74,0,0,1-.75.75" transform="translate(-187.73 -249.44)"/><path class="cls-2" d="M433.39,268.51a.74.74,0,0,1,.75.75" transform="translate(-187.73 -249.44)"/><line class="cls-2" x1="246.42" y1="19.82" x2="246.42" y2="19.96"/><line class="cls-2" x1="264.98" y1="19.52" x2="264.98" y2="20.26"/><line class="cls-2" x1="266.85" y1="36.82" x2="266.85" y2="36.25"/><line class="cls-2" x1="253.67" y1="36.82" x2="253.67" y2="36.25"/><polyline class="cls-2" points="34.12 25.34 30.35 25.34 28.48 25.34 26.69 25.34 22.26 25.34 18.09 25.34 15.96 25.34 14.05 25.34 13.09 25.34 12.23 25.34 11.39 25.34 10.64 25.34 7.58 25.34 5.21 25.34 3.31 25.34 2.58 25.34 2.02 25.34 0.99 25.34 0.47 25.34 0.31 25.34 0.23 25.34 0.17 25.34 0.14 25.34 0.11 25.34 0.11 25.34"/><line class="cls-3" x1="42.53" y1="0.11" x2="161.97" y2="0.11"/><path class="cls-2" d="M230.07,288.67H219.82c-6.95,0-14.25,0-21-.68a16.14,16.14,0,0,1-6.7-1.72" transform="translate(-187.73 -249.44)"/><path class="cls-1" d="M521.2,269.13" transform="translate(-187.73 -249.44)"/></svg>