<svg aria-hidden="true" style="position: absolute; width: 0; height: 0; overflow: hidden;" version="1.1" xmlns="http://www.w3.org/2000/svg" xmlns:xlink="http://www.w3.org/1999/xlink">
<defs>
<symbol id="icon-1" viewBox="0 0 12 32">
<path fill="#231815" style="fill: var(--color1, #231815)" d="M11.294 23.304c-0.204-0.244-0.497-0.375-0.822-0.375h-6.758c-0.244 0-0.415 0.163-0.415 0.415s0.163 0.415 0.415 0.415h6.758c0.081 0 0.163 0.041 0.204 0.081s0.081 0.122 0.041 0.244l-0.619 4.324c0 0.122-0.163 0.244-0.326 0.244h-6.262c-0.163 0-0.326-0.204-0.326-0.375l-0.7-4.78-0.375-2.019c-0.081-0.578-0.578-1.034-1.197-1.034h-0.497c-0.244 0-0.415 0.204-0.415 0.415s0.163 0.415 0.415 0.415h0.497c0.163 0 0.326 0.122 0.375 0.326l0.375 2.019 0.66 4.78c0.081 0.619 0.578 1.116 1.156 1.116h6.262c0.578 0 1.075-0.415 1.156-0.945l0.66-4.373c0.041-0.326-0.041-0.66-0.244-0.904v0z"></path>
<path fill="#231815" style="fill: var(--color1, #231815)" d="M2.516 31.178c0 0.456 0.366 0.822 0.822 0.822s0.822-0.366 0.822-0.822-0.366-0.822-0.822-0.822-0.822 0.366-0.822 0.822v0z"></path>
<path fill="#231815" style="fill: var(--color1, #231815)" d="M9.071 31.178c0 0.456 0.366 0.822 0.822 0.822s0.822-0.366 0.822-0.822-0.366-0.822-0.822-0.822-0.822 0.366-0.822 0.822v0z"></path>
<path fill="#231815" style="fill: var(--color1, #231815)" d="M6.571 11.432c-3.151 0-5.716-2.565-5.716-5.716s2.565-5.716 5.716-5.716 5.716 2.565 5.716 5.716-2.565 5.716-5.716 5.716zM6.571 0.399c-2.931 0-5.317 2.386-5.317 5.317s2.386 5.317 5.317 5.317 5.317-2.386 5.317-5.317-2.378-5.317-5.317-5.317z"></path>
<path fill="#231815" style="fill: var(--color1, #231815)" d="M6.571 0.041c-3.151 0-5.708 2.557-5.708 5.708s2.557 5.716 5.716 5.716 5.716-2.557 5.716-5.716-2.565-5.708-5.724-5.708z"></path>
<path fill="#fff" style="fill: var(--color2, #fff)" d="M7.271 4.397v-0.432l1.425-0.831h0.318v5.162h-0.415v-4.657l-1.327 0.757z"></path>
<path fill="#fff" style="fill: var(--color2, #fff)" d="M6.718 6.091c0.171 0.228 0.261 0.505 0.261 0.847 0 0.301-0.065 0.562-0.204 0.79-0.13 0.228-0.318 0.399-0.554 0.521s-0.505 0.179-0.798 0.179c-0.366 0-0.7-0.098-1.002-0.285s-0.505-0.464-0.603-0.814l0.334-0.195c0.098 0.293 0.261 0.521 0.497 0.676s0.497 0.236 0.782 0.236c0.326 0 0.594-0.106 0.798-0.309s0.309-0.48 0.309-0.806-0.114-0.611-0.342-0.798c-0.228-0.187-0.554-0.285-0.985-0.285h-0.293v-0.383h0.326c0.35 0 0.627-0.098 0.814-0.285s0.285-0.432 0.285-0.725-0.090-0.513-0.261-0.684c-0.171-0.179-0.407-0.261-0.7-0.261-0.269 0-0.497 0.073-0.692 0.228s-0.342 0.375-0.44 0.668l-0.342-0.187c0.114-0.358 0.301-0.627 0.57-0.814 0.269-0.179 0.578-0.277 0.928-0.277 0.423 0 0.757 0.122 1.010 0.366s0.375 0.562 0.375 0.961c0 0.277-0.065 0.521-0.204 0.725-0.13 0.204-0.334 0.35-0.594 0.44 0.326 0.090 0.57 0.244 0.741 0.472z"></path>
</symbol>
</defs>
</svg>
