<?xml version="1.0" standalone="no"?>
<!DOCTYPE svg PUBLIC "-//W3C//DTD SVG 1.1//EN" "http://www.w3.org/Graphics/SVG/1.1/DTD/svg11.dtd" >
<svg xmlns="http://www.w3.org/2000/svg">
<metadata>Generated by IcoMoon</metadata>
<defs>
<font id="icomoon" horiz-adv-x="1024">
<font-face units-per-em="1024" ascent="960" descent="-64" />
<missing-glyph horiz-adv-x="1024" />
<glyph unicode="&#x20;" horiz-adv-x="512" d="" />
<glyph unicode="&#xe900;" glyph-name="1" d="M512-63.271c-281.964 0-510.541 228.577-510.541 510.541s228.577 510.541 510.541 510.541c281.964 0 510.541-228.577 510.541-510.541v0c0-281.964-228.577-510.541-510.541-510.541v0zM512 924.991c-263.032 0-476.262-213.23-476.262-476.262s213.23-476.262 476.262-476.262c263.032 0 476.262 213.23 476.262 476.262v0c-0.414 262.865-213.396 475.847-476.222 476.262h-0.040zM512 633.254v-417.185h37.197v462.405h-28.444l-126.906-72.934v-38.655z" />
<glyph unicode="&#xe901;" glyph-name="2" d="M512-64c-281.964 0-510.541 228.577-510.541 510.541s228.577 510.541 510.541 510.541c281.964 0 510.541-228.577 510.541-510.541v0c0-281.964-228.577-510.541-510.541-510.541v0zM512 922.074c-263.032 0-476.262-213.23-476.262-476.262s213.23-476.262 476.262-476.262c263.032 0 476.262 213.23 476.262 476.262v0c-0.414 262.865-213.396 475.847-476.222 476.262h-0.040zM560.866 400.593c22.802 24.184 43.077 51.193 60.13 80.318l1.135 2.098c11.881 21.022 18.904 46.152 18.963 72.917v0.018c0.015 0.744 0.024 1.62 0.024 2.499 0 23.479-6.233 45.502-17.134 64.505l0.335-0.633c-10.37 18.51-25.566 33.238-43.902 42.754l-0.588 0.278c-17.95 9.659-39.28 15.335-61.936 15.335-0.79 0-1.578-0.007-2.365-0.021l0.118 0.002c-0.667 0.011-1.454 0.017-2.242 0.017-31.709 0-61.055-10.118-84.986-27.301l0.436 0.298c-25.57-18.738-44.080-45.794-51.598-77.125l-0.185-0.915 29.174-16.775c8.046 26.031 22.743 48.035 42.124 64.761l0.178 0.15c16.818 14.084 38.685 22.638 62.55 22.638 0.831 0 1.659-0.010 2.484-0.031l-0.122 0.002c0.882 0.032 1.918 0.051 2.958 0.051 23.587 0 44.957-9.488 60.503-24.857l-0.008 0.008c15.004-16.302 24.202-38.151 24.202-62.149 0-1.742-0.048-3.472-0.144-5.19l0.011 0.239c0-0.033 0-0.072 0-0.111 0-21.898-5.677-42.47-15.639-60.325l0.322 0.629c-15.813-27.646-33.443-51.549-53.479-73.193l0.236 0.258-162.644-188.9v-24.068h288.091v33.55h-227.556z" />
<glyph unicode="&#xe902;" glyph-name="3" d="M512-64c-281.964 0-510.541 228.577-510.541 510.541s228.577 510.541 510.541 510.541c281.964 0 510.541-228.577 510.541-510.541v0c0-281.964-228.577-510.541-510.541-510.541v0zM512 924.262c-263.032 0-476.262-213.23-476.262-476.262s213.23-476.262 476.262-476.262c263.032 0 476.262 213.23 476.262 476.262v0c-0.414 262.865-213.396 475.847-476.222 476.262h-0.040zM630.883 420.285c-16.535 20.648-39.357 35.648-65.538 42.128l-0.832 0.174c22.122 7.146 40.423 20.964 53.022 39.051l0.22 0.333c11.012 17.619 17.541 39.021 17.541 61.947 0 1.042-0.013 2.082-0.040 3.117l0.003-0.153c0.078 1.571 0.122 3.413 0.122 5.264 0 31.591-12.875 60.175-33.664 80.791l-0.008 0.008c-21.629 20.438-50.887 33.002-83.079 33.002-2.332 0-4.649-0.066-6.949-0.196l0.319 0.014c-1.048 0.028-2.282 0.044-3.519 0.044-29.779 0-57.387-9.295-80.080-25.142l0.454 0.3c-24.491-17.565-42.554-42.728-50.828-71.999l-0.226-0.935 30.632-17.504c7.279 24.115 21.012 44.452 39.19 59.648l0.195 0.159c16.178 12.755 36.857 20.458 59.335 20.458 0.935 0 1.867-0.013 2.796-0.040l-0.136 0.003c1.8 0.144 3.896 0.226 6.012 0.226 44.309 0 80.228-35.919 80.228-80.228 0-1.876-0.064-3.736-0.191-5.58l0.014 0.249c0.028-0.831 0.044-1.807 0.044-2.787 0-24.232-9.766-46.183-25.577-62.131l0.006 0.006c-17.624-15.531-40.905-25.010-66.4-25.010-2.299 0-4.58 0.077-6.841 0.229l0.306-0.016h-28.444v-34.279h26.256c2.589 0.176 5.611 0.277 8.657 0.277 29.906 0 57.552-9.677 79.977-26.071l-0.384 0.267c18.922-16.282 30.831-40.258 30.831-67.016 0-2.082-0.072-4.148-0.214-6.194l0.015 0.276c0.119-1.778 0.187-3.853 0.187-5.945 0-52.365-42.45-94.815-94.815-94.815-1.605 0-3.2 0.040-4.786 0.119l0.223-0.009c-0.943-0.025-2.053-0.040-3.166-0.040-26.012 0-50.175 7.917-70.211 21.473l0.442-0.282c-21.224 14.329-36.814 35.608-43.588 60.519l-0.173 0.746-29.903-18.234c8.755-30.777 27.971-56.154 53.473-72.633l0.498-0.301c25.175-16.019 55.851-25.53 88.748-25.53 0.338 0 0.676 0.001 1.013 0.003h-0.052c1.046-0.026 2.278-0.041 3.514-0.041 25.352 0 49.251 6.219 70.256 17.214l-0.835-0.398c21.187 10.568 38.327 26.537 50.022 46.131l0.303 0.547c11.048 20.051 17.548 43.949 17.548 69.365 0 1.255-0.016 2.507-0.047 3.754l0.004-0.185c0.022 0.864 0.035 1.882 0.035 2.903 0 26.305-8.491 50.626-22.882 70.373l0.237-0.342z" />
<glyph unicode="&#xe903;" glyph-name="4" horiz-adv-x="1023" d="M512-64c-281.964 0-510.541 228.577-510.541 510.541s228.577 510.541 510.541 510.541c281.964 0 510.541-228.577 510.541-510.541v0c0-281.964-228.577-510.541-510.541-510.541v0zM512 924.262c-263.032 0-476.262-213.23-476.262-476.262s213.23-476.262 476.262-476.262c263.032 0 476.262 213.23 476.262 476.262v0c-0.414 262.865-213.396 475.847-476.222 476.262h-0.040zM562.325 496.137v-137.117h-161.185l177.96 320.182h-40.843l-180.877-327.476v-25.527h207.134v-109.402h37.197v109.402h72.934v32.821h-72.934v137.117z" />
<glyph unicode="&#xe904;" glyph-name="5" d="M512-64c-281.964 0-510.541 228.577-510.541 510.541s228.577 510.541 510.541 510.541c281.964 0 510.541-228.577 510.541-510.541v0c0-281.964-228.577-510.541-510.541-510.541v0zM512 924.262c-263.032 0-476.262-213.23-476.262-476.262s213.23-476.262 476.262-476.262c263.032 0 476.262 213.23 476.262 476.262v0c-0.414 262.865-213.396 475.847-476.222 476.262h-0.040zM584.934 491.031c-19.579 11.513-43.128 18.314-68.265 18.314-1.642 0-3.278-0.029-4.906-0.087l0.236 0.007c-1.344 0.055-2.921 0.087-4.505 0.087-29.31 0-56.097-10.806-76.593-28.651l0.141 0.12 23.339 168.479h173.584v33.55h-205.675l-32.821-249.436 22.61-10.94c19.705 31.715 54.353 52.517 93.859 52.517 0.336 0 0.672-0.002 1.007-0.005h-0.051c0.734 0.021 1.598 0.033 2.465 0.033 28.078 0 53.261-12.395 70.375-32.013l0.095-0.111c17.527-22.284 28.111-50.75 28.111-81.687s-10.583-59.402-28.327-81.972l0.216 0.286c-17.949-19.746-43.737-32.093-72.409-32.093-0.185 0-0.37 0.001-0.554 0.002h0.028c-0.789-0.023-1.718-0.036-2.65-0.036-21.198 0-40.797 6.851-56.701 18.46l0.274-0.19c-17.481 13.072-30.687 30.989-37.704 51.757l-0.222 0.756-30.632-17.504c8.975-27.221 26.407-49.61 49.138-64.628l0.458-0.284c21.172-14.185 47.224-22.638 75.251-22.638 0.981 0 1.959 0.010 2.935 0.031l-0.146-0.002c0.299-0.002 0.653-0.003 1.007-0.003 26.446 0 51.248 7.038 72.635 19.342l-0.708-0.376c21.592 12.963 38.929 31.002 50.694 52.523l0.36 0.719c11.282 22.335 17.89 48.686 17.89 76.581s-6.608 54.246-18.343 77.575l0.453-0.994c-11.135 22.081-27.835 39.952-48.292 52.194l-0.575 0.319z" />
<glyph unicode="&#xe905;" glyph-name="6" d="M512-64c-281.964 0-510.541 228.577-510.541 510.541s228.577 510.541 510.541 510.541c281.964 0 510.541-228.577 510.541-510.541v0c0-281.964-228.577-510.541-510.541-510.541v0zM512 924.262c-263.032 0-476.262-213.23-476.262-476.262s213.23-476.262 476.262-476.262c263.032 0 476.262 213.23 476.262 476.262v0c-0.414 262.865-213.396 475.847-476.222 476.262h-0.040zM590.769 483.738c20.058-13.19 36.3-30.597 47.758-51.047l0.379-0.736c10.601-20.059 16.824-43.845 16.824-69.083 0-1.354-0.018-2.704-0.054-4.050l0.004 0.199c0.011-0.679 0.018-1.481 0.018-2.284 0-25.931-6.767-50.282-18.63-71.384l0.379 0.733c-11.936-21.93-29.336-39.564-50.409-51.449l-0.645-0.335c-20.304-11.932-44.722-18.979-70.786-18.979-0.755 0-1.509 0.006-2.262 0.018l0.113-0.001c-0.298-0.002-0.651-0.003-1.004-0.003-26.361 0-51.144 6.756-72.711 18.631l0.781-0.394c-21.478 12.251-38.643 29.885-49.99 51.099l-0.335 0.685c-11.485 20.369-18.251 44.719-18.251 70.651 0 0.803 0.006 1.605 0.019 2.404l-0.002-0.121c-0.002 0.258-0.002 0.564-0.002 0.87 0 22.326 4.56 43.586 12.798 62.902l-0.397-1.048c12.857 28.263 26.242 52.188 41.332 74.883l-1.218-1.948 117.425 187.442h42.302l-109.402-175.043-16.775-24.068c17.092 11.446 38.122 18.267 60.744 18.267 0.953 0 1.902-0.012 2.849-0.036l-0.14 0.003c0.696 0.012 1.517 0.019 2.339 0.019 26.001 0 50.355-7.049 71.256-19.341l-0.66 0.359zM594.416 276.604c17.709 19.867 28.531 46.209 28.531 75.078 0 1.555-0.031 3.102-0.094 4.641l0.007-0.221c0.048 1.246 0.075 2.709 0.075 4.178 0 28.824-10.516 55.192-27.921 75.476l0.13-0.155c-17.507 18.889-42.45 30.673-70.146 30.673-0.981 0-1.958-0.015-2.931-0.044l0.143 0.003c-0.633 0.014-1.38 0.022-2.128 0.022-20.002 0-38.67-5.71-54.463-15.59l0.432 0.252c-15.733-9.976-28.19-23.837-36.21-40.261l-0.257-0.582c-8.28-15.899-13.137-34.72-13.137-54.675 0-0.522 0.003-1.043 0.010-1.564l-0.001 0.079c-0.024-0.861-0.038-1.874-0.038-2.891 0-28.776 11.11-54.956 29.274-74.487l-0.062 0.067c17.743-18.89 42.88-30.657 70.765-30.657 0.763 0 1.523 0.009 2.282 0.026l-0.113-0.002c0.278-0.003 0.607-0.004 0.935-0.004 28.267 0 53.793 11.738 71.969 30.606l0.030 0.031z" />
<glyph unicode="&#xe906;" glyph-name="7" d="M510.541-61.083c-281.964 0-510.541 228.577-510.541 510.541s228.577 510.541 510.541 510.541c281.964 0 510.541-228.577 510.541-510.541v0c0-281.964-228.577-510.541-510.541-510.541v0zM510.541 924.262c-262.404-0.831-474.801-213.741-474.801-476.26 0-263.032 213.23-476.262 476.262-476.262s476.262 213.23 476.262 476.262c0 0.512-0.001 1.024-0.002 1.536v-0.080c-1.243 262.493-214.321 474.804-476.986 474.804-0.258 0-0.517 0-0.775-0.001h0.041zM437.607 216.798h41.573l175.043 437.607v24.798h-281.527v-32.821h234.12z" />
<glyph unicode="&#xe907;" glyph-name="8" d="M510.541-61.083c-281.964 0-510.541 228.577-510.541 510.541s228.577 510.541 510.541 510.541c281.964 0 510.541-228.577 510.541-510.541v0c0-281.964-228.577-510.541-510.541-510.541v0zM510.541 924.262c-262.404-0.831-474.801-213.741-474.801-476.26 0-263.032 213.23-476.262 476.262-476.262s476.262 213.23 476.262 476.262c0 0.512-0.001 1.024-0.002 1.536v-0.080c-1.243 262.493-214.321 474.804-476.986 474.804-0.258 0-0.517 0-0.775-0.001h0.041zM631.613 421.014c14.144-20.401 22.599-45.679 22.61-72.932v-0.003c0.086-1.779 0.135-3.864 0.135-5.96 0-24.712-6.828-47.829-18.7-67.567l0.331 0.593c-13.062-19.319-30.848-34.53-51.735-44.168l-0.778-0.322c-20.796-11.032-45.467-17.51-71.65-17.51-0.452 0-0.903 0.002-1.354 0.006h0.069c-0.173-0.001-0.379-0.001-0.584-0.001-26.42 0-51.327 6.473-73.223 17.921l0.873-0.415c-43.006 21.118-72.238 64.318-72.933 114.415l-0.001 0.092c0.039 27.356 8.778 52.664 23.597 73.313l-0.258-0.378c15.218 21.656 36.727 37.979 61.854 46.425l0.869 0.253c-21.152 8.119-38.571 22.013-50.818 39.753l-0.236 0.361c-11.43 16.49-18.259 36.924-18.259 58.952 0 0.813 0.009 1.624 0.028 2.433l-0.002-0.12c-0.014 0.657-0.022 1.431-0.022 2.208 0 21.043 5.981 40.688 16.335 57.33l-0.267-0.461c11.591 18.7 27.975 33.444 47.459 42.74l0.678 0.291c18.732 10.507 41.012 16.925 64.739 17.501l0.173 0.003c0.066 0 0.145 0 0.224 0 24.818 0 48.121-6.49 68.303-17.866l-0.697 0.361c18.777-10.006 33.916-24.677 44.207-42.499l0.283-0.532c10.087-16.181 16.068-35.827 16.068-56.869 0-0.776-0.008-1.551-0.024-2.323l0.002 0.115c0.016-0.689 0.026-1.5 0.026-2.313 0-22.028-6.829-42.462-18.486-59.298l0.227 0.346c-12.369-17.938-29.506-31.788-49.589-39.853l-0.736-0.261c25.726-8.927 47.11-24.896 62.476-45.6l0.247-0.349zM587.852 272.957c18.044 17.855 29.218 42.622 29.218 70 0 1.032-0.016 2.060-0.047 3.085l0.004-0.15c0.028 0.874 0.044 1.903 0.044 2.935 0 27.377-11.173 52.145-29.209 69.991l-0.009 0.008c-19.107 18.956-45.423 30.671-74.474 30.671-0.997 0-1.991-0.014-2.982-0.041l0.146 0.003c-0.461 0.007-1.005 0.011-1.551 0.011-27.551 0-52.641-10.535-71.462-27.797l0.078 0.071c-17.618-18.108-28.483-42.865-28.483-70.159 0-0.976 0.014-1.949 0.041-2.918l-0.003 0.143c-0.024-0.827-0.038-1.8-0.038-2.775 0-27.294 10.865-52.051 28.505-70.182l-0.022 0.023c18.743-17.191 43.833-27.726 71.384-27.726 0.545 0 1.089 0.004 1.632 0.012l-0.082-0.001c0.378-0.005 0.825-0.008 1.272-0.008 27.639 0 52.819 10.53 71.746 27.798l-0.084-0.075zM447.088 628.877c-15.328-14.753-24.85-35.445-24.85-58.361 0-1.021 0.019-2.038 0.056-3.050l-0.004 0.146c-0.040-0.949-0.063-2.061-0.063-3.18 0-22.467 9.235-42.778 24.117-57.342l0.014-0.014c15.694-14.576 36.795-23.52 59.985-23.52 1.99 0 3.965 0.066 5.922 0.196l-0.266-0.014c1.691-0.116 3.666-0.181 5.656-0.181 23.19 0 44.29 8.944 60.040 23.571l-0.055-0.051c14.896 14.578 24.131 34.888 24.131 57.356 0 1.118-0.023 2.231-0.068 3.338l0.005-0.159c0.033 0.866 0.052 1.883 0.052 2.904 0 22.916-9.521 43.608-24.824 58.336l-0.026 0.025c-15.79 15.012-37.196 24.247-60.759 24.247-1.974 0-3.933-0.065-5.875-0.192l0.264 0.014c-1.264 0.065-2.744 0.102-4.233 0.102-23.524 0-44.898-9.204-60.718-24.207l0.039 0.037z" />
<glyph unicode="&#xe908;" glyph-name="9" d="M510.541-61.083c-281.964 0-510.541 228.577-510.541 510.541s228.577 510.541 510.541 510.541c281.964 0 510.541-228.577 510.541-510.541v0c0-281.964-228.577-510.541-510.541-510.541v0zM510.541 924.262c-262.404-0.831-474.801-213.741-474.801-476.26 0-263.032 213.23-476.262 476.262-476.262s476.262 213.23 476.262 476.262c0 0.512-0.001 1.024-0.002 1.536v-0.080c-1.243 262.493-214.321 474.804-476.986 474.804-0.258 0-0.517 0-0.775-0.001h0.041zM583.476 663.886c21.471-11.965 38.645-29.373 49.996-50.389l0.328-0.665c11.485-20.369 18.251-44.719 18.251-70.651 0-0.803-0.006-1.605-0.019-2.404l0.002 0.121c0.023-0.983 0.036-2.141 0.036-3.302 0-21.746-4.576-42.424-12.817-61.123l0.382 0.972c-12.592-28.142-25.988-52.079-41.22-74.676l1.106 1.741-113.778-189.63h-42.302l109.402 174.313 16.775 23.339c-17.677-10.994-39.13-17.512-62.105-17.512-0.474 0-0.947 0.003-1.42 0.008l0.072-0.001c-0.696-0.012-1.517-0.019-2.339-0.019-26.001 0-50.355 7.049-71.256 19.341l0.66-0.359c-20.461 12.709-36.826 30.242-47.79 51.062l-0.346 0.722c-10.617 19.727-16.856 43.17-16.856 68.069 0 1.711 0.029 3.415 0.088 5.111l-0.007-0.246c-0.011 0.679-0.018 1.481-0.018 2.284 0 25.931 6.767 50.282 18.63 71.384l-0.379-0.733c11.73 22.294 29.177 40.209 50.419 52.184l0.635 0.329c20.594 12.376 45.448 19.695 72.011 19.695 0.325 0 0.649-0.001 0.973-0.003h-0.050c26.783-0.059 51.913-7.082 73.69-19.355l-0.756 0.392zM563.054 445.083c15.862 9.535 28.371 23.217 36.227 39.558l0.241 0.556c8.28 15.899 13.137 34.72 13.137 54.675 0 0.522-0.003 1.043-0.010 1.564l0.001-0.079c0.066 1.404 0.104 3.050 0.104 4.705 0 28.442-11.151 54.28-29.32 73.38l0.042-0.045c-18.032 18.469-43.177 29.922-70.998 29.922-0.681 0-1.361-0.007-2.038-0.021l0.101 0.002c-0.156 0.001-0.341 0.001-0.526 0.001-28.672 0-54.459-12.346-72.337-32.013l-0.072-0.080c-17.717-19.672-28.554-45.844-28.554-74.548 0-1.741 0.040-3.473 0.119-5.195l-0.009 0.244c-0.021-0.817-0.033-1.78-0.033-2.745 0-28.93 10.797-55.338 28.581-75.414l-0.104 0.119c17.507-18.889 42.45-30.673 70.146-30.673 0.981 0 1.958 0.015 2.931 0.044l-0.143-0.003c0.753-0.020 1.639-0.032 2.528-0.032 19.87 0 38.404 5.716 54.049 15.594l-0.418-0.246z" />
<glyph unicode="&#xe909;" glyph-name="10" d="M258.188 566.154v38.655l127.635 72.934h28.444v-462.405h-37.197v418.644zM510.541-61.083c281.964 0 510.541 228.577 510.541 510.541s-228.577 510.541-510.541 510.541c-281.964 0-510.541-228.577-510.541-510.541v0c0-281.964 228.577-510.541 510.541-510.541v0zM510.541 924.262c0.433 0.001 0.944 0.002 1.456 0.002 263.032 0 476.262-213.23 476.262-476.262s-213.23-476.262-476.262-476.262c-263.032 0-476.262 213.23-476.262 476.262 0 0.512 0.001 1.024 0.002 1.536v-0.079c1.236 261.728 213.075 473.567 474.684 474.803h0.119zM729.345 267.852c23.238 44.784 36.865 97.775 36.865 153.948 0 9.735-0.409 19.375-1.212 28.903l0.084-1.244c0.456 6.614 0.716 14.335 0.716 22.117 0 56.030-13.471 108.913-37.351 155.587l0.898-1.932c-20.050 36.37-58.143 60.6-101.895 60.6-1.357 0-2.709-0.023-4.055-0.070l0.195 0.005c-0.936 0.027-2.037 0.043-3.142 0.043-43.743 0-81.83-24.22-101.581-59.981l-0.302-0.597c-24.594-46.314-39.035-101.26-39.035-159.58 0-5.695 0.138-11.359 0.41-16.987l-0.031 0.794c-0.401-6.181-0.63-13.402-0.63-20.676 0-56.915 13.99-110.562 38.718-157.691l-0.892 1.866c21.473-36.574 60.609-60.741 105.39-60.741s83.918 24.167 105.080 60.169l0.311 0.572zM622.131 245.242c-67.829 0-102.108 67.1-102.108 202.028s34.279 204.946 102.108 204.946 102.838-68.558 102.838-202.758-34.279-204.217-102.838-204.217z" />
<glyph unicode="&#xe90a;" glyph-name="11" d="M258.188 566.154v38.655l127.635 72.934h28.444v-462.405h-37.197v418.644zM630.154 633.983v-417.185h37.197v462.405h-27.715l-129.094-74.393v-38.655zM510.541-61.083c281.964 0 510.541 228.577 510.541 510.541s-228.577 510.541-510.541 510.541c-281.964 0-510.541-228.577-510.541-510.541v0c0-281.964 228.577-510.541 510.541-510.541v0zM510.541 924.262c0.433 0.001 0.944 0.002 1.456 0.002 263.032 0 476.262-213.23 476.262-476.262s-213.23-476.262-476.262-476.262c-263.032 0-476.262 213.23-476.262 476.262 0 0.512 0.001 1.024 0.002 1.536v-0.079c1.236 261.728 213.075 473.567 474.684 474.803h0.119z" />
<glyph unicode="&#xe90b;" glyph-name="12" d="M533.88 250.348h227.556v-33.55h-284.444v24.068l163.373 188.9c19.606 21.344 37.010 45.256 51.519 71.016l0.993 1.918c9.64 17.225 15.316 37.797 15.316 59.695 0 0.039 0 0.078 0 0.117v-0.006c0.067 1.319 0.105 2.864 0.105 4.418 0 24.163-9.18 46.181-24.242 62.759l0.069-0.077c-15.209 15.369-36.306 24.885-59.625 24.885-1.346 0-2.685-0.032-4.016-0.094l0.188 0.007c-0.55 0.011-1.199 0.017-1.85 0.017-24.029 0-46.062-8.544-63.227-22.76l0.165 0.133c-19.404-16.849-33.891-38.885-41.328-63.952l-0.244-0.96-29.903 16.775c8.014 32.127 26.443 59.093 51.423 77.782l0.36 0.258c24.038 16.887 53.91 26.987 86.142 26.987 0.229 0 0.457-0.001 0.685-0.002h-0.035c24.206-1.278 46.438-8.712 65.469-20.751l-0.557 0.329c18.641-10.199 33.73-24.821 44.199-42.501l0.291-0.531c10.114-18.646 16.060-40.824 16.060-64.391 0-0.696-0.005-1.39-0.016-2.084l0.001 0.105c-0.174-26.699-6.901-51.787-18.65-73.789l0.417 0.855c-18.485-31.189-38.987-58.191-62.18-82.613l0.185 0.197zM377.071 633.983v-417.185h37.197v462.405h-28.444l-127.635-72.934v-40.114zM510.541-61.083c281.964 0 510.541 228.577 510.541 510.541s-228.577 510.541-510.541 510.541c-281.964 0-510.541-228.577-510.541-510.541v0c0-281.964 228.577-510.541 510.541-510.541v0zM510.541 924.262c0.433 0.001 0.944 0.002 1.456 0.002 263.032 0 476.262-213.23 476.262-476.262s-213.23-476.262-476.262-476.262c-263.032 0-476.262 213.23-476.262 476.262 0 0.512 0.001 1.024 0.002 1.536v-0.079c1.236 261.728 213.075 473.567 474.684 474.803h0.119z" />
<glyph unicode="&#xe90c;" glyph-name="13" d="M715.487 421.014c14.589-19.999 23.341-45.065 23.341-72.175 0-0.267-0.001-0.534-0.003-0.8v0.041c0.011-0.679 0.018-1.481 0.018-2.284 0-25.931-6.767-50.282-18.63-71.384l0.379 0.733c-11.942-19.954-28.791-35.867-48.917-46.356l-0.678-0.322c-20.607-10.585-44.963-16.79-70.769-16.79-0.762 0-1.522 0.005-2.281 0.016l0.115-0.001c-0.698-0.011-1.522-0.017-2.348-0.017-31.518 0-60.943 8.965-85.862 24.485l0.688-0.4c-26.198 16.765-45.633 42.122-54.471 72.026l-0.23 0.908 29.903 18.234c6.947-25.657 22.537-46.936 43.384-61.025l0.376-0.24c19.593-13.274 43.756-21.191 69.768-21.191 1.113 0 2.223 0.015 3.33 0.043l-0.164-0.003c1.384-0.070 3.006-0.11 4.637-0.11 26.588 0 50.696 10.617 68.316 27.843l-0.018-0.018c16.779 17.831 27.088 41.915 27.088 68.407 0 1.592-0.037 3.176-0.111 4.75l0.008-0.223c0.142 1.866 0.222 4.041 0.222 6.234 0 26.666-11.925 50.546-30.733 66.599l-0.121 0.101c-21.594 15.323-48.489 24.495-77.526 24.495-3.775 0-7.514-0.155-11.21-0.459l0.485 0.032h-30.632v34.279h30.632c2.108-0.159 4.565-0.25 7.043-0.25 25.338 0 48.457 9.501 65.99 25.134l-0.098-0.086c15.805 15.942 25.571 37.893 25.571 62.124 0 0.98-0.016 1.956-0.048 2.929l0.004-0.142c0.118 1.632 0.186 3.535 0.186 5.455 0 44.309-35.919 80.228-80.228 80.228-2.633 0-5.237-0.127-7.806-0.375l0.327 0.025c-0.792 0.023-1.724 0.037-2.659 0.037-22.478 0-43.157-7.703-59.54-20.614l0.205 0.156c-18.373-15.354-32.105-35.691-39.157-58.933l-0.228-0.873-29.903 17.504c7.407 29.618 24.252 54.523 47.095 71.976l0.312 0.229c22.39 15.543 50.142 24.831 80.064 24.831 1.083 0 2.164-0.012 3.241-0.036l-0.16 0.003c1.862 0.1 4.042 0.157 6.236 0.157 32.545 0 62.162-12.539 84.283-33.050l-0.080 0.073c20.785-21.060 33.622-50.009 33.622-81.955 0-1.445-0.026-2.883-0.078-4.315l0.006 0.207c0.004-0.361 0.006-0.788 0.006-1.215 0-23.6-6.794-45.614-18.532-64.192l0.292 0.495c-12.635-18.418-31.031-32.084-52.556-38.48l-0.686-0.175c26.974-6.763 49.766-21.737 66.188-42.069l0.182-0.233zM377.071 633.983v-417.185h37.197v462.405h-28.444l-127.635-72.934v-40.114zM510.541-61.083c281.964 0 510.541 228.577 510.541 510.541s-228.577 510.541-510.541 510.541c-281.964 0-510.541-228.577-510.541-510.541v0c0-281.964 228.577-510.541 510.541-510.541v0zM510.541 924.262c0.433 0.001 0.944 0.002 1.456 0.002 263.032 0 476.262-213.23 476.262-476.262s-213.23-476.262-476.262-476.262c-263.032 0-476.262 213.23-476.262 476.262 0 0.512 0.001 1.024 0.002 1.536v-0.079c1.236 261.728 213.075 473.567 474.684 474.803h0.119z" />
<glyph unicode="&#xe90d;" glyph-name="14" horiz-adv-x="1023" d="M681.937 499.783v-137.117h72.934v-32.821h-72.934v-109.402h-37.197v109.402h-207.134v25.527l181.607 327.476h40.843l-177.96-320.182h162.644v137.117zM377.071 633.983v-417.185h37.197v462.405h-28.444l-127.635-72.934v-40.114zM510.541-61.083c281.964 0 510.541 228.577 510.541 510.541s-228.577 510.541-510.541 510.541c-281.964 0-510.541-228.577-510.541-510.541v0c0-281.964 228.577-510.541 510.541-510.541v0zM510.541 924.262c0.433 0.001 0.944 0.002 1.456 0.002 263.032 0 476.262-213.23 476.262-476.262s-213.23-476.262-476.262-476.262c-263.032 0-476.262 213.23-476.262 476.262 0 0.512 0.001 1.024 0.002 1.536v-0.079c1.236 261.728 213.075 473.567 474.684 474.803h0.119z" />
<glyph unicode="&#xe90e;" glyph-name="15" d="M667.35 487.385c21.031-12.561 37.731-30.432 48.535-51.792l0.331-0.721c11.716-22.245 18.592-48.61 18.592-76.581s-6.876-54.337-19.030-77.498l0.438 0.917c-11.73-22.294-29.177-40.209-50.419-52.184l-0.635-0.329c-20.304-11.932-44.722-18.979-70.786-18.979-0.755 0-1.509 0.006-2.262 0.018l0.113-0.001c-2.415-0.147-5.238-0.231-8.081-0.231-27.217 0-52.639 7.685-74.216 21.003l0.609-0.35c-23.031 15.466-40.406 37.794-49.334 64.028l-0.261 0.883 30.632 17.504c7.497-21.408 20.643-39.259 37.66-52.317l0.265-0.196c16.176-11.412 36.297-18.239 58.013-18.239 0.374 0 0.748 0.002 1.121 0.006h-0.057c1.409-0.074 3.060-0.116 4.72-0.116 28.524 0 54.151 12.405 71.78 32.114l0.081 0.093c17.741 20.833 28.533 48.057 28.533 77.803 0 1.622-0.032 3.237-0.096 4.844l0.007-0.231c0.036 1.116 0.057 2.428 0.057 3.744 0 29.668-10.482 56.887-27.944 78.158l0.172-0.216c-17.582 19.735-43.068 32.103-71.441 32.103-0.525 0-1.049-0.004-1.572-0.013l0.079 0.001c-0.031 0-0.067 0-0.104 0-39.923 0-74.918-21.103-94.436-52.764l-0.275-0.479-24.068 13.128 36.467 248.707h202.028v-33.55h-173.584l-23.339-168.479c20.544 17.72 47.497 28.512 76.972 28.512 1.402 0 2.798-0.024 4.188-0.073l-0.202 0.006c1.502 0.060 3.266 0.094 5.038 0.094 25.015 0 48.441-6.807 68.525-18.671l-0.628 0.343zM377.801 633.254v-417.185h37.197v463.134h-29.174l-127.635-72.934v-40.114zM510.541-61.083c281.964 0 510.541 228.577 510.541 510.541s-228.577 510.541-510.541 510.541c-281.964 0-510.541-228.577-510.541-510.541v0c0-281.964 228.577-510.541 510.541-510.541v0zM510.541 924.262c0.433 0.001 0.944 0.002 1.456 0.002 263.032 0 476.262-213.23 476.262-476.262s-213.23-476.262-476.262-476.262c-263.032 0-476.262 213.23-476.262 476.262 0 0.512 0.001 1.024 0.002 1.536v-0.079c1.236 261.728 213.075 473.567 474.684 474.803h0.119z" />
<glyph unicode="&#xe90f;" glyph-name="16" d="M668.809 479.362c20.705-12.679 37.304-30.213 48.516-51.072l0.35-0.712c10.583-20.77 16.784-45.298 16.784-71.273 0-0.584-0.003-1.168-0.009-1.75l0.001 0.089c0.003-0.353 0.005-0.769 0.005-1.186 0-26.299-6.757-51.020-18.63-72.522l0.392 0.774c-12.16-21.768-29.501-39.343-50.408-51.439l-0.646-0.345c-21.196-11.107-46.304-17.624-72.934-17.624s-51.738 6.517-73.817 18.043l0.882-0.419c-21.719 12.22-39.119 29.854-50.717 51.108l-0.337 0.675c-11.469 21.117-18.217 46.235-18.234 72.929v0.005c0 0.090 0 0.196 0 0.302 0 22.77 4.557 44.476 12.807 64.255l-0.408-1.104c13.67 28.795 27.032 52.692 41.739 75.646l-1.625-2.711 113.778 188.171h40.114l-109.402-175.043-16.046-24.068c17.015 11.438 37.965 18.256 60.508 18.256 0.779 0 1.556-0.008 2.331-0.024l-0.116 0.002c1.438 0.056 3.126 0.089 4.822 0.089 25.178 0 48.701-7.088 68.681-19.377l-0.569 0.326zM666.621 275.145c17.703 19.569 28.537 45.644 28.537 74.248 0 1.59-0.033 3.172-0.1 4.746l0.008-0.225c0.084 1.644 0.132 3.569 0.132 5.505 0 28.286-10.256 54.177-27.253 74.156l0.135-0.162c-17.743 18.89-42.88 30.657-70.765 30.657-0.763 0-1.523-0.009-2.282-0.026l0.113 0.002c-1.989 0.137-4.312 0.215-6.652 0.215-19.64 0-37.995-5.506-53.604-15.058l0.45 0.256c-15.708-10.006-28.156-23.858-36.208-40.26l-0.259-0.584c-7.825-16.109-12.399-35.041-12.399-55.041 0-0.137 0-0.273 0.001-0.41v0.021c-0.074-1.509-0.117-3.278-0.117-5.056 0-28.438 10.85-54.341 28.637-73.797l-0.076 0.084c18.478-18.477 44.004-29.906 72.2-29.906 0.258 0 0.516 0.001 0.774 0.003h-0.040c0.461-0.008 1.006-0.012 1.551-0.012 28.076 0 53.408 11.751 71.344 30.604l0.039 0.041zM369.048 633.983v-417.185h37.197v462.405h-20.422l-127.635-72.934v-40.114zM510.541-61.083c-281.964 0-510.541 228.577-510.541 510.541s228.577 510.541 510.541 510.541c281.964 0 510.541-228.577 510.541-510.541v0c0-281.964-228.577-510.541-510.541-510.541v0zM510.541 924.262c-262.404-0.831-474.801-213.741-474.801-476.26 0-263.032 213.23-476.262 476.262-476.262s476.262 213.23 476.262 476.262c0 0.512-0.001 1.024-0.002 1.536v-0.080c-1.243 262.493-214.321 474.804-476.986 474.804-0.258 0-0.517 0-0.775-0.001h0.041z" />
<glyph unicode="&#xe910;" glyph-name="17" d="M693.607 646.382h-234.12v32.821h277.88v-21.151l-175.043-441.254h-41.573zM377.071 633.983v-417.185h37.197v462.405h-28.444l-127.635-72.934v-40.114zM510.541-61.083c281.964 0 510.541 228.577 510.541 510.541s-228.577 510.541-510.541 510.541c-281.964 0-510.541-228.577-510.541-510.541v0c0-281.964 228.577-510.541 510.541-510.541v0zM510.541 924.262c0.433 0.001 0.944 0.002 1.456 0.002 263.032 0 476.262-213.23 476.262-476.262s-213.23-476.262-476.262-476.262c-263.032 0-476.262 213.23-476.262 476.262 0 0.512 0.001 1.024 0.002 1.536v-0.079c1.236 261.728 213.075 473.567 474.684 474.803h0.119z" />
<glyph unicode="&#xe911;" glyph-name="18" d="M722.781 421.014c14.355-20.354 23.048-45.601 23.338-72.863l0.001-0.072c0.039-1.227 0.061-2.67 0.061-4.118 0-25.32-6.791-49.054-18.65-69.48l0.356 0.663c-12.631-20.295-29.884-36.612-50.348-47.784l-0.706-0.353c-20.796-11.032-45.467-17.51-71.65-17.51-0.452 0-0.903 0.002-1.354 0.006h0.069c-0.434-0.004-0.947-0.007-1.46-0.007-26.124 0-50.735 6.479-72.313 17.917l0.839-0.406c-43.482 20.967-72.952 64.706-72.952 115.328 0 0.737 0.006 1.473 0.019 2.207l-0.001-0.111c-0.017 0.779-0.027 1.697-0.027 2.617 0 55.207 35.251 102.18 84.473 119.638l0.888 0.275c-21.045 8.327-38.411 22.171-50.819 39.762l-0.235 0.352c-11.433 16.791-18.255 37.52-18.255 59.843 0 0.757 0.008 1.511 0.023 2.264l-0.002-0.113c-0.009 0.505-0.013 1.102-0.013 1.699 0 20.968 5.978 40.539 16.324 57.103l-0.265-0.455c11.287 17.35 26.559 31.22 44.568 40.537l0.651 0.306c19.333 10.113 42.23 16.047 66.513 16.047 0.206 0 0.413 0 0.619-0.001h-0.032c0.429 0.005 0.936 0.008 1.444 0.008 23.501 0 45.613-5.944 64.916-16.41l-0.719 0.357c18.867-10.196 34.185-24.812 44.927-42.513l0.292-0.519c9.633-16.416 15.322-36.154 15.322-57.22 0-0.396-0.002-0.792-0.006-1.188v0.060c0.014-0.64 0.022-1.395 0.022-2.151 0-22.322-6.822-43.052-18.495-60.216l0.24 0.373c-12.058-18.234-29.301-32.182-49.618-39.879l-0.707-0.235c25.851-8.653 47.307-24.689 62.473-45.586l0.251-0.363zM677.561 272.957c18.044 17.855 29.218 42.622 29.218 70 0 1.032-0.016 2.060-0.047 3.085l0.004-0.15c0.024 0.827 0.038 1.8 0.038 2.775 0 27.294-10.865 52.051-28.505 70.182l0.022-0.023c-18.743 17.191-43.833 27.726-71.384 27.726-0.545 0-1.089-0.004-1.632-0.012l0.082 0.001c-0.295 0.003-0.644 0.005-0.994 0.005-27.728 0-52.997-10.526-72.030-27.799l0.089 0.080c-17.618-18.108-28.483-42.865-28.483-70.159 0-0.976 0.014-1.949 0.041-2.918l-0.003 0.143c-0.024-0.827-0.038-1.8-0.038-2.775 0-27.294 10.865-52.051 28.505-70.182l-0.022 0.023c18.944-17.194 44.213-27.72 71.941-27.72 0.349 0 0.698 0.002 1.047 0.005h-0.053c0.544-0.010 1.186-0.016 1.829-0.016 27.463 0 52.464 10.541 71.177 27.797l-0.072-0.066zM536.798 628.877c-16.181-15.207-26.259-36.746-26.259-60.639 0-0.22 0.001-0.44 0.003-0.66v0.034c-0.040-0.949-0.063-2.061-0.063-3.18 0-22.467 9.235-42.778 24.117-57.342l0.014-0.014c15.391-14.602 36.239-23.582 59.185-23.582 2.272 0 4.523 0.088 6.751 0.261l-0.295-0.018c1.691-0.116 3.666-0.181 5.656-0.181 23.19 0 44.29 8.944 60.040 23.571l-0.055-0.051c14.469 14.835 23.394 35.137 23.394 57.522 0 1.060-0.020 2.115-0.060 3.165l0.005-0.152c0.028 0.809 0.044 1.759 0.044 2.713 0 22.84-9.21 43.53-24.118 58.557l0.005-0.005c-16.088 14.955-37.724 24.133-61.503 24.133-1.199 0-2.392-0.023-3.579-0.070l0.171 0.005c-1.39 0.078-3.015 0.122-4.652 0.122-23.626 0-45.102-9.208-61.033-24.231l0.044 0.041zM355.191 633.983v-417.185h37.197v462.405h-27.715l-127.635-72.934v-40.114zM510.541-61.083c-281.964 0-510.541 228.577-510.541 510.541s228.577 510.541 510.541 510.541c281.964 0 510.541-228.577 510.541-510.541v0c0-281.964-228.577-510.541-510.541-510.541v0zM510.541 924.262c-262.404-0.831-474.801-213.741-474.801-476.26 0-263.032 213.23-476.262 476.262-476.262s476.262 213.23 476.262 476.262c0 0.512-0.001 1.024-0.002 1.536v-0.080c-1.243 262.493-214.321 474.804-476.986 474.804-0.258 0-0.517 0-0.775-0.001h0.041z" />
<glyph unicode="&#xe912;" glyph-name="19" d="M691.419 664.615c21.478-12.251 38.643-29.885 49.99-51.099l0.335-0.685c11.485-20.369 18.251-44.719 18.251-70.651 0-0.803-0.006-1.605-0.019-2.404l0.002 0.121c0.001-0.259 0.002-0.566 0.002-0.872 0-22.575-4.558-44.085-12.805-63.66l0.404 1.079c-13.077-28.383-26.455-52.299-41.433-75.070l1.319 2.136-117.425-188.9h-42.302l108.672 173.584 16.046 24.068c-17.266-10.992-38.306-17.519-60.871-17.519-0.652 0-1.302 0.005-1.951 0.016l0.098-0.001c-0.81-0.017-1.764-0.027-2.72-0.027-25.874 0-50.1 7.054-70.861 19.344l0.646-0.354c-20.788 12.307-37.263 29.953-47.816 51.074l-0.321 0.709c-11.048 20.051-17.548 43.949-17.548 69.365 0 1.255 0.016 2.507 0.047 3.754l-0.004-0.185c0.016 26.699 6.765 51.818 18.64 73.756l-0.407-0.821c11.936 22.15 29.329 40.010 50.419 52.175l0.635 0.338c20.91 12.336 46.064 19.643 72.92 19.692h0.014c26.783-0.059 51.913-7.082 73.69-19.355l-0.756 0.392zM665.892 445.812c15.733 9.976 28.19 23.837 36.21 40.261l0.257 0.582c7.844 15.486 12.438 33.762 12.438 53.11 0 1.072-0.014 2.141-0.042 3.206l0.003-0.157c0.055 1.301 0.087 2.827 0.087 4.36 0 28.422-10.838 54.313-28.608 73.765l0.076-0.085c-18.256 18.472-43.592 29.912-71.6 29.912-0.469 0-0.938-0.003-1.406-0.010l0.071 0.001c-0.447 0.007-0.975 0.012-1.504 0.012-28.229 0-53.642-12.058-71.369-31.305l-0.062-0.068c-18.591-19.881-30.007-46.675-30.007-76.135 0-1.696 0.038-3.383 0.113-5.060l-0.008 0.238c-0.060-1.38-0.095-3-0.095-4.627 0-28.093 10.247-53.792 27.208-73.565l-0.127 0.152c17.859-18.892 43.094-30.65 71.075-30.65 0.654 0 1.307 0.006 1.957 0.019l-0.097-0.002c0.464-0.007 1.012-0.011 1.561-0.011 20.099 0 38.932 5.42 55.117 14.878l-0.518-0.28zM374.883 633.983v-417.185h37.197v462.405h-26.256l-127.635-72.934v-40.114zM510.541-61.083c-281.964 0-510.541 228.577-510.541 510.541s228.577 510.541 510.541 510.541c281.964 0 510.541-228.577 510.541-510.541v0c0-281.964-228.577-510.541-510.541-510.541v0zM510.541 924.262c-262.404-0.831-474.801-213.741-474.801-476.26 0-263.032 213.23-476.262 476.262-476.262s476.262 213.23 476.262 476.262c0 0.512-0.001 1.024-0.002 1.536v-0.080c-1.243 262.493-214.321 474.804-476.986 474.804-0.258 0-0.517 0-0.775-0.001h0.041z" />
<glyph unicode="&#xe913;" glyph-name="20" d="M279.339 240.866h226.826v-33.55h-283.715v23.339l162.644 188.9c19.799 21.386 37.429 45.289 52.23 71.025l1.012 1.909c9.637 16.98 15.316 37.298 15.316 58.942 0 0.048 0 0.095 0 0.143v-0.008c0.093 1.545 0.147 3.352 0.147 5.171 0 24.289-9.498 46.359-24.983 62.699l0.039-0.041c-15.379 14.547-36.189 23.49-59.088 23.49-1.792 0-3.571-0.055-5.336-0.163l0.242 0.012c-0.060 0-0.13 0-0.201 0-24.676 0-47.294-8.816-64.874-23.471l0.163 0.132c-19.708-16.611-34.278-38.741-41.355-64.003l-0.217-0.909-29.174 17.504c7.74 32.010 26.249 58.828 51.397 77.044l0.386 0.267c23.494 16.885 52.84 27.003 84.55 27.003 0.789 0 1.576-0.006 2.361-0.019l-0.119 0.001c1.12 0.034 2.437 0.054 3.758 0.054 22.067 0 42.869-5.414 61.151-14.987l-0.727 0.347c18.808-10.259 33.947-25.165 44.201-43.209l0.289-0.552c10.136-17.7 16.114-38.906 16.114-61.508 0-1.454-0.025-2.901-0.074-4.343l0.006 0.21c0.011-0.679 0.018-1.481 0.018-2.284 0-25.931-6.767-50.282-18.63-71.384l0.379 0.733c-18.468-31.48-38.977-58.723-62.207-83.373l0.213 0.228zM782.587 264.205c23.836 45.263 37.826 98.91 37.826 155.825 0 7.274-0.229 14.495-0.679 21.656l0.049-0.98c0.431 6.432 0.677 13.944 0.677 21.512 0 57.131-14.006 110.991-38.772 158.333l0.898-1.885c-20.421 36.389-58.759 60.574-102.745 60.574-1.058 0-2.113-0.014-3.165-0.042l0.155 0.003c-1.192 0.044-2.592 0.070-3.998 0.070-43.508 0-81.349-24.266-100.728-60.002l-0.3-0.604c-23.837-45.714-37.819-99.835-37.819-157.222 0-7.296 0.226-14.539 0.671-21.723l-0.049 0.985c-0.401-6.181-0.63-13.402-0.63-20.676 0-56.915 13.99-110.562 38.718-157.691l-0.892 1.866c20.054-36.358 58.14-60.578 101.884-60.578 1.105 0 2.206 0.015 3.304 0.046l-0.162-0.004c0.77-0.018 1.677-0.028 2.587-0.028 44.104 0 82.564 24.165 102.863 59.977l0.306 0.587zM676.832 238.678c-68.558 0-102.838 67.1-102.838 202.028s34.279 204.946 102.838 204.946 102.838-68.558 102.838-204.946-34.279-202.028-102.838-202.028zM510.541-61.083c281.964 0 510.541 228.577 510.541 510.541s-228.577 510.541-510.541 510.541c-281.964 0-510.541-228.577-510.541-510.541v0c0-281.964 228.577-510.541 510.541-510.541v0zM510.541 924.262c0.433 0.001 0.944 0.002 1.456 0.002 263.032 0 476.262-213.23 476.262-476.262s-213.23-476.262-476.262-476.262c-263.032 0-476.262 213.23-476.262 476.262 0 0.512 0.001 1.024 0.002 1.536v-0.079c1.236 261.728 213.075 473.567 474.684 474.803h0.119z" />
<glyph unicode="&#xe914;" glyph-name="21" d="M558.678 560.319v35.009l127.635 72.934h27.715v-463.134h-37.197v422.291zM412.809 396.217c23.017 24.422 43.527 51.665 60.835 81.020l1.159 2.125c11.414 21.129 18.154 46.236 18.234 72.91v0.025c0.013 0.696 0.021 1.517 0.021 2.339 0 23.201-5.952 45.011-16.413 63.987l0.346-0.685c-9.221 18.081-22.608 32.871-38.952 43.497l-0.432 0.263c-17.781 9.228-38.822 14.64-61.126 14.64-1.331 0-2.658-0.019-3.98-0.058l0.194 0.004c-0.667 0.011-1.454 0.017-2.242 0.017-31.709 0-61.055-10.118-84.986-27.301l0.436 0.298c-25.128-18.855-43.496-45.515-51.568-76.341l-0.216-0.97 29.903-17.504c7.294 26.17 21.864 48.301 41.379 64.752l0.194 0.159c15.99 13.402 36.417 21.994 58.798 23.326l0.279 0.013c0.882 0.032 1.918 0.051 2.958 0.051 23.587 0 44.957-9.488 60.503-24.857l-0.008 0.008c15.009-16.604 24.193-38.722 24.193-62.985 0-1.704-0.045-3.397-0.135-5.079l0.010 0.235c-0.062-21.605-5.452-41.938-14.924-59.772l0.337 0.695c-16.149-27.582-33.754-51.457-53.564-73.295l0.322 0.361-160.456-187.442v-24.068h286.632v34.279h-230.473zM510.541-61.083c281.964 0 510.541 228.577 510.541 510.541s-228.577 510.541-510.541 510.541c-281.964 0-510.541-228.577-510.541-510.541v0c0-281.964 228.577-510.541 510.541-510.541v0zM510.541 924.262c0.433 0.001 0.944 0.002 1.456 0.002 263.032 0 476.262-213.23 476.262-476.262s-213.23-476.262-476.262-476.262c-263.032 0-476.262 213.23-476.262 476.262 0 0.512 0.001 1.024 0.002 1.536v-0.079c1.236 261.728 213.075 473.567 474.684 474.803h0.119z" />
<glyph unicode="&#xe915;" glyph-name="22" d="M588.581 240.866h226.826v-33.55h-283.715v23.339l162.644 188.9c19.799 21.386 37.429 45.289 52.23 71.025l1.012 1.909c9.637 16.98 15.316 37.298 15.316 58.942 0 0.048 0 0.095 0 0.143v-0.008c0.093 1.545 0.147 3.352 0.147 5.171 0 24.289-9.498 46.359-24.983 62.699l0.039-0.041c-15.537 15.36-36.908 24.849-60.495 24.849-1.040 0-2.076-0.018-3.108-0.055l0.149 0.004c-0.060 0-0.13 0-0.201 0-24.676 0-47.294-8.816-64.874-23.471l0.163 0.132c-19.708-16.611-34.278-38.741-41.355-64.003l-0.217-0.909-29.903 17.504c8.614 31.378 27.217 57.557 52.113 75.576l0.4 0.276c23.494 16.885 52.84 27.003 84.55 27.003 0.789 0 1.576-0.006 2.361-0.019l-0.119 0.001c1.12 0.034 2.437 0.054 3.758 0.054 22.067 0 42.869-5.414 61.151-14.987l-0.727 0.347c18.808-10.259 33.947-25.165 44.201-43.209l0.289-0.552c10.136-17.7 16.114-38.906 16.114-61.508 0-1.454-0.025-2.901-0.074-4.343l0.006 0.21c0.011-0.679 0.018-1.481 0.018-2.284 0-25.931-6.767-50.282-18.63-71.384l0.379 0.733c-18.468-31.48-38.977-58.723-62.207-83.373l0.213 0.228zM264.752 240.866h226.826v-33.55h-283.715v23.339l162.644 188.9c19.799 21.386 37.429 45.289 52.23 71.025l1.012 1.909c8.734 16.314 13.865 35.687 13.865 56.259 0 0.478-0.003 0.955-0.008 1.431l0.001-0.072c0.093 1.545 0.147 3.352 0.147 5.171 0 24.289-9.498 46.359-24.983 62.699l0.039-0.041c-15.537 15.36-36.908 24.849-60.495 24.849-1.040 0-2.076-0.018-3.108-0.055l0.149 0.004c-0.060 0-0.13 0-0.201 0-24.676 0-47.294-8.816-64.874-23.471l0.163 0.132c-19.708-16.611-34.278-38.741-41.355-64.003l-0.217-0.909-24.068 17.504c7.74 32.010 26.249 58.828 51.397 77.044l0.386 0.267c23.494 16.885 52.84 27.003 84.55 27.003 0.789 0 1.576-0.006 2.361-0.019l-0.119 0.001c1.12 0.034 2.437 0.054 3.758 0.054 22.067 0 42.869-5.414 61.151-14.987l-0.727 0.347c18.808-10.259 33.947-25.165 44.201-43.209l0.289-0.552c10.136-17.7 16.114-38.906 16.114-61.508 0-1.454-0.025-2.901-0.074-4.343l0.006 0.21c0.011-0.679 0.018-1.481 0.018-2.284 0-25.931-6.767-50.282-18.63-71.384l0.379 0.733c-18.468-31.48-38.977-58.723-62.207-83.373l0.213 0.228zM510.541-61.083c-281.964 0-510.541 228.577-510.541 510.541s228.577 510.541 510.541 510.541c281.964 0 510.541-228.577 510.541-510.541v0c0-281.964-228.577-510.541-510.541-510.541v0zM510.541 924.262c-262.404-0.831-474.801-213.741-474.801-476.26 0-263.032 213.23-476.262 476.262-476.262s476.262 213.23 476.262 476.262c0 0.512-0.001 1.024-0.002 1.536v-0.080c-1.243 262.493-214.321 474.804-476.986 474.804-0.258 0-0.517 0-0.775-0.001h0.041z" />
<glyph unicode="&#xe916;" glyph-name="23" d="M783.316 417.368c14.148-19.797 22.622-44.494 22.622-71.169 0-0.621-0.005-1.24-0.014-1.859l0.001 0.094c0.061-1.538 0.096-3.344 0.096-5.158 0-24.887-6.526-48.25-17.961-68.471l0.361 0.694c-11.969-20.379-29.107-36.581-49.641-47.090l-0.684-0.318c-19.821-10.166-43.245-16.124-68.060-16.124-1.714 0-3.422 0.028-5.122 0.085l0.248-0.007c-1.772-0.070-3.852-0.11-5.941-0.11-30.388 0-58.803 8.447-83.024 23.122l0.715-0.402c-26.293 16.471-45.625 41.975-53.774 72.076l-0.198 0.858 29.903 17.504c7.374-25.473 22.849-46.626 43.402-61.027l0.359-0.238c19.593-13.274 43.756-21.191 69.768-21.191 1.113 0 2.223 0.015 3.33 0.043l-0.164-0.003c1.608-0.098 3.488-0.154 5.381-0.154 26.495 0 50.432 10.952 67.531 28.575l0.023 0.024c17.23 17.17 27.891 40.922 27.891 67.164 0 2.030-0.064 4.045-0.189 6.043l0.014-0.273c0.142 1.866 0.222 4.041 0.222 6.234 0 26.666-11.925 50.546-30.733 66.599l-0.121 0.101c-22.042 16.126-49.687 25.804-79.593 25.804-3.046 0-6.069-0.1-9.065-0.298l0.407 0.022h-30.632v34.279h28.444c2.038-0.151 4.415-0.238 6.811-0.238 25.535 0 48.782 9.793 66.192 25.827l-0.069-0.062c15.806 15.833 25.581 37.692 25.581 61.834 0 1.082-0.020 2.16-0.059 3.233l0.004-0.155c0.025 0.77 0.039 1.676 0.039 2.585 0 22.75-8.903 43.42-23.414 58.718l0.036-0.038c-15.028 14.937-35.74 24.17-58.61 24.17-1.447 0-2.886-0.037-4.314-0.11l0.2 0.008c-0.45 0.008-0.982 0.012-1.514 0.012-22.96 0-44.057-7.977-60.67-21.31l0.19 0.147c-18.366-15.091-32.102-35.195-39.158-58.219l-0.226-0.858-30.632 16.775c8.669 30.136 26.689 55.25 50.665 72.665l0.389 0.269c22.606 15.099 50.406 24.096 80.306 24.096 0.998 0 1.994-0.010 2.988-0.030l-0.149 0.002c1.862 0.1 4.042 0.157 6.236 0.157 32.545 0 62.162-12.539 84.283-33.050l-0.080 0.073c20.354-20.766 32.916-49.236 32.916-80.64 0-1.651-0.035-3.293-0.103-4.927l0.008 0.234c0.016-0.74 0.025-1.612 0.025-2.487 0-23.328-6.519-45.134-17.835-63.694l0.306 0.54c-12.635-18.418-31.031-32.084-52.556-38.48l-0.686-0.175c27.013-6.654 49.835-21.654 66.185-42.063l0.185-0.239zM264.752 240.866h226.826v-33.55h-283.715v23.339l162.644 188.9c19.799 21.386 37.429 45.289 52.23 71.025l1.012 1.909c8.734 16.314 13.865 35.687 13.865 56.259 0 0.478-0.003 0.955-0.008 1.431l0.001-0.072c0.093 1.545 0.147 3.352 0.147 5.171 0 24.289-9.498 46.359-24.983 62.699l0.039-0.041c-15.537 15.36-36.908 24.849-60.495 24.849-1.040 0-2.076-0.018-3.108-0.055l0.149 0.004c-0.060 0-0.13 0-0.201 0-24.676 0-47.294-8.816-64.874-23.471l0.163 0.132c-19.708-16.611-34.278-38.741-41.355-64.003l-0.217-0.909-24.068 17.504c7.74 32.010 26.249 58.828 51.397 77.044l0.386 0.267c23.494 16.885 52.84 27.003 84.55 27.003 0.789 0 1.576-0.006 2.361-0.019l-0.119 0.001c1.12 0.034 2.437 0.054 3.758 0.054 22.067 0 42.869-5.414 61.151-14.987l-0.727 0.347c18.808-10.259 33.947-25.165 44.201-43.209l0.289-0.552c10.136-17.7 16.114-38.906 16.114-61.508 0-1.454-0.025-2.901-0.074-4.343l0.006 0.21c0.011-0.679 0.018-1.481 0.018-2.284 0-25.931-6.767-50.282-18.63-71.384l0.379 0.733c-18.468-31.48-38.977-58.723-62.207-83.373l0.213 0.228zM510.541-61.083c-281.964 0-510.541 228.577-510.541 510.541s228.577 510.541 510.541 510.541c281.964 0 510.541-228.577 510.541-510.541v0c0-281.964-228.577-510.541-510.541-510.541v0zM510.541 924.262c-262.404-0.831-474.801-213.741-474.801-476.26 0-263.032 213.23-476.262 476.262-476.262s476.262 213.23 476.262 476.262c0 0.512-0.001 1.024-0.002 1.536v-0.080c-1.243 262.493-214.321 474.804-476.986 474.804-0.258 0-0.517 0-0.775-0.001h0.041z" />
<glyph unicode="&#xe917;" glyph-name="24" d="M756.33 486.655v-137.846h70.017v-32.821h-70.017v-108.672h-37.197v108.672h-207.134v26.256l180.877 327.476h40.843l-177.96-320.912h163.373v137.846h37.197zM264.752 240.866h226.826v-33.55h-283.715v23.339l162.644 188.9c19.799 21.386 37.429 45.289 52.23 71.025l1.012 1.909c8.734 16.314 13.865 35.687 13.865 56.259 0 0.478-0.003 0.955-0.008 1.431l0.001-0.072c0.093 1.545 0.147 3.352 0.147 5.171 0 24.289-9.498 46.359-24.983 62.699l0.039-0.041c-15.537 15.36-36.908 24.849-60.495 24.849-1.040 0-2.076-0.018-3.108-0.055l0.149 0.004c-0.060 0-0.13 0-0.201 0-24.676 0-47.294-8.816-64.874-23.471l0.163 0.132c-19.708-16.611-34.278-38.741-41.355-64.003l-0.217-0.909-24.068 17.504c7.74 32.010 26.249 58.828 51.397 77.044l0.386 0.267c23.494 16.885 52.84 27.003 84.55 27.003 0.789 0 1.576-0.006 2.361-0.019l-0.119 0.001c1.12 0.034 2.437 0.054 3.758 0.054 22.067 0 42.869-5.414 61.151-14.987l-0.727 0.347c18.808-10.259 33.947-25.165 44.201-43.209l0.289-0.552c10.136-17.7 16.114-38.906 16.114-61.508 0-1.454-0.025-2.901-0.074-4.343l0.006 0.21c0.011-0.679 0.018-1.481 0.018-2.284 0-25.931-6.767-50.282-18.63-71.384l0.379 0.733c-18.468-31.48-38.977-58.723-62.207-83.373l0.213 0.228zM510.541-61.083c-281.964 0-510.541 228.577-510.541 510.541s228.577 510.541 510.541 510.541c281.964 0 510.541-228.577 510.541-510.541v0c0-281.964-228.577-510.541-510.541-510.541v0zM510.541 924.262c-262.404-0.831-474.801-213.741-474.801-476.26 0-263.032 213.23-476.262 476.262-476.262s476.262 213.23 476.262 476.262c0 0.512-0.001 1.024-0.002 1.536v-0.080c-1.243 262.493-214.321 474.804-476.986 474.804-0.258 0-0.517 0-0.775-0.001h0.041z" />
<glyph unicode="&#xe918;" glyph-name="25" d="M724.969 484.467c20.705-12.679 37.304-30.213 48.516-51.072l0.35-0.712c10.94-21.23 17.396-46.316 17.504-72.9v-0.035c0.027-1.093 0.042-2.38 0.042-3.67 0-27.188-6.762-52.797-18.696-75.237l0.421 0.867c-11.936-22.15-29.329-40.010-50.419-52.175l-0.635-0.338c-20.304-11.932-44.722-18.979-70.786-18.979-0.755 0-1.509 0.006-2.262 0.018l0.113-0.001c-1.979-0.101-4.297-0.158-6.628-0.158-26.962 0-52.135 7.66-73.462 20.922l0.591-0.343c-23.229 15.259-40.676 37.665-49.35 64.051l-0.245 0.861 30.632 17.504c7.657-21.336 20.768-39.148 37.67-52.321l0.256-0.192c16.176-11.412 36.297-18.239 58.013-18.239 0.374 0 0.748 0.002 1.121 0.006h-0.057c0.157-0.001 0.343-0.001 0.529-0.001 28.813 0 54.669 12.657 72.313 32.715l0.092 0.107c17.739 20.455 28.549 47.337 28.549 76.744 0 1.738-0.038 3.468-0.113 5.188l0.008-0.245c0.036 1.116 0.057 2.428 0.057 3.744 0 29.668-10.482 56.887-27.944 78.158l0.172-0.216c-17.582 19.735-43.068 32.103-71.441 32.103-0.525 0-1.049-0.004-1.572-0.013l0.079 0.001c-0.275 0.002-0.6 0.004-0.925 0.004-39.687 0-74.439-21.133-93.616-52.759l-0.274-0.487-21.88 10.211 32.821 248.707h205.675v-32.821h-173.584l-23.339-168.479c20.16 17.38 46.607 27.966 75.525 27.966 2.681 0 5.341-0.091 7.977-0.27l-0.357 0.019c1.392 0.051 3.027 0.080 4.67 0.080 25.137 0 48.686-6.8 68.907-18.662l-0.642 0.348zM264.752 240.866h226.826v-33.55h-283.715v23.339l162.644 188.9c19.799 21.386 37.429 45.289 52.23 71.025l1.012 1.909c8.734 16.314 13.865 35.687 13.865 56.259 0 0.478-0.003 0.955-0.008 1.431l0.001-0.072c0.093 1.545 0.147 3.352 0.147 5.171 0 24.289-9.498 46.359-24.983 62.699l0.039-0.041c-15.537 15.36-36.908 24.849-60.495 24.849-1.040 0-2.076-0.018-3.108-0.055l0.149 0.004c-0.060 0-0.13 0-0.201 0-24.676 0-47.294-8.816-64.874-23.471l0.163 0.132c-19.708-16.611-34.278-38.741-41.355-64.003l-0.217-0.909-24.068 17.504c7.74 32.010 26.249 58.828 51.397 77.044l0.386 0.267c23.494 16.885 52.84 27.003 84.55 27.003 0.789 0 1.576-0.006 2.361-0.019l-0.119 0.001c1.12 0.034 2.437 0.054 3.758 0.054 22.067 0 42.869-5.414 61.151-14.987l-0.727 0.347c18.808-10.259 33.947-25.165 44.201-43.209l0.289-0.552c10.136-17.7 16.114-38.906 16.114-61.508 0-1.454-0.025-2.901-0.074-4.343l0.006 0.21c0.011-0.679 0.018-1.481 0.018-2.284 0-25.931-6.767-50.282-18.63-71.384l0.379 0.733c-18.468-31.48-38.977-58.723-62.207-83.373l0.213 0.228zM510.541-61.083c-281.964 0-510.541 228.577-510.541 510.541s228.577 510.541 510.541 510.541c281.964 0 510.541-228.577 510.541-510.541v0c0-281.964-228.577-510.541-510.541-510.541v0zM510.541 924.262c-262.404-0.831-474.801-213.741-474.801-476.26 0-263.032 213.23-476.262 476.262-476.262s476.262 213.23 476.262 476.262c0 0.512-0.001 1.024-0.002 1.536v-0.080c-1.243 262.493-214.321 474.804-476.986 474.804-0.258 0-0.517 0-0.775-0.001h0.041z" />
<glyph unicode="&#xe919;" glyph-name="26" d="M734.45 476.444c20.058-13.19 36.3-30.597 47.758-51.047l0.379-0.736c10.601-20.059 16.824-43.845 16.824-69.083 0-1.354-0.018-2.704-0.054-4.050l0.004 0.199c0.011-0.679 0.018-1.481 0.018-2.284 0-25.931-6.767-50.282-18.63-71.384l0.379 0.733c-12.16-21.768-29.501-39.343-50.408-51.439l-0.646-0.345c-20.304-11.932-44.722-18.979-70.786-18.979-0.755 0-1.509 0.006-2.262 0.018l0.113-0.001c-0.679-0.011-1.481-0.018-2.284-0.018-25.931 0-50.282 6.767-71.384 18.63l0.733-0.379c-21.553 12.441-38.894 30.016-50.705 51.106l-0.349 0.678c-11.035 20.569-17.517 45.001-17.517 70.948 0 0.699 0.005 1.396 0.014 2.093l-0.001-0.106c-0.031 1.12-0.049 2.439-0.049 3.762 0 21.341 4.583 41.612 12.818 59.881l-0.371-0.92c12.857 28.263 26.242 52.188 41.332 74.883l-1.218-1.948 113.778 189.63h42.302l-109.402-175.043-16.775-24.068c17.092 11.446 38.122 18.267 60.744 18.267 0.953 0 1.902-0.012 2.849-0.036l-0.14 0.003c0.696 0.012 1.517 0.019 2.339 0.019 26.001 0 50.355-7.049 71.256-19.341l-0.66 0.359zM729.345 271.499c18.144 19.575 29.275 45.875 29.275 74.774 0 1.662-0.037 3.315-0.11 4.958l0.008-0.234c0.018 0.761 0.028 1.658 0.028 2.556 0 29.58-11.075 56.573-29.304 77.059l0.102-0.117c-17.507 18.889-42.45 30.673-70.146 30.673-0.981 0-1.958-0.015-2.931-0.044l0.143 0.003c-0.753 0.020-1.639 0.032-2.528 0.032-19.87 0-38.404-5.716-54.049-15.594l0.418 0.246c-15.733-9.976-28.19-23.837-36.21-40.261l-0.257-0.582c-8.28-15.899-13.137-34.72-13.137-54.675 0-0.522 0.003-1.043 0.010-1.564l-0.001 0.079c-0.001-0.124-0.001-0.27-0.001-0.417 0-30.208 12.579-57.478 32.784-76.858l0.037-0.035c17.743-18.89 42.88-30.657 70.765-30.657 0.763 0 1.523 0.009 2.282 0.026l-0.113-0.002c0.646-0.015 1.406-0.024 2.169-0.024 27.886 0 53.023 11.767 70.718 30.605l0.048 0.051zM264.752 240.866h226.826v-33.55h-283.715v23.339l162.644 188.9c19.799 21.386 37.429 45.289 52.23 71.025l1.012 1.909c8.734 16.314 13.865 35.687 13.865 56.259 0 0.478-0.003 0.955-0.008 1.431l0.001-0.072c0.093 1.545 0.147 3.352 0.147 5.171 0 24.289-9.498 46.359-24.983 62.699l0.039-0.041c-15.537 15.36-36.908 24.849-60.495 24.849-1.040 0-2.076-0.018-3.108-0.055l0.149 0.004c-0.060 0-0.13 0-0.201 0-24.676 0-47.294-8.816-64.874-23.471l0.163 0.132c-19.708-16.611-34.278-38.741-41.355-64.003l-0.217-0.909-24.068 17.504c7.74 32.010 26.249 58.828 51.397 77.044l0.386 0.267c23.494 16.885 52.84 27.003 84.55 27.003 0.789 0 1.576-0.006 2.361-0.019l-0.119 0.001c1.12 0.034 2.437 0.054 3.758 0.054 22.067 0 42.869-5.414 61.151-14.987l-0.727 0.347c18.808-10.259 33.947-25.165 44.201-43.209l0.289-0.552c10.136-17.7 16.114-38.906 16.114-61.508 0-1.454-0.025-2.901-0.074-4.343l0.006 0.21c0.011-0.679 0.018-1.481 0.018-2.284 0-25.931-6.767-50.282-18.63-71.384l0.379 0.733c-18.468-31.48-38.977-58.723-62.207-83.373l0.213 0.228zM510.541-61.083c-281.964 0-510.541 228.577-510.541 510.541s228.577 510.541 510.541 510.541c281.964 0 510.541-228.577 510.541-510.541v0c0-281.964-228.577-510.541-510.541-510.541v0zM510.541 924.262c-262.404-0.831-474.801-213.741-474.801-476.26 0-263.032 213.23-476.262 476.262-476.262s476.262 213.23 476.262 476.262c0 0.512-0.001 1.024-0.002 1.536v-0.080c-1.243 262.493-214.321 474.804-476.986 474.804-0.258 0-0.517 0-0.775-0.001h0.041z" />
<glyph unicode="&#xe91a;" glyph-name="27" d="M760.707 639.818h-234.12v32.821h277.88v-21.151l-175.043-441.254h-41.573l172.855 429.584zM264.752 240.866h226.826v-33.55h-283.715v23.339l162.644 188.9c19.799 21.386 37.429 45.289 52.23 71.025l1.012 1.909c8.734 16.314 13.865 35.687 13.865 56.259 0 0.478-0.003 0.955-0.008 1.431l0.001-0.072c0.093 1.545 0.147 3.352 0.147 5.171 0 24.289-9.498 46.359-24.983 62.699l0.039-0.041c-15.537 15.36-36.908 24.849-60.495 24.849-1.040 0-2.076-0.018-3.108-0.055l0.149 0.004c-0.060 0-0.13 0-0.201 0-24.676 0-47.294-8.816-64.874-23.471l0.163 0.132c-19.708-16.611-34.278-38.741-41.355-64.003l-0.217-0.909-24.068 17.504c7.74 32.010 26.249 58.828 51.397 77.044l0.386 0.267c23.494 16.885 52.84 27.003 84.55 27.003 0.789 0 1.576-0.006 2.361-0.019l-0.119 0.001c1.12 0.034 2.437 0.054 3.758 0.054 22.067 0 42.869-5.414 61.151-14.987l-0.727 0.347c18.808-10.259 33.947-25.165 44.201-43.209l0.289-0.552c10.136-17.7 16.114-38.906 16.114-61.508 0-1.454-0.025-2.901-0.074-4.343l0.006 0.21c0.011-0.679 0.018-1.481 0.018-2.284 0-25.931-6.767-50.282-18.63-71.384l0.379 0.733c-18.468-31.48-38.977-58.723-62.207-83.373l0.213 0.228zM510.541-61.083c-281.964 0-510.541 228.577-510.541 510.541s228.577 510.541 510.541 510.541c281.964 0 510.541-228.577 510.541-510.541v0c0-281.964-228.577-510.541-510.541-510.541v0zM510.541 924.262c-262.404-0.831-474.801-213.741-474.801-476.26 0-263.032 213.23-476.262 476.262-476.262s476.262 213.23 476.262 476.262c0 0.512-0.001 1.024-0.002 1.536v-0.080c-1.243 262.493-214.321 474.804-476.986 474.804-0.258 0-0.517 0-0.775-0.001h0.041z" />
<glyph unicode="&#xe91b;" glyph-name="28" d="M796.444 417.368c14.561-20.271 23.3-45.578 23.339-72.925v-0.010c0.001-0.171 0.001-0.374 0.001-0.576 0-25.277-6.768-48.974-18.591-69.377l0.356 0.665c-12.436-20.453-29.74-36.823-50.354-47.796l-0.701-0.34c-21.915-11.041-47.764-17.506-75.123-17.506s-53.208 6.465-76.102 17.951l0.979-0.445c-21.314 11.314-38.618 27.683-50.73 47.564l-0.324 0.573c-11.467 19.737-18.235 43.434-18.235 68.712 0 0.203 0 0.405 0.001 0.607v-0.031c0.142 27.347 8.862 52.63 23.604 73.326l-0.265-0.391c15.591 21.272 36.965 37.47 61.808 46.391l0.916 0.287c-42.642 13.739-72.952 53.067-72.952 99.475 0 0.67 0.006 1.338 0.019 2.004l-0.001-0.1c-0.014 0.657-0.022 1.431-0.022 2.208 0 21.043 5.981 40.688 16.335 57.33l-0.267-0.461c11.575 19.166 28.264 34.213 48.187 43.477l0.679 0.283c18.356 10.121 40.235 16.076 63.506 16.076 1.007 0 2.012-0.011 3.014-0.033l-0.149 0.003c1.012 0.028 2.202 0.044 3.397 0.044 23.092 0 44.792-5.962 63.644-16.431l-0.671 0.342c18.991-9.717 34.367-24.156 44.941-41.802l0.278-0.5c9.638-16.482 15.328-36.29 15.328-57.426 0-0.58-0.004-1.16-0.013-1.738l0.001 0.088c0.014-0.64 0.022-1.395 0.022-2.151 0-22.322-6.822-43.052-18.495-60.216l0.24 0.373c-12.26-17.843-29.45-31.505-49.603-39.144l-0.722-0.24c25.885-8.939 47.329-25.202 62.464-46.298l0.26-0.38zM751.225 272.957c18.047 17.632 29.238 42.213 29.238 69.408 0 1.24-0.023 2.475-0.069 3.704l0.005-0.177c0.050 1.172 0.079 2.547 0.079 3.929 0 26.937-10.898 51.329-28.526 69.008l0.002-0.002c-18.649 17.684-43.907 28.559-71.704 28.559-1.715 0-3.421-0.041-5.116-0.123l0.239 0.009c-0.57 0.011-1.241 0.018-1.914 0.018-27.564 0-52.595-10.844-71.059-28.499l0.039 0.037c-17.625-17.676-28.523-42.068-28.523-69.005 0-1.382 0.029-2.757 0.085-4.125l-0.006 0.196c-0.036-0.999-0.057-2.173-0.057-3.352 0-27.116 10.88-51.69 28.513-69.595l-0.012 0.013c18.426-17.618 43.457-28.462 71.020-28.462 0.673 0 1.345 0.006 2.015 0.019l-0.1-0.002c0.57-0.011 1.241-0.018 1.914-0.018 27.564 0 52.595 10.844 71.059 28.499l-0.039-0.037zM610.462 625.231c-16.6-15.242-26.971-37.041-26.986-61.262v-0.003c-0.051-1.070-0.079-2.324-0.079-3.585 0-22.209 8.943-42.33 23.425-56.957l-0.007 0.007c16.091-14.551 37.529-23.455 61.045-23.455 1.616 0 3.223 0.042 4.819 0.125l-0.223-0.009c1.372-0.074 2.979-0.116 4.596-0.116 23.517 0 44.954 8.904 61.124 23.525l-0.079-0.070c14.892 14.8 24.109 35.296 24.109 57.945 0 0.911-0.015 1.819-0.045 2.723l0.003-0.132c0.033 0.866 0.052 1.883 0.052 2.904 0 22.916-9.521 43.608-24.824 58.336l-0.026 0.025c-15.78 14.966-37.154 24.17-60.678 24.17-1.489 0-2.969-0.037-4.44-0.11l0.207 0.008c-1.264 0.065-2.744 0.102-4.233 0.102-23.524 0-44.898-9.204-60.718-24.207l0.039 0.037zM264.752 240.866h226.826v-33.55h-283.715v23.339l162.644 188.9c19.799 21.386 37.429 45.289 52.23 71.025l1.012 1.909c8.734 16.314 13.865 35.687 13.865 56.259 0 0.478-0.003 0.955-0.008 1.431l0.001-0.072c0.093 1.545 0.147 3.352 0.147 5.171 0 24.289-9.498 46.359-24.983 62.699l0.039-0.041c-15.537 15.36-36.908 24.849-60.495 24.849-1.040 0-2.076-0.018-3.108-0.055l0.149 0.004c-0.060 0-0.13 0-0.201 0-24.676 0-47.294-8.816-64.874-23.471l0.163 0.132c-19.708-16.611-34.278-38.741-41.355-64.003l-0.217-0.909-24.068 17.504c7.74 32.010 26.249 58.828 51.397 77.044l0.386 0.267c23.494 16.885 52.84 27.003 84.55 27.003 0.789 0 1.576-0.006 2.361-0.019l-0.119 0.001c1.12 0.034 2.437 0.054 3.758 0.054 22.067 0 42.869-5.414 61.151-14.987l-0.727 0.347c18.808-10.259 33.947-25.165 44.201-43.209l0.289-0.552c10.136-17.7 16.114-38.906 16.114-61.508 0-1.454-0.025-2.901-0.074-4.343l0.006 0.21c0.011-0.679 0.018-1.481 0.018-2.284 0-25.931-6.767-50.282-18.63-71.384l0.379 0.733c-18.468-31.48-38.977-58.723-62.207-83.373l0.213 0.228zM510.541-61.083c-281.964 0-510.541 228.577-510.541 510.541s228.577 510.541 510.541 510.541c281.964 0 510.541-228.577 510.541-510.541v0c0-281.964-228.577-510.541-510.541-510.541v0zM510.541 924.262c-262.404-0.831-474.801-213.741-474.801-476.26 0-263.032 213.23-476.262 476.262-476.262s476.262 213.23 476.262 476.262c0 0.512-0.001 1.024-0.002 1.536v-0.080c-1.243 262.493-214.321 474.804-476.986 474.804-0.258 0-0.517 0-0.775-0.001h0.041z" />
<glyph unicode="&#xe91c;" glyph-name="29" d="M747.578 658.781c21.545-12.161 38.893-29.509 50.712-50.397l0.342-0.657c11.032-20.796 17.51-45.467 17.51-71.65 0-0.452-0.002-0.903-0.006-1.354v0.069c0.023-0.983 0.036-2.141 0.036-3.302 0-21.746-4.576-42.424-12.817-61.123l0.382 0.972c-12.592-28.142-25.988-52.079-41.22-74.676l1.106 1.741-117.425-189.63h-41.573l108.672 174.313 16.046 23.339c-17.677-10.994-39.13-17.512-62.105-17.512-0.474 0-0.947 0.003-1.42 0.008l0.072-0.001c-0.696-0.012-1.517-0.019-2.339-0.019-26.001 0-50.355 7.049-71.256 19.341l0.66-0.359c-20.461 12.709-36.826 30.242-47.79 51.062l-0.346 0.722c-10.617 19.727-16.856 43.17-16.856 68.069 0 1.711 0.029 3.415 0.088 5.111l-0.007-0.246c-0.011 0.679-0.018 1.481-0.018 2.284 0 25.931 6.767 50.282 18.63 71.384l-0.379-0.733c11.73 22.294 29.177 40.209 50.419 52.184l0.635 0.329c20.594 12.376 45.448 19.695 72.011 19.695 0.325 0 0.649-0.001 0.973-0.003h-0.050c0.299 0.002 0.653 0.003 1.007 0.003 26.446 0 51.248-7.038 72.635-19.342l-0.708 0.376zM722.781 439.977c15.862 9.535 28.371 23.217 36.227 39.558l0.241 0.556c8.28 15.899 13.137 34.72 13.137 54.675 0 0.522-0.003 1.043-0.010 1.564l0.001-0.079c0.066 1.404 0.104 3.050 0.104 4.705 0 28.442-11.151 54.28-29.32 73.38l0.042-0.045c-18.032 18.469-43.177 29.922-70.998 29.922-0.681 0-1.361-0.007-2.038-0.021l0.101 0.002c-0.636 0.015-1.385 0.024-2.136 0.024-28.035 0-53.25-12.075-70.728-31.307l-0.070-0.078c-18.148-19.474-29.288-45.687-29.288-74.502 0-1.757 0.041-3.505 0.123-5.242l-0.009 0.246c-0.035-1.059-0.056-2.304-0.056-3.554 0-28.552 10.517-54.648 27.889-74.624l-0.118 0.139c17.507-18.889 42.45-30.673 70.146-30.673 0.981 0 1.958 0.015 2.931 0.044l-0.143-0.003c2.295-0.185 4.968-0.29 7.667-0.29 19.555 0 37.816 5.536 53.303 15.127l-0.434-0.25zM264.752 240.866h226.826v-33.55h-283.715v23.339l162.644 188.9c19.799 21.386 37.429 45.289 52.23 71.025l1.012 1.909c8.734 16.314 13.865 35.687 13.865 56.259 0 0.478-0.003 0.955-0.008 1.431l0.001-0.072c0.093 1.545 0.147 3.352 0.147 5.171 0 24.289-9.498 46.359-24.983 62.699l0.039-0.041c-15.537 15.36-36.908 24.849-60.495 24.849-1.040 0-2.076-0.018-3.108-0.055l0.149 0.004c-0.060 0-0.13 0-0.201 0-24.676 0-47.294-8.816-64.874-23.471l0.163 0.132c-19.708-16.611-34.278-38.741-41.355-64.003l-0.217-0.909-24.068 17.504c7.74 32.010 26.249 58.828 51.397 77.044l0.386 0.267c23.494 16.885 52.84 27.003 84.55 27.003 0.789 0 1.576-0.006 2.361-0.019l-0.119 0.001c1.12 0.034 2.437 0.054 3.758 0.054 22.067 0 42.869-5.414 61.151-14.987l-0.727 0.347c18.808-10.259 33.947-25.165 44.201-43.209l0.289-0.552c10.136-17.7 16.114-38.906 16.114-61.508 0-1.454-0.025-2.901-0.074-4.343l0.006 0.21c0.011-0.679 0.018-1.481 0.018-2.284 0-25.931-6.767-50.282-18.63-71.384l0.379 0.733c-18.468-31.48-38.977-58.723-62.207-83.373l0.213 0.228zM510.541-61.083c-281.964 0-510.541 228.577-510.541 510.541s228.577 510.541 510.541 510.541c281.964 0 510.541-228.577 510.541-510.541v0c0-281.964-228.577-510.541-510.541-510.541v0zM510.541 924.262c-262.404-0.831-474.801-213.741-474.801-476.26 0-263.032 213.23-476.262 476.262-476.262s476.262 213.23 476.262 476.262c0 0.512-0.001 1.024-0.002 1.536v-0.080c-1.243 262.493-214.321 474.804-476.986 474.804-0.258 0-0.517 0-0.775-0.001h0.041z" />
<glyph unicode="&#xe91d;" glyph-name="30" d="M474.074 414.45c14.15-19.641 22.63-44.187 22.63-70.715 0-0.78-0.007-1.559-0.022-2.336l0.002 0.116c0.061-1.538 0.096-3.344 0.096-5.158 0-24.887-6.526-48.25-17.961-68.471l0.361 0.694c-11.969-20.379-29.107-36.581-49.641-47.090l-0.684-0.318c-19.821-10.166-43.245-16.124-68.060-16.124-1.714 0-3.422 0.028-5.122 0.085l0.248-0.007c-0.418-0.004-0.912-0.006-1.406-0.006-32.264 0-62.305 9.523-87.463 25.911l0.619-0.378c-26.293 16.471-45.625 41.975-53.774 72.076l-0.198 0.858 29.903 17.504c7.17-25.342 22.709-46.328 43.381-60.294l0.38-0.242c19.006-13.299 42.604-21.25 68.059-21.25 1.715 0 3.421 0.036 5.118 0.108l-0.243-0.008c1.896-0.137 4.109-0.216 6.34-0.216 26.070 0 49.645 10.686 66.582 27.917l0.013 0.013c17.23 17.17 27.891 40.922 27.891 67.164 0 2.030-0.064 4.045-0.189 6.043l0.014-0.273c0.142 1.866 0.222 4.041 0.222 6.234 0 26.666-11.925 50.546-30.733 66.599l-0.121 0.101c-21.578 16.177-48.802 25.905-78.298 25.905-3.503 0-6.973-0.137-10.406-0.406l0.454 0.029h-30.632v31.362h28.444c1.723-0.105 3.737-0.165 5.765-0.165 25.856 0 49.436 9.75 67.262 25.774l-0.092-0.082c15.387 15.758 24.88 37.332 24.88 61.123 0 1.332-0.030 2.658-0.089 3.976l0.007-0.187c0.038 0.939 0.059 2.041 0.059 3.148 0 22.575-8.918 43.066-23.424 58.144l0.026-0.027c-15.028 14.937-35.74 24.17-58.61 24.17-1.447 0-2.886-0.037-4.314-0.11l0.2 0.008c-22.601-0.226-43.374-7.867-60.050-20.6l0.244 0.179c-18.373-15.354-32.105-35.691-39.157-58.933l-0.228-0.873-33.55 16.775c8.669 30.136 26.689 55.25 50.665 72.665l0.389 0.269c22.606 15.099 50.406 24.096 80.306 24.096 0.998 0 1.994-0.010 2.988-0.030l-0.149 0.002c1.862 0.1 4.042 0.157 6.236 0.157 32.545 0 62.162-12.539 84.283-33.050l-0.080 0.073c20.354-20.766 32.916-49.236 32.916-80.64 0-1.651-0.035-3.293-0.103-4.927l0.008 0.234c0.024-0.883 0.037-1.922 0.037-2.964 0-22.927-6.53-44.328-17.831-62.446l0.29 0.499c-12.395-18.838-30.862-32.807-52.572-39.215l-0.671-0.17c27.013-6.654 49.835-21.654 66.185-42.063l0.185-0.239zM782.587 264.205c-20.604-36.399-59.064-60.564-103.168-60.564-0.91 0-1.817 0.010-2.721 0.031l0.135-0.002c-0.936-0.027-2.037-0.043-3.142-0.043-43.743 0-81.83 24.22-101.581 59.981l-0.302 0.597c-23.836 45.263-37.826 98.91-37.826 155.825 0 7.274 0.229 14.495 0.679 21.656l-0.049-0.98c-0.397 6.199-0.623 13.443-0.623 20.739 0 57.387 13.983 111.507 38.726 159.141l-0.907-1.92c19.678 36.34 57.519 60.605 101.027 60.605 1.406 0 2.806-0.025 4.2-0.076l-0.202 0.006c0.896 0.025 1.952 0.039 3.010 0.039 43.986 0 82.324-24.186 102.44-59.984l0.305-0.59c23.868-45.457 37.874-99.317 37.874-156.448 0-7.569-0.246-15.080-0.73-22.526l0.053 1.014c0.401-6.181 0.63-13.402 0.63-20.676 0-56.915-13.99-110.562-38.718-157.691l0.892 1.866zM676.832 238.678c68.558 0 102.838 67.1 102.838 202.028s-34.279 204.946-102.838 204.946-102.838-68.558-102.838-204.946 34.279-202.028 102.838-202.028zM510.541-61.083c-281.964 0-510.541 228.577-510.541 510.541s228.577 510.541 510.541 510.541c281.964 0 510.541-228.577 510.541-510.541v0c0-281.964-228.577-510.541-510.541-510.541v0zM510.541 924.262c-262.404-0.831-474.801-213.741-474.801-476.26 0-263.032 213.23-476.262 476.262-476.262s476.262 213.23 476.262 476.262c0 0.512-0.001 1.024-0.002 1.536v-0.080c-1.243 262.493-214.321 474.804-476.986 474.804-0.258 0-0.517 0-0.775-0.001h0.041z" />
<glyph unicode="&#xe91e;" glyph-name="31" d="M573.994 566.154v38.655l127.635 72.934h27.715v-462.405h-36.467v418.644zM524.399 414.45c-16.39 20.819-39.274 35.873-65.567 42.14l-0.804 0.162c22.177 6.546 40.428 20.535 52.291 39.016l0.221 0.369c11.46 17.389 18.281 38.716 18.281 61.637 0 1.152-0.017 2.299-0.051 3.442l0.004-0.168c0.087 1.657 0.136 3.598 0.136 5.551 0 31.141-12.591 59.341-32.96 79.786l0.003-0.003c-22.041 20.438-51.658 32.977-84.203 32.977-2.193 0-4.373-0.057-6.539-0.169l0.303 0.013c-0.845 0.018-1.841 0.028-2.839 0.028-29.901 0-57.7-8.997-80.839-24.43l0.533 0.334c-23.917-17.928-41.633-42.97-50.082-71.96l-0.243-0.974 29.903-16.775c7.279 24.115 21.012 44.452 39.19 59.648l0.195 0.159c16.938 12.756 38.331 20.429 61.517 20.429 0.424 0 0.848-0.003 1.271-0.008l-0.064 0.001c1.106 0.053 2.402 0.083 3.705 0.083 22.765 0 43.374-9.23 58.289-24.151v0c14.49-14.732 23.437-34.955 23.437-57.268 0-1.406-0.036-2.803-0.106-4.191l0.008 0.195c0.068-1.268 0.107-2.752 0.107-4.246 0-23.784-9.814-45.276-25.614-60.647l-0.019-0.019c-17.44-15.964-40.77-25.745-66.385-25.745-2.304 0-4.59 0.079-6.855 0.235l0.306-0.017h-26.256v-34.279h26.986c2.849 0.218 6.17 0.342 9.52 0.342 29.633 0 56.997-9.71 79.086-26.121l-0.356 0.252c18.93-16.154 30.855-40.034 30.855-66.7 0-2.194-0.081-4.369-0.239-6.522l0.017 0.288c0.070-1.384 0.11-3.006 0.11-4.637 0-26.588-10.617-50.696-27.843-68.316l0.018 0.018c-17.17-17.23-40.922-27.891-67.164-27.891-2.030 0-4.045 0.064-6.043 0.189l0.273-0.014c-1.583-0.076-3.439-0.119-5.304-0.119-25.317 0-48.774 7.962-68.004 21.52l0.373-0.25c-21.733 14.77-37.78 36.5-45.028 61.937l-0.192 0.787-27.715-16.775c8.667-30.995 28.217-56.476 54.175-72.63l0.526-0.305c24.546-16.022 54.597-25.552 86.874-25.552 0.997 0 1.992 0.009 2.985 0.027l-0.149-0.002c1.308-0.040 2.846-0.063 4.39-0.063 24.978 0 48.566 5.951 69.423 16.512l-0.879-0.404c20.975 10.86 37.877 27.060 49.288 46.83l0.308 0.578c11.532 19.27 18.351 42.511 18.351 67.344 0 1.966-0.043 3.922-0.127 5.868l0.010-0.277c0.004 0.365 0.006 0.796 0.006 1.227 0 26.957-8.757 51.869-23.583 72.046l0.237-0.339zM510.541-61.083c281.964 0 510.541 228.577 510.541 510.541s-228.577 510.541-510.541 510.541c-281.964 0-510.541-228.577-510.541-510.541v0c0-281.964 228.577-510.541 510.541-510.541v0zM510.541 924.262c0.433 0.001 0.944 0.002 1.456 0.002 263.032 0 476.262-213.23 476.262-476.262s-213.23-476.262-476.262-476.262c-263.032 0-476.262 213.23-476.262 476.262 0 0.512 0.001 1.024 0.002 1.536v-0.079c1.236 261.728 213.075 473.567 474.684 474.803h0.119z" />
<glyph unicode="&#xe91f;" glyph-name="32" d="M510.905 960c282.165 0 510.905-228.74 510.905-510.905s-228.74-510.905-510.905-510.905c-282.165 0-510.905 228.74-510.905 510.905v0c0 282.165 228.74 510.905 510.905 510.905v0zM510.905 633.751v-417.483h36.493v463.464h-28.465l-127.726-72.986v-37.953z" />
<glyph unicode="&#xe920;" glyph-name="33" d="M510.905 960c282.165 0 510.905-228.74 510.905-510.905s-228.74-510.905-510.905-510.905c-282.165 0-510.905 228.74-510.905 510.905v0c0 282.165 228.74 510.905 510.905 510.905v0zM559.076 402.383c23.605 24.462 44.597 51.724 62.353 81.159l1.145 2.046c11.493 20.383 18.265 44.751 18.265 70.701 0 0.804-0.006 1.606-0.019 2.406l0.002-0.121c0.036 1.125 0.056 2.449 0.056 3.777 0 22.738-5.976 44.080-16.442 62.541l0.329-0.63c-9.61 18.232-23.504 33.063-40.394 43.516l-0.478 0.276c-18.217 9.213-39.712 14.608-62.467 14.608-0.619 0-1.237-0.004-1.854-0.012l0.094 0.001c-0.668 0.011-1.455 0.017-2.244 0.017-31.732 0-61.099-10.125-85.047-27.321l0.437 0.298c-25.563-18.65-44.242-45.393-52.339-76.411l-0.212-0.954 29.924-17.517c7.477 26.123 22.019 48.225 41.42 64.806l0.182 0.152c16.002 13.411 36.443 22.010 58.84 23.342l0.279 0.013c0.938 0.038 2.039 0.059 3.145 0.059 23.681 0 45.071-9.807 60.331-25.581l0.022-0.023c15.435-16.306 24.926-38.377 24.926-62.664 0-1.577-0.040-3.145-0.119-4.702l0.009 0.219c0.001-0.209 0.002-0.456 0.002-0.703 0-21.469-5.687-41.61-15.636-58.998l0.307 0.582c-15.824-27.666-33.467-51.586-53.517-73.245l0.237 0.259-160.57-187.575v-23.356h286.837v32.844h-229.907z" />
<glyph unicode="&#xe921;" glyph-name="34" d="M510.905 960c282.165 0 510.905-228.74 510.905-510.905s-228.74-510.905-510.905-510.905c-282.165 0-510.905 228.74-510.905 510.905v0c0 282.165 228.74 510.905 510.905 510.905v0zM630.603 420.63c-16.616 20.58-39.425 35.565-65.571 42.152l-0.846 0.181c22.306 6.397 40.768 20.12 53.066 38.346l0.214 0.337c11.459 18.167 18.259 40.27 18.259 63.961 0 0.607-0.004 1.213-0.013 1.818l0.001-0.092c0.037 1.101 0.059 2.395 0.059 3.694 0 31.868-12.845 60.736-33.641 81.708l0.008-0.008c-22.062 20.475-51.715 33.038-84.303 33.038-2.438 0-4.86-0.070-7.263-0.209l0.332 0.015c-0.918 0.021-1.999 0.034-3.083 0.034-29.943 0-57.716-9.295-80.59-25.156l0.468 0.307c-24.221-17.676-42.045-42.842-50.14-72.053l-0.221-0.934 29.924-16.787c7.288 23.899 21.034 44.017 39.202 58.951l0.21 0.168c16.621 13.223 37.917 21.216 61.081 21.216 1.107 0 2.209-0.018 3.307-0.054l-0.16 0.004c1.346 0.081 2.921 0.127 4.506 0.127 44.34 0 80.285-35.945 80.285-80.285 0-1.585-0.046-3.159-0.137-4.722l0.010 0.216c0.068-1.269 0.107-2.754 0.107-4.249 0-23.801-9.821-45.309-25.633-60.69l-0.019-0.019c-17.254-15.992-40.435-25.804-65.908-25.804-2.491 0-4.96 0.094-7.404 0.278l0.325-0.020h-28.465v-34.304h27.005c2.461 0.157 5.336 0.247 8.233 0.247 30.065 0 57.871-9.669 80.479-26.067l-0.398 0.275c18.523-16.395 30.141-40.23 30.141-66.778 0-2.185-0.079-4.351-0.233-6.496l0.017 0.288c0.065-1.352 0.103-2.937 0.103-4.53 0-26.511-10.317-50.612-27.156-68.507l0.048 0.051c-17.507-17.225-41.543-27.86-68.063-27.86-1.732 0-3.453 0.045-5.162 0.135l0.239-0.010c-1.263-0.047-2.747-0.074-4.236-0.074-25.682 0-49.509 7.943-69.158 21.506l0.408-0.266c-21.088 14.672-36.783 35.806-44.31 60.502l-0.211 0.807-29.924-17.517c8.673-31.017 28.237-56.516 54.214-72.681l0.526-0.305c24.564-16.033 54.636-25.57 86.936-25.57 0.998 0 1.993 0.009 2.987 0.027l-0.149-0.002c1.309-0.040 2.848-0.063 4.393-0.063 24.996 0 48.6 5.955 69.473 16.523l-0.879-0.404c20.99 10.868 37.904 27.080 49.323 46.863l0.308 0.578c11.54 19.284 18.364 42.541 18.364 67.392 0 1.968-0.043 3.925-0.127 5.872l0.010-0.277c0.001 0.226 0.002 0.493 0.002 0.76 0 27.13-8.759 52.214-23.603 72.579l0.245-0.352z" />
<glyph unicode="&#xe922;" glyph-name="35" d="M510.905 960c282.165 0 510.905-228.74 510.905-510.905s-228.74-510.905-510.905-510.905c-282.165 0-510.905 228.74-510.905 510.905v0c0 282.165 228.74 510.905 510.905 510.905v0zM561.996 496.536v-137.944h-162.76l178.087 321.14h-41.602l-181.006-328.439v-25.545h207.282v-109.48h37.223v109.48h72.986v32.844h-72.986v137.944z" />
<glyph unicode="&#xe923;" glyph-name="36" d="M510.905 960c282.165 0 510.905-228.74 510.905-510.905s-228.74-510.905-510.905-510.905c-282.165 0-510.905 228.74-510.905 510.905v0c0 282.165 228.74 510.905 510.905 510.905v0zM571.484 490.697c-19.47 11.528-42.912 18.341-67.945 18.341-1.773 0-3.538-0.034-5.294-0.102l0.253 0.008c-1.345 0.055-2.923 0.087-4.508 0.087-29.331 0-56.137-10.814-76.648-28.672l0.141 0.12 23.356 168.599h177.357v33.574h-205.822l-32.844-248.884 22.626-11.678c19.807 32.162 54.827 53.28 94.779 53.28 0.037 0 0.073 0 0.11 0h-0.006c0.444 0.007 0.969 0.012 1.494 0.012 28.394 0 53.897-12.377 71.409-32.030l0.083-0.095c19.036-21.6 30.655-50.133 30.655-81.38 0-0.128 0-0.257-0.001-0.385v0.020c0.056-1.377 0.089-2.993 0.089-4.616 0-29.767-10.8-57.011-28.694-78.028l0.141 0.17c-17.84-19.756-43.546-32.118-72.138-32.118-0.298 0-0.596 0.001-0.894 0.004h0.046c-0.951-0.032-2.069-0.050-3.191-0.050-21.758 0-41.917 6.85-58.437 18.511l0.319-0.214c-17.493 13.081-30.709 31.011-37.731 51.794l-0.222 0.756-35.033-14.597c9.196-27.137 26.584-49.482 49.181-64.673l0.45-0.285c21.44-13.749 47.602-21.917 75.672-21.917 0.852 0 1.703 0.008 2.552 0.023l-0.128-0.002c0.64-0.010 1.394-0.016 2.15-0.016 26.083 0 50.518 7.052 71.504 19.354l-0.667-0.362c21.741 12.512 39.146 30.385 50.747 51.854l0.344 0.696c11.522 21.588 18.289 47.215 18.289 74.423 0 1.291-0.015 2.579-0.046 3.863l0.004-0.191c0.001 0.174 0.001 0.379 0.001 0.584 0 26.438-6.478 51.364-17.934 73.276l0.416-0.873c-11.143 22.097-27.855 39.981-48.326 52.231l-0.575 0.319z" />
<glyph unicode="&#xe924;" glyph-name="37" d="M510.905 960c282.165 0 510.905-228.74 510.905-510.905s-228.74-510.905-510.905-510.905c-282.165 0-510.905 228.74-510.905 510.905v0c0 282.165 228.74 510.905 510.905 510.905v0zM590.46 482.669c-19.425 11.972-42.965 19.065-68.161 19.065-1.697 0-3.387-0.032-5.068-0.096l0.242 0.007c-0.66 0.014-1.438 0.022-2.217 0.022-22.559 0-43.524-6.823-60.945-18.518l0.394 0.249 16.057 24.086 113.129 175.167h-45.981l-117.508-187.575c-13.091-20.257-26.463-44.171-38.378-68.92l-1.765-4.067c-9.006-19.026-14.577-41.252-15.321-64.697l-0.007-0.261c0.016-26.718 6.77-51.855 18.653-73.808l-0.407 0.822c12.561-23.234 31.3-41.739 54.031-53.671l0.709-0.339c20.383-11.493 44.751-18.265 70.701-18.265 0.804 0 1.606 0.006 2.406 0.019l-0.121-0.002c0.68-0.011 1.482-0.018 2.285-0.018 25.95 0 50.318 6.771 71.435 18.643l-0.733-0.379c21.568 12.45 38.922 30.037 50.742 51.142l0.349 0.678c11.489 20.742 18.251 45.481 18.251 71.799 0 0.417-0.002 0.834-0.005 1.251v-0.064c0.006 0.494 0.009 1.078 0.009 1.662 0 25.994-6.205 50.539-17.215 72.235l0.419-0.911c-11.571 21.586-28.181 39.132-48.319 51.489l-0.582 0.332zM587.541 275.387c-17.988-18.907-43.338-30.667-71.434-30.667-0.546 0-1.091 0.004-1.634 0.013l0.082-0.001c-0.308-0.003-0.671-0.005-1.035-0.005-28.122 0-53.571 11.442-71.947 29.925l-0.005 0.005c-17.706 19.381-28.552 45.29-28.552 73.732 0 1.535 0.032 3.062 0.094 4.581l-0.007-0.218c0 0.116-0.001 0.252-0.001 0.389 0 20.015 4.577 38.961 12.743 55.847l-0.334-0.767c6.955 16.537 17.682 30.311 31.153 40.701l0.231 0.172c15.129 10.612 33.703 17.302 53.781 18.238l0.229 0.008c0.646 0.015 1.407 0.024 2.171 0.024 27.905 0 53.061-11.775 70.768-30.627l0.048-0.051c16.874-19.831 27.137-45.74 27.137-74.046 0-1.938-0.048-3.864-0.143-5.778l0.011 0.269c0.059-1.35 0.092-2.933 0.092-4.524 0-28.625-10.841-54.718-28.642-74.397l0.085 0.096z" />
<glyph unicode="&#xe925;" glyph-name="38" d="M510.905 960c282.165 0 510.905-228.74 510.905-510.905s-228.74-510.905-510.905-510.905c-282.165 0-510.905 228.74-510.905 510.905v0c0 282.165 228.74 510.905 510.905 510.905v0zM437.919 216.268h41.602l175.167 437.919v21.896h-281.728v-32.844h234.287z" />
<glyph unicode="&#xe926;" glyph-name="39" d="M510.905 960c282.165 0 510.905-228.74 510.905-510.905s-228.74-510.905-510.905-510.905c-282.165 0-510.905 228.74-510.905 510.905v0c0 282.165 228.74 510.905 510.905 510.905v0zM633.522 420.63c-15.428 21.275-36.899 37.322-61.883 45.723l-0.886 0.258c20.834 8.332 37.983 22.192 50.121 39.776l0.239 0.366c11.441 16.803 18.268 37.547 18.268 59.885 0 0.757-0.008 1.512-0.023 2.266l0.002-0.113c-0.531 42.858-24.66 79.96-59.972 98.963l-0.606 0.298c-19.311 10.075-42.174 15.985-66.418 15.985s-47.107-5.91-67.228-16.369l0.81 0.383c-19.080-9.948-34.638-24.336-45.696-41.848l-0.285-0.484c-9.969-16.96-15.912-37.33-16.057-59.078v-0.041c0.232-47.039 30.294-86.997 72.227-101.945l0.76-0.236c-26.235-8.715-47.985-25.040-63.241-46.333l-0.258-0.378c-14.158-19.889-22.635-44.678-22.635-71.447 0-0.541 0.003-1.082 0.010-1.621l-0.001 0.082c-0.016-0.766-0.026-1.668-0.026-2.573 0-24.385 6.795-47.183 18.594-66.604l-0.321 0.57c12.385-19.164 28.837-34.682 48.216-45.626l0.685-0.356c20.925-11.040 45.732-17.52 72.052-17.52 0.329 0 0.657 0.001 0.986 0.003h-0.051c0.382-0.003 0.834-0.005 1.286-0.005 26.202 0 50.889 6.482 72.547 17.93l-0.846-0.408c21.195 11.809 38.453 28.366 50.751 48.309l0.34 0.592c11.721 19.917 18.645 43.876 18.645 69.451 0 28.5-8.597 54.992-23.34 77.024l0.316-0.502zM585.351 279.036c-18.857-17.205-44.055-27.742-71.714-27.742-0.448 0-0.894 0.003-1.341 0.008l0.068-0.001c-0.461-0.007-1.006-0.011-1.552-0.011-27.571 0-52.679 10.543-71.513 27.817l0.078-0.071c-18.057 17.868-29.238 42.653-29.238 70.049 0 1.033 0.016 2.062 0.047 3.087l-0.004-0.15c-0.028 0.875-0.044 1.904-0.044 2.937 0 27.397 11.181 52.182 29.23 70.041l0.009 0.008c18.143 15.042 41.664 24.169 67.317 24.169 1.481 0 2.954-0.030 4.42-0.091l-0.21 0.007c0.461 0.007 1.006 0.011 1.552 0.011 27.571 0 52.679-10.543 71.513-27.817l-0.078 0.071c18.057-17.868 29.238-42.653 29.238-70.049 0-1.033-0.016-2.062-0.047-3.087l0.004 0.15c0.010-0.523 0.015-1.14 0.015-1.758 0-27.763-11.152-52.922-29.221-71.24l0.011 0.011zM446.677 628.641c15.994 14.953 37.547 24.135 61.244 24.135 1.049 0 2.094-0.018 3.135-0.054l-0.151 0.004c1.265 0.065 2.746 0.102 4.236 0.102 23.541 0 44.93-9.21 60.761-24.224l-0.039 0.037c15.339-14.763 24.868-35.47 24.868-58.403 0-1.022-0.019-2.039-0.056-3.052l0.004 0.146c0.040-0.949 0.063-2.063 0.063-3.182 0-22.483-9.242-42.808-24.134-57.383l-0.014-0.014c-16.103-14.561-37.555-23.472-61.089-23.472-1.618 0-3.225 0.042-4.822 0.125l0.224-0.009c-1.373-0.074-2.981-0.116-4.599-0.116-23.534 0-44.986 8.911-61.168 23.542l0.079-0.070c-14.907 14.588-24.149 34.913-24.149 57.397 0 1.119 0.023 2.233 0.068 3.341l-0.005-0.159c-0.028 0.809-0.044 1.76-0.044 2.715 0 22.857 9.216 43.561 24.135 58.599l-0.005-0.005z" />
<glyph unicode="&#xe927;" glyph-name="40" d="M510.905 960c282.165 0 510.905-228.74 510.905-510.905s-228.74-510.905-510.905-510.905c-282.165 0-510.905 228.74-510.905 510.905v0c0 282.165 228.74 510.905 510.905 510.905v0zM583.892 663.675c-21.037 11.889-46.184 18.918-72.969 18.976h-0.018c-0.275 0.002-0.599 0.003-0.924 0.003-26.582 0-51.453-7.325-72.705-20.067l0.643 0.357c-21.814-12.418-39.402-30.007-51.47-51.153l-0.351-0.667c-12.476-21.394-20.213-46.921-21.159-74.173l-0.008-0.273c-0.012-0.696-0.018-1.517-0.018-2.34 0-25.847 6.491-50.178 17.931-71.452l-0.396 0.805c11.059-21.73 27.5-39.342 47.607-51.504l0.564-0.317c20.129-11.944 44.372-19.003 70.264-19.003 0.957 0 1.912 0.010 2.864 0.029l-0.142-0.002c0.66-0.014 1.438-0.022 2.217-0.022 22.559 0 43.524 6.823 60.945 18.518l-0.394-0.249-16.057-24.086-109.48-174.438h42.332l120.428 188.305c13.895 20.768 27.291 44.711 38.79 69.707l1.353 3.28c8.288 19.175 13.117 41.5 13.138 64.95v0.008c0.011 0.68 0.018 1.482 0.018 2.285 0 25.95-6.771 50.318-18.643 71.435l0.379-0.733c-11.688 21.696-28.874 39.117-49.724 50.764l-0.636 0.327zM567.835 443.986c-15.379-9.645-34.070-15.366-54.098-15.366-0.996 0-1.988 0.014-2.977 0.042l0.146-0.003c-0.831-0.026-1.809-0.041-2.791-0.041-27.715 0-52.676 11.792-70.139 30.633l-0.057 0.062c-17.296 19.474-27.862 45.265-27.862 73.523 0 1.865 0.046 3.719 0.137 5.562l-0.010-0.259c-0.061 1.401-0.096 3.045-0.096 4.697 0 28.682 10.538 54.902 27.953 75.001l-0.121-0.143c18.104 18.909 43.551 30.662 71.742 30.662 0.437 0 0.874-0.003 1.31-0.008l-0.066 0.001c0.397 0.006 0.866 0.009 1.336 0.009 28.028 0 53.382-11.448 71.641-29.924l0.010-0.010c17.713-19.181 28.576-44.917 28.576-73.191 0-1.725-0.040-3.44-0.12-5.145l0.009 0.241c0.025-0.909 0.039-1.978 0.039-3.051 0-19.363-4.597-37.651-12.76-53.834l0.314 0.686c-8.284-16.793-20.756-30.436-36.079-39.904l-0.414-0.238z" />
<glyph unicode="&#xe928;" glyph-name="41" d="M510.905 960c282.165 0 510.905-228.74 510.905-510.905s-228.74-510.905-510.905-510.905c-282.165 0-510.905 228.74-510.905 510.905v0c0 282.165 228.74 510.905 510.905 510.905v0zM377.34 633.751v-417.483h37.223v463.464h-28.465l-127.726-72.986v-37.953zM728.405 268.818c23.957 45.604 38.016 99.641 38.016 156.961 0 8.204-0.288 16.341-0.854 24.401l0.061-1.085c0.447 6.587 0.702 14.277 0.702 22.028 0 56.351-13.473 109.555-37.373 156.567l0.907-1.967c-20.435 36.415-58.8 60.617-102.818 60.617-1.059 0-2.115-0.014-3.167-0.042l0.155 0.003c-0.821 0.021-1.787 0.033-2.756 0.033-44.062 0-82.389-24.557-102.041-60.731l-0.304-0.611c-24.631-46.132-39.097-100.898-39.097-159.044 0-5.928 0.15-11.821 0.447-17.675l-0.033 0.821c-0.399-6.194-0.626-13.431-0.626-20.721 0-57.192 13.996-111.115 38.75-158.531l-0.9 1.894c21.488-36.601 60.652-60.784 105.465-60.784s83.978 24.184 105.155 60.212l0.311 0.572zM622.574 244.733c-68.607 0-102.181 67.148-102.181 202.902s33.574 204.362 102.181 204.362 102.911-68.607 102.911-202.902-34.304-204.362-102.911-204.362z" />
<glyph unicode="&#xe929;" glyph-name="42" d="M510.905 960c282.165 0 510.905-228.74 510.905-510.905s-228.74-510.905-510.905-510.905c-282.165 0-510.905 228.74-510.905 510.905v0c0 282.165 228.74 510.905 510.905 510.905v0zM377.34 630.831v-417.483h37.223v462.734h-28.465l-127.726-72.986v-38.683zM630.603 630.831v-417.483h37.223v462.734h-28.465l-128.456-74.446v-38.683z" />
<glyph unicode="&#xe92a;" horiz-adv-x="1021" d="M509.091 960c-281.163 0-509.091-227.928-509.091-509.091s227.928-509.091 509.091-509.091c281.163 0 509.091 227.928 509.091 509.091v0c0 281.163-227.928 509.091-509.091 509.091v0z" />
<glyph unicode="&#xe92b;" horiz-adv-x="1021" d="M1018.182 446.545c0-281.163-227.928-509.091-509.091-509.091v0zM509.091-62.545c-282.368 0-511.273 228.905-511.273 511.273s228.905 511.273 511.273 511.273v0zM509.091 921.455c-262.285 0-474.909-212.624-474.909-474.909s212.624-474.909 474.909-474.909c262.285 0 474.909 212.624 474.909 474.909v0c-0.413 262.118-212.79 474.495-474.869 474.909h-0.040z" />
<glyph unicode="&#xe92c;" horiz-adv-x="1021" d="M532.364 249.455h226.909v-33.455h-283.636v24l162.909 188.364c19.55 21.284 36.905 45.127 51.373 70.814l0.991 1.913c9.612 17.176 15.273 37.69 15.273 59.525 0 0.039 0 0.078 0 0.117v-0.006c0.066 1.315 0.104 2.856 0.104 4.405 0 24.094-9.154 46.050-24.173 62.581l0.068-0.076c-15.166 15.325-36.203 24.814-59.456 24.814-1.342 0-2.677-0.032-4.004-0.094l0.188 0.007c-0.215 0.002-0.47 0.003-0.724 0.003-24.438 0-46.82-8.798-64.154-23.399l0.15 0.123c-19.507-16.411-34.001-38.203-41.227-63.086l-0.227-0.914-29.818 16.727c7.991 32.035 26.368 58.925 51.277 77.561l0.359 0.257c23.97 16.839 53.757 26.91 85.897 26.91 0.228 0 0.456-0.001 0.683-0.002h-0.035c23.837-0.319 46.103-6.755 65.388-17.803l-0.661 0.349c18.588-10.17 33.634-24.75 44.074-42.38l0.29-0.529c10.085-18.593 16.014-40.708 16.014-64.208 0-0.694-0.005-1.387-0.015-2.078l0.001 0.104c-0.173-26.623-6.881-51.64-18.597-73.58l0.416 0.852c-18.433-31.101-38.876-58.026-62.003-82.378l0.185 0.196z" />
<glyph unicode="&#xe92d;" horiz-adv-x="1021" d="M257.455 564.364v38.545l127.273 74.182h28.364v-461.091h-37.091v416l-118.545-67.636z" />
<glyph unicode="&#xe92e;" d="M510.905 960c-282.165 0-510.905-228.74-510.905-510.905s228.74-510.905 510.905-510.905c282.165 0 510.905 228.74 510.905 510.905v0c0 282.165-228.74 510.905-510.905 510.905v0z" />
<glyph unicode="&#xe92f;" d="M715.997 416.981c14.164-19.419 22.661-43.758 22.661-70.082 0-1.021-0.013-2.040-0.038-3.055l0.003 0.15c0.028-1.064 0.044-2.316 0.044-3.572 0-25.434-6.505-49.349-17.942-70.171l0.381 0.757c-12.007-20.156-29.159-36.136-49.669-46.398l-0.692-0.313c-20.184-10.605-44.1-16.828-69.47-16.828-1.236 0-2.469 0.015-3.699 0.044l0.182-0.003c-0.845-0.015-1.841-0.024-2.84-0.024-30.95 0-59.935 8.412-84.794 23.075l0.78-0.426c-26.019 16.793-45.248 42.187-53.791 72.091l-0.219 0.896 29.924 18.247c6.952-25.675 22.553-46.969 43.415-61.069l0.377-0.24c19.607-13.283 43.787-21.206 69.818-21.206 1.114 0 2.225 0.015 3.332 0.043l-0.164-0.003c0.101 0 0.221-0.001 0.34-0.001 52.402 0 94.882 42.48 94.882 94.882 0 2.826-0.124 5.624-0.366 8.387l0.025-0.358c0.127 1.772 0.199 3.839 0.199 5.922 0 26.777-11.917 50.771-30.737 66.967l-0.116 0.098c-22.057 16.138-49.723 25.822-79.65 25.822-3.048 0-6.073-0.1-9.071-0.298l0.407 0.022h-26.275v32.844h30.654c1.956-0.135 4.238-0.212 6.539-0.212 25.513 0 48.811 9.486 66.558 25.123l-0.111-0.095c15.816 15.953 25.589 37.92 25.589 62.169 0 0.981-0.016 1.958-0.048 2.931l0.004-0.142c0.118 1.633 0.186 3.538 0.186 5.459 0 44.34-35.945 80.285-80.285 80.285-2.635 0-5.241-0.127-7.811-0.375l0.327 0.026c-0.793 0.023-1.725 0.037-2.661 0.037-22.494 0-43.187-7.709-59.582-20.629l0.205 0.156c-18.386-15.365-32.128-35.716-39.185-58.975l-0.228-0.874-30.654 17.517c8.506 30.228 26.582 55.409 50.693 72.715l0.398 0.272c22.187 15.122 49.583 24.145 79.087 24.145 1.448 0 2.891-0.022 4.329-0.065l-0.211 0.005c1.864 0.1 4.045 0.157 6.24 0.157 32.569 0 62.206-12.548 84.343-33.074l-0.080 0.073c20.383-20.891 32.957-49.483 32.957-81.012 0-1.798-0.041-3.586-0.122-5.364l0.009 0.252c0.024-0.883 0.037-1.923 0.037-2.966 0-22.943-6.535-44.36-17.844-62.491l0.29 0.499c-12.828-18.434-31.143-32.261-52.557-39.21l-0.723-0.203c27.033-6.659 49.87-21.67 66.232-42.093l0.185-0.24z" />
<glyph unicode="&#xe930;" d="M258.372 562.954v38.683l127.726 74.446h28.465v-462.734h-37.223v417.483l-118.968-67.877z" />
<glyph unicode="&#xe931;" d="M510.905 960c-282.165 0-510.905-228.74-510.905-510.905s228.74-510.905 510.905-510.905c282.165 0 510.905 228.74 510.905 510.905v0c0 282.165-228.74 510.905-510.905 510.905v0z" />
<glyph unicode="&#xe932;" d="M682.423 496.536v-137.215h70.067v-33.574h-70.067v-108.75h-37.223v108.75h-207.282v26.275l181.006 327.709h41.602l-178.087-320.411h162.76v137.215h37.223z" />
<glyph unicode="&#xe933;" d="M258.372 562.954v38.683l127.726 74.446h28.465v-462.734h-37.223v417.483l-118.968-67.877z" />
<glyph unicode="&#xe934;" glyph-name="46" d="M510.905 960c282.165 0 510.905-228.74 510.905-510.905s-228.74-510.905-510.905-510.905c-282.165 0-510.905 228.74-510.905 510.905v0c0 282.165 228.74 510.905 510.905 510.905v0zM656.878 484.128c-19.654 11.518-43.282 18.32-68.498 18.32-1.579 0-3.151-0.027-4.716-0.080l0.228 0.006c-28.068-0.798-53.506-11.442-73.123-28.581l0.136 0.117 23.356 168.599h170.788v33.574h-205.822l-32.844-249.614 22.626-10.948c19.637 32.149 54.534 53.281 94.368 53.281 0.181 0 0.362 0 0.542-0.001h-0.028c0.452 0.008 0.986 0.012 1.52 0.012 28.53 0 54.097-12.69 71.363-32.733l0.103-0.123c16.879-20.476 27.116-46.977 27.116-75.869 0-1.81-0.040-3.61-0.12-5.4l0.009 0.254c0.104-1.876 0.164-4.071 0.164-6.28 0-29.006-10.255-55.616-27.336-76.404l0.167 0.21c-17.962-19.76-43.768-32.115-72.46-32.115-0.185 0-0.37 0.001-0.555 0.002h0.028c-0.79-0.023-1.719-0.036-2.651-0.036-21.213 0-40.826 6.856-56.741 18.474l0.274-0.19c-17.518 13.24-30.902 31.095-38.432 51.764l-0.251 0.787-29.924-17.517c8.807-26.361 25.408-48.153 47.037-63.231l0.404-0.267c22.603-15.087 50.393-24.078 80.283-24.086h0.002c0.3-0.002 0.654-0.003 1.008-0.003 26.464 0 51.284 7.043 72.687 19.356l-0.709-0.376c21.607 12.973 38.957 31.024 50.73 52.56l0.36 0.72c13.295 22.382 21.36 49.242 21.894 77.943l0.002 0.152c0.001 0.174 0.001 0.379 0.001 0.584 0 26.438-6.478 51.364-17.934 73.276l0.416-0.873c-12.714 23.557-31.707 42.316-54.752 54.397l-0.718 0.343zM364.932 630.101v-417.483h37.223v463.464h-24.815l-126.996-72.986v-38.683z" />
<glyph unicode="&#xe935;" glyph-name="47" d="M510.905 960c282.165 0 510.905-228.74 510.905-510.905s-228.74-510.905-510.905-510.905c-282.165 0-510.905 228.74-510.905 510.905v0c0 282.165 228.74 510.905 510.905 510.905v0zM669.286 476.1c-20.129 11.944-44.372 19.003-70.264 19.003-0.957 0-1.912-0.010-2.864-0.029l0.142 0.002c-0.851 0.024-1.853 0.038-2.858 0.038-22.349 0-43.101-6.833-60.283-18.524l0.373 0.239 16.057 24.086 107.29 175.167h-40.143l-117.508-187.575c-13.091-20.257-26.463-44.171-38.378-68.92l-1.765-4.067c-7.848-18.689-12.408-40.41-12.408-63.196 0-0.106 0-0.212 0-0.318v0.016c0.016-26.718 6.77-51.855 18.653-73.808l-0.407 0.822c11.944-21.945 29.356-39.592 50.445-51.485l0.646-0.335c21.211-11.115 46.337-17.637 72.986-17.637s51.775 6.522 73.869 18.056l-0.883-0.42c21.568 12.45 38.922 30.037 50.742 51.142l0.349 0.678c11.493 20.383 18.265 44.751 18.265 70.701 0 0.804-0.006 1.606-0.019 2.406l0.002-0.121c0.006 0.494 0.009 1.078 0.009 1.662 0 25.994-6.205 50.539-17.215 72.235l0.419-0.911c-11.571 21.586-28.181 39.132-48.319 51.489l-0.582 0.332zM665.636 272.468c-17.988-18.907-43.338-30.667-71.434-30.667-0.546 0-1.091 0.004-1.634 0.013l0.082-0.001c-0.667-0.016-1.452-0.025-2.24-0.025-27.747 0-52.815 11.469-70.722 29.925l-0.024 0.025c-17.706 19.381-28.552 45.29-28.552 73.732 0 1.535 0.032 3.062 0.094 4.581l-0.007-0.218c0 0.116-0.001 0.252-0.001 0.389 0 20.015 4.577 38.961 12.743 55.847l-0.334-0.767c16.401 33.552 50.279 56.252 89.46 56.252 1.137 0 2.269-0.019 3.397-0.057l-0.164 0.004c0.646 0.015 1.407 0.024 2.171 0.024 27.905 0 53.061-11.775 70.768-30.627l0.048-0.051c16.874-19.831 27.137-45.74 27.137-74.046 0-1.938-0.048-3.864-0.143-5.778l0.011 0.269c0.059-1.35 0.092-2.933 0.092-4.524 0-28.625-10.841-54.718-28.642-74.397l0.085 0.096zM375.88 631.561v-417.483h37.223v462.004h-27.005l-127.726-72.986v-38.683z" />
<glyph unicode="&#xe936;" glyph-name="48" d="M510.905 960c282.165 0 510.905-228.74 510.905-510.905s-228.74-510.905-510.905-510.905c-282.165 0-510.905 228.74-510.905 510.905v0c0 282.165 228.74 510.905 510.905 510.905v0zM519.664 213.349h41.602l175.167 441.568v21.166h-276.619v-32.844h234.287zM373.691 630.831v-417.483h37.223v462.734h-24.815l-127.726-72.986v-38.683z" />
<glyph unicode="&#xe937;" glyph-name="49" d="M510.905 960c282.165 0 510.905-228.74 510.905-510.905s-228.74-510.905-510.905-510.905c-282.165 0-510.905 228.74-510.905 510.905v0c0 282.165 228.74 510.905 510.905 510.905v0zM723.296 416.981c-15.406 21.491-36.866 37.766-61.877 46.442l-0.892 0.269c20.945 8.12 38.15 22.032 50.122 39.767l0.239 0.375c11.875 16.714 18.984 37.537 18.984 60.020 0 0.453-0.003 0.905-0.009 1.357l0.001-0.069c0.008 0.491 0.012 1.071 0.012 1.652 0 21.152-5.695 40.973-15.634 58.015l0.295-0.548c-11.141 18.6-26.737 33.494-45.357 43.486l-0.624 0.306c-18.486 9.678-40.382 15.356-63.604 15.356-0.989 0-1.976-0.010-2.961-0.031l0.147 0.002c-0.686 0.012-1.495 0.019-2.306 0.019-23.393 0-45.46-5.673-64.903-15.718l0.791 0.372c-18.881-10.204-34.209-24.83-44.959-42.543l-0.292-0.519c-10.094-16.192-16.079-35.852-16.079-56.91 0-0.777 0.008-1.552 0.024-2.325l-0.002 0.115c-0.016-0.689-0.026-1.501-0.026-2.315 0-22.044 6.834-42.492 18.499-59.341l-0.227 0.347c12.652-17.956 30.030-31.809 50.336-39.878l0.755-0.265c-25.777-9.214-47.166-25.424-62.511-46.344l-0.257-0.367c-14.571-20.285-23.316-45.611-23.356-72.977v-0.010c-0.001-0.171-0.001-0.374-0.001-0.577 0-25.295 6.773-49.009 18.604-69.426l-0.356 0.666c12.445-20.468 29.761-36.849 50.389-47.83l0.701-0.341c21.931-11.049 47.798-17.518 75.176-17.518s53.245 6.47 76.156 17.964l-0.98-0.445c21.329 11.322 38.646 27.703 50.766 47.598l0.324 0.573c11.475 19.752 18.248 43.465 18.248 68.761 0 0.203 0 0.405-0.001 0.608v-0.031c-0.039 27.376-8.784 52.701-23.614 73.365l0.258-0.378zM678.044 271.738c-18.245-17.204-42.906-27.777-70.036-27.777-1.037 0-2.071 0.015-3.101 0.046l0.151-0.004c-0.879-0.027-1.913-0.043-2.95-0.043-27.131 0-51.792 10.574-70.087 27.825l0.051-0.047c-17.631 18.121-28.503 42.895-28.503 70.209 0 0.977 0.014 1.95 0.042 2.92l-0.003-0.143c-0.050 1.173-0.079 2.549-0.079 3.932 0 26.957 10.906 51.366 28.546 69.057l-0.002-0.002c18.439 17.631 43.488 28.483 71.071 28.483 0.674 0 1.346-0.006 2.016-0.019l-0.101 0.002c1.457 0.073 3.164 0.114 4.88 0.114 27.818 0 53.093-10.883 71.802-28.623l-0.047 0.044c17.638-17.688 28.544-42.098 28.544-69.054 0-1.383-0.029-2.759-0.086-4.128l0.006 0.196c0.028-0.875 0.044-1.904 0.044-2.937 0-27.397-11.181-52.182-29.23-70.041l-0.009-0.008zM537.18 625.722c15.999 14.546 37.353 23.452 60.786 23.452 1.467 0 2.927-0.035 4.377-0.104l-0.205 0.008c1.245 0.061 2.705 0.096 4.172 0.096 23.434 0 44.787-8.906 60.86-23.518l-0.074 0.066c15.339-14.763 24.868-35.47 24.868-58.403 0-1.022-0.019-2.039-0.056-3.052l0.004 0.146c0.040-0.949 0.063-2.063 0.063-3.182 0-22.483-9.242-42.808-24.134-57.383l-0.014-0.014c-15.706-14.587-36.821-23.537-60.028-23.537-1.991 0-3.968 0.066-5.926 0.196l0.266-0.014c-1.693-0.116-3.669-0.182-5.66-0.182-23.206 0-44.322 8.951-60.083 23.588l0.055-0.051c-15.748 14.579-25.574 35.362-25.574 58.439 0 0.753 0.010 1.503 0.031 2.25l-0.002-0.11c-0.028 0.809-0.044 1.76-0.044 2.715 0 22.857 9.216 43.561 24.135 58.599l-0.005-0.005zM377.34 630.831v-417.483h37.223v462.734h-28.465l-127.726-72.986v-38.683z" />
<glyph unicode="&#xe938;" glyph-name="50" d="M510.905 960c282.165 0 510.905-228.74 510.905-510.905s-228.74-510.905-510.905-510.905c-282.165 0-510.905 228.74-510.905 510.905v0c0 282.165 228.74 510.905 510.905 510.905v0zM691.182 661.485c-20.383 11.493-44.751 18.265-70.701 18.265-0.804 0-1.606-0.006-2.406-0.019l0.121 0.002c-1.137 0.034-2.474 0.053-3.816 0.053-52.425 0-98.020-29.245-121.36-72.311l-0.361-0.728c-11.493-20.383-18.265-44.751-18.265-70.701 0-0.804 0.006-1.606 0.019-2.406l-0.002 0.121c-0.004-0.444-0.007-0.969-0.007-1.494 0-26.051 6.204-50.653 17.215-72.409l-0.421 0.917c11.574-21.359 28.189-38.676 48.306-50.759l0.594-0.331c19.938-11.949 43.99-19.016 69.692-19.016 1.159 0 2.314 0.014 3.465 0.043l-0.171-0.003c0.552-0.010 1.202-0.015 1.854-0.015 22.581 0 43.636 6.532 61.38 17.809l-0.466-0.277-18.976-23.356-109.48-173.708h42.332l118.238 187.575c13.926 20.782 27.323 44.726 38.804 69.733l1.339 3.253c7.85 18.329 12.414 39.659 12.414 62.054 0 0.508-0.002 1.015-0.007 1.522l0.001-0.077c0 0.135 0.001 0.296 0.001 0.456 0 26.564-6.758 51.55-18.648 73.332l0.401-0.802c-11.944 21.945-29.356 39.592-50.445 51.485l-0.646 0.335zM671.475 441.066c-15.678-9.185-34.524-14.608-54.637-14.608-0.549 0-1.098 0.004-1.645 0.012l0.083-0.001c-0.646-0.015-1.407-0.024-2.171-0.024-27.905 0-53.061 11.775-70.768 30.627l-0.048 0.051c-19.418 20.065-31.385 47.444-31.385 77.618 0 0.168 0 0.336 0.001 0.504v-0.026c-0.070 1.479-0.11 3.212-0.11 4.954 0 28.724 10.845 54.915 28.664 74.702l-0.089-0.101c17.681 19.326 43.013 31.401 71.165 31.401 0.64 0 1.279-0.006 1.917-0.019l-0.095 0.001c0.218 0.002 0.476 0.003 0.735 0.003 28.216 0 53.761-11.437 72.252-29.927v0c17.706-19.381 28.552-45.29 28.552-73.732 0-1.535-0.032-3.062-0.094-4.581l0.007 0.218c0.005-0.426 0.008-0.929 0.008-1.433 0-19.909-4.581-38.747-12.747-55.52l0.331 0.753c-8.511-16.876-20.921-30.69-36.098-40.63l-0.395-0.243zM372.961 630.831v-417.483h37.223v462.734h-24.086l-127.726-72.986v-38.683z" />
<glyph unicode="&#xe939;" glyph-name="51" d="M510.905 960c282.165 0 510.905-228.74 510.905-510.905s-228.74-510.905-510.905-510.905c-282.165 0-510.905 228.74-510.905 510.905v0c0 282.165 228.74 510.905 510.905 510.905v0zM413.103 392.165c23.034 24.44 43.558 51.702 60.879 81.078l1.16 2.127c11.493 20.383 18.265 44.751 18.265 70.701 0 0.804-0.006 1.606-0.019 2.406l0.002-0.121c0.043 1.233 0.068 2.682 0.068 4.136 0 22.618-5.982 43.839-16.449 62.168l0.324-0.616c-10.55 18.609-25.701 33.525-43.939 43.5l-0.582 0.292c-17.568 9.233-38.385 14.651-60.467 14.651-1.323 0-2.64-0.019-3.954-0.058l0.193 0.004c-0.668 0.011-1.455 0.017-2.244 0.017-31.732 0-61.099-10.125-85.047-27.321l0.437 0.298c-25.563-18.65-44.242-45.393-52.339-76.411l-0.212-0.954 29.924-17.517c7.3 26.189 21.88 48.335 41.408 64.799l0.194 0.159c17.297 14.423 39.722 23.223 64.199 23.356h0.029c0.883 0.032 1.919 0.051 2.96 0.051 23.604 0 44.989-9.495 60.546-24.874l-0.008 0.008c15.457-16.311 24.962-38.397 24.962-62.703 0-1.82-0.053-3.628-0.158-5.422l0.012 0.248c0-0.040 0-0.088 0-0.135 0-21.66-5.684-41.992-15.641-59.587l0.314 0.603c-15.824-27.666-33.467-51.586-53.517-73.245l0.237 0.259-162.030-183.926v-24.086h283.917v30.654h-226.988zM783.145 260.060c23.853 45.295 37.853 98.981 37.853 155.936 0 7.279-0.229 14.506-0.679 21.671l0.049-0.98c0.432 6.437 0.678 13.954 0.678 21.528 0 57.172-14.016 111.070-38.799 158.446l0.898-1.886c-20.432 36.426-58.804 60.638-102.83 60.638-1.312 0-2.619-0.021-3.92-0.064l0.19 0.005c-0.937 0.027-2.039 0.043-3.144 0.043-43.775 0-81.888-24.237-101.654-60.024l-0.303-0.598c-23.376-46.020-37.070-100.348-37.070-157.874 0-7.111 0.209-14.173 0.622-21.18l-0.045 0.967c-0.376-6.060-0.591-13.142-0.591-20.275 0-57.012 13.704-110.823 37.997-158.319l-0.913 1.966c20.438-36.405 58.798-60.601 102.809-60.601 0.806 0 1.609 0.008 2.411 0.024l-0.12-0.002c0.86-0.022 1.872-0.035 2.887-0.035 44.26 0 82.875 24.17 103.366 60.030l0.307 0.584zM676.584 234.515c-67.877 0-102.181 67.148-102.181 202.172s34.304 205.092 102.181 205.092 102.911-68.607 102.911-205.092-34.304-202.172-102.911-202.172z" />
<glyph unicode="&#xe93a;" glyph-name="52" d="M510.905 960c282.165 0 510.905-228.74 510.905-510.905s-228.74-510.905-510.905-510.905c-282.165 0-510.905 228.74-510.905 510.905v0c0 282.165 228.74 510.905 510.905 510.905v0zM677.314 627.912v-417.483h37.223v462.734h-28.465l-126.996-78.096v-38.683zM414.563 395.815c22.624 24.468 42.903 51.719 60.108 80.995l1.201 2.21c11.937 20.694 18.98 45.514 18.98 71.978 0 0.354-0.001 0.709-0.004 1.062v-0.054c0.015 0.744 0.024 1.621 0.024 2.5 0 23.495-6.237 45.534-17.146 64.551l0.335-0.633c-9.573 17.832-23.187 32.38-39.676 42.787l-0.467 0.275c-18.195 9.669-39.784 15.346-62.698 15.346-0.795 0-1.588-0.007-2.379-0.020l0.119 0.002c-0.37 0.003-0.806 0.005-1.244 0.005-32.165 0-61.9-10.403-86.024-28.028l0.413 0.288c-25.505-18.539-44.011-45.357-51.631-76.45l-0.19-0.916 29.924-16.787c7.48 25.889 22.025 47.758 41.405 64.066l0.197 0.162c15.956 13.501 36.426 22.122 58.864 23.345l0.255 0.011c1.143 0.056 2.483 0.087 3.83 0.087 23.336 0 44.448-9.523 59.661-24.896l0.007-0.007c15.004-16.513 24.19-38.547 24.19-62.727 0-1.555-0.038-3.101-0.113-4.637l0.008 0.216c0.010-0.589 0.016-1.284 0.016-1.98 0-21.201-5.413-41.137-14.932-58.503l0.318 0.634c-16.097-27.604-33.471-51.487-52.957-73.454l0.407 0.467-162.030-187.575v-24.086h287.567v34.304h-230.637z" />
<glyph unicode="&#xe93b;" d="M510.905 960c-282.165 0-510.905-228.74-510.905-510.905s228.74-510.905 510.905-510.905c282.165 0 510.905 228.74 510.905 510.905v0c0 282.165-228.74 510.905-510.905 510.905v0z" />
<glyph unicode="&#xe93c;" d="M589.001 240.354h226.988v-33.574h-283.917v23.356l162.76 189.035c19.591 21.469 37.216 45.369 52.205 70.997l1.075 1.989c9.645 17.054 15.329 37.452 15.329 59.176 0 0.236-0.001 0.473-0.002 0.709v-0.036c0.039 1.010 0.061 2.195 0.061 3.386 0 24.628-9.456 47.047-24.935 63.826l0.059-0.065c-15.22 15.379-36.332 24.903-59.668 24.903-1.347 0-2.687-0.032-4.019-0.095l0.188 0.007c-0.060 0-0.13 0-0.201 0-24.694 0-47.327-8.823-64.92-23.488l0.163 0.132c-19.577-16.47-34.122-38.339-41.374-63.31l-0.228-0.918-29.924 16.787c8.443 31.474 27.105 57.722 52.141 75.628l0.409 0.278c23.711 17.337 53.446 27.74 85.61 27.74 0.437 0 0.874-0.002 1.311-0.006h-0.067c0.669 0.012 1.458 0.019 2.248 0.019 22.672 0 44.017-5.68 62.691-15.694l-0.711 0.348c18.655-10.207 33.754-24.838 44.231-42.531l0.291-0.531c10.139-18.077 16.111-39.673 16.111-62.663 0-1.32-0.020-2.636-0.059-3.947l0.005 0.192c0.011-0.68 0.018-1.482 0.018-2.285 0-25.95-6.771-50.318-18.643-71.435l0.379 0.733c-18.709-31.45-39.216-58.693-62.308-83.497l0.269 0.292z" />
<glyph unicode="&#xe93d;" d="M264.941 240.354h226.988v-33.574h-283.917v23.356l162.76 189.035c19.591 21.469 37.216 45.369 52.205 70.997l1.075 1.989c8.746 16.387 13.882 35.84 13.882 56.493 0 0.667-0.005 1.333-0.016 1.997l0.001-0.1c0.039 1.010 0.061 2.195 0.061 3.386 0 24.628-9.456 47.047-24.935 63.826l0.059-0.065c-15.22 15.379-36.332 24.903-59.668 24.903-1.347 0-2.687-0.032-4.019-0.095l0.188 0.007c-0.060 0-0.13 0-0.201 0-24.694 0-47.327-8.823-64.92-23.488l0.163 0.132c-19.577-16.47-34.122-38.339-41.374-63.31l-0.228-0.918-29.924 16.787c8.125 32.047 26.852 58.843 52.152 77.092l0.398 0.273c23.711 17.337 53.446 27.74 85.61 27.74 0.437 0 0.874-0.002 1.311-0.006h-0.067c0.669 0.012 1.458 0.019 2.248 0.019 22.672 0 44.017-5.68 62.691-15.694l-0.711 0.348c18.655-10.207 33.754-24.838 44.231-42.531l0.291-0.531c10.139-18.077 16.111-39.673 16.111-62.663 0-1.32-0.020-2.636-0.059-3.947l0.005 0.192c0.011-0.68 0.018-1.482 0.018-2.285 0-25.95-6.771-50.318-18.643-71.435l0.379 0.733c-18.709-31.45-39.216-58.693-62.308-83.497l0.269 0.292z" />
<glyph unicode="&#xe93e;" d="M510.905 960c-282.165 0-510.905-228.74-510.905-510.905s228.74-510.905 510.905-510.905c282.165 0 510.905 228.74 510.905 510.905v0c0 282.165-228.74 510.905-510.905 510.905v0z" />
<glyph unicode="&#xe93f;" d="M783.875 416.981c14.16-19.655 22.646-44.219 22.646-70.765 0-0.781-0.007-1.56-0.022-2.338l0.002 0.116c0.061-1.539 0.096-3.346 0.096-5.161 0-24.905-6.531-48.285-17.973-68.52l0.361 0.694c-11.977-20.394-29.128-36.607-49.677-47.123l-0.684-0.318c-19.835-10.173-43.276-16.135-68.108-16.135-1.715 0-3.424 0.028-5.126 0.085l0.248-0.007c-1.265-0.034-2.754-0.054-4.248-0.054-30.971 0-59.974 8.424-84.844 23.105l0.779-0.425c-26.163 16.641-45.449 42.098-53.802 72.109l-0.208 0.878 29.924 17.517c7.175-25.36 22.725-46.361 43.412-60.337l0.38-0.242c19.019-13.308 42.634-21.266 68.108-21.266 1.716 0 3.423 0.036 5.122 0.108l-0.243-0.008c1.898-0.137 4.112-0.216 6.344-0.216 26.089 0 49.68 10.694 66.629 27.937l0.013 0.013c17.242 17.182 27.911 40.951 27.911 67.212 0 2.031-0.064 4.048-0.19 6.048l0.014-0.273c0.142 1.867 0.222 4.044 0.222 6.239 0 26.685-11.934 50.582-30.755 66.646l-0.122 0.101c-21.593 16.189-48.837 25.923-78.354 25.923-3.505 0-6.978-0.137-10.414-0.407l0.454 0.029h-30.654v34.304h28.465c1.724-0.105 3.74-0.165 5.769-0.165 25.875 0 49.471 9.757 67.31 25.792l-0.092-0.082c15.816 15.953 25.589 37.92 25.589 62.169 0 0.981-0.016 1.958-0.048 2.931l0.004-0.142c0.045 1.024 0.071 2.226 0.071 3.433 0 22.503-8.933 42.92-23.447 57.897l0.021-0.022c-15.147 14.944-35.964 24.173-58.937 24.173-1.348 0-2.688-0.032-4.020-0.095l0.188 0.007c-0.359 0.005-0.784 0.007-1.209 0.007-22.963 0-44.131-7.685-61.074-20.622l0.244 0.179c-18.386-15.365-32.128-35.716-39.185-58.975l-0.228-0.874-30.654 16.787c8.675 30.157 26.708 55.29 50.701 72.717l0.39 0.27c22.622 15.11 50.442 24.113 80.364 24.113 0.999 0 1.996-0.010 2.99-0.030l-0.149 0.002c1.983 0.116 4.301 0.182 6.635 0.182 32.215 0 61.493-12.573 83.196-33.080l-0.058 0.054c20.797-20.525 33.678-49.025 33.678-80.534 0-1.709-0.038-3.41-0.113-5.101l0.008 0.24c0.024-0.883 0.037-1.923 0.037-2.966 0-22.943-6.535-44.36-17.844-62.491l0.29 0.499c-12.404-18.851-30.884-32.831-52.609-39.243l-0.671-0.17c27.033-6.659 49.87-21.67 66.232-42.093l0.185-0.24z" />
<glyph unicode="&#xe940;" d="M264.941 240.354h226.988v-33.574h-283.917v23.356l162.76 189.035c19.591 21.469 37.216 45.369 52.205 70.997l1.075 1.989c8.746 16.387 13.882 35.84 13.882 56.493 0 0.667-0.005 1.333-0.016 1.997l0.001-0.1c0.039 1.010 0.061 2.195 0.061 3.386 0 24.628-9.456 47.047-24.935 63.826l0.059-0.065c-15.22 15.379-36.332 24.903-59.668 24.903-1.347 0-2.687-0.032-4.019-0.095l0.188 0.007c-0.060 0-0.13 0-0.201 0-24.694 0-47.327-8.823-64.92-23.488l0.163 0.132c-19.577-16.47-34.122-38.339-41.374-63.31l-0.228-0.918-29.924 16.787c8.125 32.047 26.852 58.843 52.152 77.092l0.398 0.273c23.711 17.337 53.446 27.74 85.61 27.74 0.437 0 0.874-0.002 1.311-0.006h-0.067c0.669 0.012 1.458 0.019 2.248 0.019 22.672 0 44.017-5.68 62.691-15.694l-0.711 0.348c18.655-10.207 33.754-24.838 44.231-42.531l0.291-0.531c10.139-18.077 16.111-39.673 16.111-62.663 0-1.32-0.020-2.636-0.059-3.947l0.005 0.192c0.011-0.68 0.018-1.482 0.018-2.285 0-25.95-6.771-50.318-18.643-71.435l0.379 0.733c-18.709-31.45-39.216-58.693-62.308-83.497l0.269 0.292z" />
</font>
</defs>
</svg>
