<?xml version="1.0" encoding="UTF-8"?>
<svg id="_图层_2" data-name="图层 2" xmlns="http://www.w3.org/2000/svg" viewBox="0 0 15.09 39.3">
  <defs>
    <style>
      .cls-1 {
        fill: #fff;
      }

      .cls-1, .cls-2 {
        stroke-width: 0px;
      }

      .cls-2 {
        fill: #231815;
      }
    </style>
  </defs>
  <g id="_图层_1-2" data-name="图层 1">
    <g>
      <path class="cls-2" d="M13.87,28.62c-.25-.3-.61-.46-1.01-.46H4.56c-.3,0-.51.2-.51.51s.2.51.51.51h8.3c.1,0,.2.05.25.1.05.05.1.15.05.3l-.76,5.31c0,.15-.2.3-.4.3h-7.69c-.2,0-.4-.25-.4-.46l-.86-5.87-.46-2.48c-.1-.71-.71-1.27-1.47-1.27h-.61c-.3,0-.51.25-.51.51s.2.51.51.51h.61c.2,0,.4.15.46.4l.46,2.48.81,5.87c.1.76.71,1.37,1.42,1.37h7.69c.71,0,1.32-.51,1.42-1.16l.81-5.37c.05-.4-.05-.81-.3-1.11h0Z"/>
      <path class="cls-2" d="M3.09,38.29c0,.56.45,1.01,1.01,1.01s1.01-.45,1.01-1.01-.45-1.01-1.01-1.01-1.01.45-1.01,1.01h0Z"/>
      <path class="cls-2" d="M11.14,38.29c0,.56.45,1.01,1.01,1.01s1.01-.45,1.01-1.01-.45-1.01-1.01-1.01-1.01.45-1.01,1.01h0Z"/>
    </g>
    <g>
      <path class="cls-2" d="M8.07,14.04c-3.87,0-7.02-3.15-7.02-7.02S4.2,0,8.07,0s7.02,3.15,7.02,7.02-3.15,7.02-7.02,7.02ZM8.07.49C4.47.49,1.54,3.42,1.54,7.02s2.93,6.53,6.53,6.53,6.53-2.93,6.53-6.53S11.68.49,8.07.49Z"/>
      <path class="cls-2" d="M8.07.05C4.2.05,1.06,3.19,1.06,7.06s3.14,7.02,7.02,7.02,7.02-3.14,7.02-7.02S11.95.05,8.07.05Z"/>
      <path class="cls-1" d="M8.93,5.4v-.53l1.75-1.02h.39v6.34h-.51v-5.72l-1.63.93Z"/>
      <path class="cls-1" d="M8.25,7.48c.21.28.32.62.32,1.04,0,.37-.08.69-.25.97-.16.28-.39.49-.68.64s-.62.22-.98.22c-.45,0-.86-.12-1.23-.35-.37-.23-.62-.57-.74-1l.41-.24c.12.36.32.64.61.83.29.19.61.29.96.29.4,0,.73-.13.98-.38.25-.25.38-.59.38-.99s-.14-.75-.42-.98c-.28-.23-.68-.35-1.21-.35h-.36v-.47h.4c.43,0,.77-.12,1-.35.23-.23.35-.53.35-.89s-.11-.63-.32-.84c-.21-.22-.5-.32-.86-.32-.33,0-.61.09-.85.28s-.42.46-.54.82l-.42-.23c.14-.44.37-.77.7-1,.33-.22.71-.34,1.14-.34.52,0,.93.15,1.24.45.31.3.46.69.46,1.18,0,.34-.08.64-.25.89-.16.25-.41.43-.73.54.4.11.7.3.91.58Z"/>
    </g>
  </g>
</svg>