<svg version="1.1" xmlns="http://www.w3.org/2000/svg" width="15" height="13.254" viewBox="0 0 15 13.254"><path d="M7.274 0.517c0.086 0.078 0.138 0.161 0.195 0.262l0.058 0.101 0.062 0.109q0.065 0.115 0.131 0.229l0.034 0.059c0.116 0.202 0.236 0.403 0.356 0.603l0.061 0.101q0.132 0.219 0.264 0.437l0.042 0.069q0.037 0.062 0.075 0.123C8.631 2.741 8.631 2.741 8.631 2.813l-0.12 -0.027 -0.158 -0.035 -0.079 -0.018 -0.078 -0.017 -0.071 -0.016c-0.246 -0.051 -0.485 -0.056 -0.736 -0.056l-0.066 0c-0.319 0 -0.614 0.017 -0.922 0.105l-0.108 0.028A9.44 9.44 0 0 0 6.045 2.845a2.253 2.253 0 0 1 0.156 -0.379l0.055 -0.106 0.059 -0.113 0.061 -0.117c0.24 -0.459 0.488 -0.912 0.741 -1.364 0.012 -0.022 0.024 -0.043 0.037 -0.066C7.238 0.553 7.238 0.553 7.274 0.517" fill="#000000"/><path d="M11.509 2.166q-0.118 0.472 -0.237 0.943a286.843 286.843 0 0 0 -0.11 0.438 197.166 197.166 0 0 1 -0.106 0.423q-0.02 0.081 -0.04 0.161 -0.028 0.113 -0.057 0.226l-0.017 0.068c-0.026 0.103 -0.052 0.173 -0.112 0.263l-0.057 -0.098c-0.188 -0.316 -0.396 -0.578 -0.654 -0.839l-0.06 -0.066C9.75 3.35 9.295 3.107 8.89 2.909c0.102 -0.055 0.204 -0.09 0.315 -0.123l0.113 -0.034 0.122 -0.036 0.127 -0.038q0.133 -0.04 0.266 -0.079 0.168 -0.05 0.337 -0.101 0.163 -0.049 0.325 -0.097l0.12 -0.036q0.115 -0.034 0.229 -0.068 0.12 -0.036 0.241 -0.072l0.123 -0.037 0.111 -0.034C11.412 2.134 11.412 2.134 11.509 2.166" fill="#000000"/><path d="M2.845 2.328c0.331 0.064 0.659 0.136 0.986 0.217l0.138 0.034q0.143 0.035 0.286 0.07 0.183 0.045 0.366 0.09 0.142 0.035 0.284 0.07 0.067 0.017 0.135 0.033 0.094 0.023 0.188 0.046l0.108 0.027c0.089 0.025 0.172 0.055 0.258 0.091a2.78 2.78 0 0 1 -0.329 0.234C4.614 3.652 4.156 4.201 3.815 4.881h-0.065l-0.393 -1.107C3.186 3.293 3.015 2.81 2.845 2.328" fill="#000000"/><path d="m7.292 3.609 0.064 0c0.701 0.003 1.286 0.173 1.857 0.594l0.091 0.065c0.611 0.466 0.988 1.202 1.096 1.957 0.069 0.855 -0.052 1.719 -0.613 2.397 -0.599 0.696 -1.505 0.998 -2.399 1.072 -0.16 0.01 -0.32 0.012 -0.48 0.013l-0.098 0.001 -0.092 0 -0.082 0c-0.081 -0.009 -0.134 -0.033 -0.204 -0.073 0.053 -0.053 0.117 -0.044 0.19 -0.051 0.958 -0.099 2.035 -0.322 2.692 -1.097 0.421 -0.578 0.537 -1.276 0.429 -1.977C9.662 6.085 9.469 5.658 9.181 5.334l-0.047 -0.056c-0.365 -0.401 -0.894 -0.588 -1.422 -0.628 -0.617 -0.016 -1.283 0.16 -1.741 0.592 -0.293 0.322 -0.459 0.721 -0.439 1.156 0.03 0.328 0.143 0.572 0.319 0.845l0.012 -0.116C5.931 6.563 6.109 6.115 6.563 5.754c0.401 -0.269 0.851 -0.382 1.331 -0.307 0.498 0.114 0.886 0.38 1.161 0.812 0.239 0.423 0.281 0.893 0.162 1.36 -0.154 0.468 -0.448 0.799 -0.878 1.032 -0.137 0.065 -0.27 0.11 -0.418 0.142l-0.084 0.02c-0.829 0.163 -1.701 0.047 -2.414 -0.416 -0.553 -0.377 -0.932 -0.932 -1.074 -1.586 -0.023 -0.126 -0.041 -0.25 -0.048 -0.378l-0.005 -0.078c-0.026 -0.743 0.271 -1.378 0.769 -1.915 0.596 -0.599 1.399 -0.834 2.228 -0.832" fill="#000000"/><path d="M11.024 5.011c0.314 0.164 0.623 0.335 0.931 0.51a108.427 108.427 0 0 0 0.828 0.465q0.139 0.078 0.278 0.157l0.095 0.054 0.09 0.052 0.081 0.046L13.384 6.336v0.065a4.429 4.429 0 0 1 -0.228 0.145q-0.072 0.044 -0.145 0.089l-0.074 0.045c-0.101 0.063 -0.2 0.129 -0.299 0.195 -0.24 0.161 -0.482 0.319 -0.725 0.477 -0.143 0.093 -0.287 0.187 -0.429 0.283l-0.068 0.046a22.274 22.274 0 0 0 -0.123 0.084C11.16 7.856 11.16 7.856 11.088 7.856l0.026 -0.103c0.216 -0.872 0.234 -1.689 -0.059 -2.544C11.024 5.108 11.024 5.108 11.024 5.011" fill="#000000"/><path d="m3.621 5.302 -0.026 0.121c-0.163 0.828 -0.175 1.55 0.059 2.368 0.022 0.086 0.044 0.172 0.065 0.259 -0.209 -0.112 -0.407 -0.235 -0.603 -0.369l-0.088 -0.06a175.506 175.506 0 0 1 -0.277 -0.188l-0.273 -0.185 -0.179 -0.121A109.752 109.752 0 0 0 1.455 6.563c0.11 -0.092 0.22 -0.167 0.345 -0.237l0.109 -0.061 0.057 -0.032c0.101 -0.057 0.202 -0.114 0.303 -0.171l0.063 -0.036c0.226 -0.129 0.45 -0.261 0.673 -0.394l0.056 -0.033c0.212 -0.125 0.212 -0.125 0.421 -0.254C3.556 5.302 3.556 5.302 3.621 5.302" fill="#000000"/><path d="M10.991 8.082c0.072 0.108 0.093 0.192 0.124 0.318l0.017 0.068c0.018 0.074 0.037 0.148 0.055 0.221q0.019 0.077 0.038 0.154 0.051 0.203 0.101 0.407 0.051 0.206 0.102 0.412 0.09 0.363 0.18 0.727 0.047 0.189 0.094 0.377c-0.319 -0.049 -0.634 -0.115 -0.949 -0.184l-0.159 -0.035q-0.208 -0.045 -0.415 -0.09 -0.213 -0.046 -0.425 -0.092Q9.338 10.274 8.922 10.183c0.104 -0.08 0.208 -0.14 0.325 -0.2C10.054 9.552 10.579 8.88 10.991 8.082" fill="#000000"/><path d="M3.815 8.308c0.088 0.086 0.153 0.162 0.212 0.271 0.425 0.727 1.048 1.203 1.792 1.572 -0.107 0.071 -0.204 0.095 -0.327 0.122l-0.07 0.016c-0.077 0.018 -0.154 0.035 -0.23 0.052l-0.16 0.037q-0.168 0.038 -0.335 0.076a195.517 195.517 0 0 0 -0.43 0.098q-0.165 0.038 -0.33 0.076l-0.159 0.036q-0.111 0.025 -0.222 0.05l-0.067 0.015C3.337 10.765 3.337 10.765 3.265 10.765c0.104 -0.505 0.218 -1.008 0.333 -1.511q0.037 -0.161 0.073 -0.321Q3.743 8.621 3.815 8.308" fill="#000000"/><path d="m6.11 10.28 0.051 0.011q0.083 0.017 0.166 0.033c0.074 0.015 0.148 0.03 0.222 0.047C7.136 10.495 7.726 10.474 8.308 10.345q0.098 -0.019 0.196 -0.038 0.064 -0.013 0.127 -0.026c-0.048 0.158 -0.113 0.301 -0.186 0.448l-0.036 0.074q-0.058 0.118 -0.116 0.236 -0.079 0.162 -0.159 0.325l-0.039 0.081a72.899 72.899 0 0 0 -0.358 0.744A23.696 23.696 0 0 1 7.5 12.672c-0.08 -0.073 -0.13 -0.147 -0.182 -0.242l-0.049 -0.089 -0.053 -0.096a168.944 168.944 0 0 0 -0.114 -0.203l-0.059 -0.106c-0.093 -0.165 -0.189 -0.329 -0.286 -0.493 -0.157 -0.268 -0.312 -0.536 -0.465 -0.806l-0.055 -0.098 -0.05 -0.089 -0.045 -0.079C6.11 10.313 6.11 10.313 6.11 10.28" fill="#000000"/></svg>