<svg version="1.1" xmlns="http://www.w3.org/2000/svg" width="18" height="15.905" viewBox="0 0 18 15.905"><path d="M8.729 0.62a1.2 1.2 0 0 1 0.234 0.314l0.07 0.121 0.074 0.131 0.157 0.275 0.041 0.071q0.21 0.364 0.427 0.724l0.073 0.121 0.317 0.524 0.05 0.083 0.09 0.148c0.095 0.157 0.095 0.157 0.095 0.244l-0.144 -0.032 -0.19 -0.042 -0.095 -0.022 -0.094 -0.02 -0.085 -0.019a4.32 4.32 0 0 0 -0.883 -0.067h-0.079c-0.383 0 -0.737 0.02 -1.106 0.126l-0.13 0.034 -0.298 0.082a2.76 2.76 0 0 1 0.187 -0.455l0.066 -0.127 0.071 -0.136 0.073 -0.14q0.432 -0.824 0.889 -1.637L8.585 0.84c0.101 -0.176 0.101 -0.176 0.144 -0.22" fill="#000000"/><path d="m13.811 2.599 -0.284 1.132 -0.132 0.526 -0.127 0.508 -0.048 0.193 -0.068 0.271 -0.02 0.082a0.96 0.96 0 0 1 -0.134 0.316l-0.068 -0.118a5.16 5.16 0 0 0 -0.785 -1.007l-0.072 -0.079c-0.371 -0.402 -0.917 -0.694 -1.403 -0.931 0.122 -0.066 0.245 -0.108 0.378 -0.148l0.136 -0.041 0.146 -0.043 0.152 -0.046 0.319 -0.095 0.404 -0.121 0.39 -0.116 0.144 -0.043 0.275 -0.082 0.289 -0.086 0.148 -0.044 0.133 -0.041c0.112 -0.024 0.112 -0.024 0.228 0.014" fill="#000000"/><path d="M3.414 2.794q0.595 0.115 1.183 0.26l0.166 0.041 0.343 0.084 0.439 0.108 0.341 0.084 0.162 0.04 0.226 0.055 0.13 0.032c0.107 0.03 0.206 0.066 0.31 0.109a3.6 3.6 0 0 1 -0.395 0.281c-0.781 0.494 -1.331 1.153 -1.74 1.969H4.5l-0.472 -1.328z" fill="#000000"/><path d="M8.75 4.331h0.077c0.841 0.004 1.543 0.208 2.228 0.713l0.109 0.078c0.733 0.559 1.186 1.442 1.315 2.348 0.083 1.026 -0.062 2.063 -0.736 2.876 -0.719 0.835 -1.806 1.198 -2.879 1.286q-0.288 0.016 -0.576 0.016l-0.118 0.001h-0.209a0.6 0.6 0 0 1 -0.245 -0.088c0.064 -0.064 0.14 -0.053 0.228 -0.061 1.15 -0.119 2.442 -0.386 3.23 -1.316 0.505 -0.694 0.644 -1.531 0.515 -2.372a3 3 0 0 0 -0.674 -1.411l-0.056 -0.067c-0.438 -0.481 -1.073 -0.706 -1.706 -0.754 -0.74 -0.019 -1.54 0.192 -2.089 0.71 -0.352 0.386 -0.551 0.865 -0.527 1.387 0.036 0.394 0.172 0.686 0.383 1.014l0.014 -0.139c0.082 -0.677 0.295 -1.214 0.84 -1.648a2.196 2.196 0 0 1 1.597 -0.368c0.598 0.137 1.063 0.456 1.393 0.974 0.287 0.508 0.337 1.072 0.194 1.632 -0.185 0.562 -0.538 0.959 -1.054 1.238 -0.164 0.078 -0.324 0.132 -0.502 0.17l-0.101 0.024c-0.995 0.196 -2.041 0.056 -2.897 -0.499a3.072 3.072 0 0 1 -1.289 -1.903 3.6 3.6 0 0 1 -0.058 -0.454l-0.006 -0.094c-0.031 -0.892 0.325 -1.654 0.923 -2.298 0.715 -0.719 1.679 -1.001 2.674 -0.998" fill="#000000"/><path d="M13.229 6.013q0.564 0.296 1.117 0.612a129.6 129.6 0 0 0 0.994 0.558l0.334 0.188 0.114 0.065 0.108 0.062 0.097 0.055 0.068 0.049v0.078a4.8 4.8 0 0 1 -0.274 0.174l-0.174 0.107 -0.089 0.054q-0.181 0.114 -0.359 0.234 -0.432 0.288 -0.87 0.572 -0.258 0.168 -0.515 0.34l-0.082 0.055 -0.148 0.101c-0.16 0.109 -0.16 0.109 -0.246 0.109l0.031 -0.124c0.259 -1.046 0.281 -2.027 -0.071 -3.053 -0.037 -0.121 -0.037 -0.121 -0.037 -0.238" fill="#000000"/><path d="m4.345 6.362 -0.031 0.145c-0.196 0.994 -0.21 1.86 0.071 2.842l0.078 0.311a8.4 8.4 0 0 1 -0.724 -0.443l-0.106 -0.072 -0.332 -0.226 -0.328 -0.222 -0.215 -0.145a132 132 0 0 0 -1.013 -0.677c0.132 -0.11 0.264 -0.2 0.414 -0.284l0.131 -0.073 0.068 -0.038 0.364 -0.205 0.076 -0.043q0.407 -0.233 0.808 -0.473l0.067 -0.04c0.254 -0.15 0.254 -0.15 0.505 -0.305 0.089 -0.052 0.089 -0.052 0.167 -0.052" fill="#000000"/><path d="M13.189 9.698a1.08 1.08 0 0 1 0.149 0.382l0.02 0.082 0.066 0.265 0.046 0.185 0.121 0.488 0.122 0.494 0.216 0.872 0.113 0.452a18 18 0 0 1 -1.139 -0.221l-0.191 -0.042 -0.498 -0.108 -0.51 -0.11 -0.998 -0.218c0.125 -0.096 0.25 -0.168 0.39 -0.24 0.968 -0.517 1.598 -1.324 2.093 -2.281" fill="#000000"/><path d="M4.578 9.97c0.106 0.103 0.184 0.194 0.254 0.325 0.51 0.872 1.258 1.444 2.15 1.886a1.08 1.08 0 0 1 -0.392 0.146l-0.084 0.019 -0.276 0.062 -0.192 0.044 -0.402 0.091 -0.516 0.118 -0.396 0.091 -0.191 0.043 -0.266 0.06 -0.08 0.018c-0.182 0.043 -0.182 0.043 -0.269 0.043 0.125 -0.606 0.262 -1.21 0.4 -1.813l0.088 -0.385z" fill="#000000"/><path d="m7.332 12.336 0.061 0.013 0.199 0.04q0.133 0.026 0.266 0.056a4.92 4.92 0 0 0 2.111 -0.031l0.235 -0.046 0.152 -0.031a3.6 3.6 0 0 1 -0.223 0.538l-0.043 0.089 -0.139 0.283 -0.191 0.39 -0.047 0.097a87.6 87.6 0 0 0 -0.43 0.893 28.8 28.8 0 0 1 -0.284 0.58 1.08 1.08 0 0 1 -0.218 -0.29l-0.059 -0.107 -0.064 -0.115 -0.137 -0.244 -0.071 -0.127a32.4 32.4 0 0 0 -0.343 -0.592 78 78 0 0 1 -0.558 -0.967l-0.066 -0.118 -0.06 -0.107 -0.054 -0.095c-0.038 -0.07 -0.038 -0.07 -0.038 -0.109" fill="#000000"/></svg>