<svg xmlns="http://www.w3.org/2000/svg" width="10" height="8.364" viewBox="0 0 10 8.364"><path fill="#fcfcfc" d="M0 0h10v8.364H0z"/><path fill="#f5f5f5" d="M3.636 2.909a25.5 25.5 0 0 1 0.909 0.909v0.363l0.728 -0.728c0.705 0.318 0.705 0.318 0.909 0.728 0.47 0.085 0.47 0.085 1.012 0.114l0.557 0.042 0.431 0.027v0.728l-0.522 0.045 -0.569 0.136A13.5 13.5 0 0 0 6.728 6c-0.282 0.33 -0.282 0.33 -0.602 0.648l-0.316 0.319c-0.396 0.342 -0.81 0.595 -1.264 0.852a222.5 222.5 0 0 1 -1.079 -0.966l-0.311 -0.276c-0.77 -0.697 -0.77 -0.697 -0.973 -1.304l-1.091 -0.182V4.363h1.818l0.159 -0.42c0.204 -0.488 0.204 -0.488 0.569 -1.034"/><path fill="#383435" d="M4 1.454c0.455 0.284 0.455 0.284 0.728 0.545l0.375 -0.375c0.534 -0.352 0.534 -0.352 1.17 -0.352 0.68 0.195 1.04 0.419 1.546 0.909 0.292 0.585 0.192 1.17 0.182 1.818h-0.545l-0.08 -0.602c-0.081 -0.658 -0.081 -0.658 -0.284 -1.216 -0.938 -0.104 -0.938 -0.104 -1.794 0.203 -0.263 0.223 -0.508 0.464 -0.751 0.707l-0.375 -0.455C3.667 2.123 3.667 2.123 2.966 2.103 2.35 2.122 2.35 2.122 2 2.546c-0.084 0.358 -0.084 0.358 -0.114 0.75L1.818 4H1.272c-0.142 -1.456 -0.142 -1.456 0.432 -2.182C2.498 1.214 3.044 1.234 4 1.454"/><path fill="#403c3d" d="M3.636 2.909a25.5 25.5 0 0 1 0.909 0.909v0.363l0.728 -0.728c0.705 0.318 0.705 0.318 0.909 0.728 0.47 0.085 0.47 0.085 1.012 0.114l0.557 0.042 0.431 0.027v0.728q-0.522 0.029 -1.046 0.045l-0.588 0.025c-0.664 -0.086 -0.862 -0.287 -1.276 -0.798l-0.363 0.728H4.364c-0.306 -0.455 -0.306 -0.455 -0.545 -0.909l-0.238 0.455c-0.584 0.543 -0.761 0.516 -1.534 0.511a30 30 0 0 1 -0.955 -0.057V4.364h1.818l0.159 -0.42c0.204 -0.488 0.204 -0.488 0.569 -1.034"/><path fill="#333030" d="M2.182 5.455c0.758 0.095 1.137 0.311 1.694 0.83l0.384 0.352 0.286 0.273a132.5 132.5 0 0 0 0.716 -0.522l0.403 -0.294c0.356 -0.253 0.356 -0.253 0.518 -0.638h0.909c-0.746 0.955 -1.551 1.675 -2.546 2.364q-0.54 -0.487 -1.079 -0.978l-0.311 -0.28c-0.77 -0.701 -0.77 -0.701 -0.973 -1.106"/><path fill="#4f4b4c" d="m3.272 4 0.182 0.545 -0.363 0.545c-0.473 0.053 -0.473 0.053 -1.022 0.034l-0.552 -0.015 -0.425 -0.019V4.364l0.431 -0.034 0.557 -0.046 0.556 -0.045c0.444 -0.009 0.444 -0.009 0.637 -0.239"/><path fill="#2c2829" d="M1.637 2.364h0.182V4H1.272c-0.022 -0.614 -0.022 -0.614 0 -1.272z"/></svg>