<svg xmlns="http://www.w3.org/2000/svg" width="20" height="16.727" viewBox="0 0 20 16.727"><path fill="#fcfcfc" d="M0 0h20v16.727H0z"/><path fill="#f5f5f5" d="M7.273 5.818a51.273 51.273 0 0 1 1.818 1.818v0.727l1.455 -1.455c1.409 0.636 1.409 0.636 1.818 1.455 0.94 0.17 0.94 0.17 2.023 0.227l1.115 0.083L16.364 8.727v1.455l-1.045 0.091L14.182 10.545a26.545 26.545 0 0 0 -0.727 1.455c-0.564 0.66 -0.564 0.66 -1.204 1.296l-0.632 0.637C10.827 14.616 9.999 15.122 9.091 15.636a444.727 444.727 0 0 1 -2.159 -1.932l-0.622 -0.551C4.769 11.76 4.769 11.76 4.364 10.545l-2.182 -0.364v-1.455h3.636l0.318 -0.841C6.545 6.909 6.545 6.909 7.273 5.818"/><path fill="#383435" d="M8 2.909c0.909 0.568 0.909 0.568 1.455 1.091l0.75 -0.75C11.273 2.545 11.273 2.545 12.545 2.545c1.361 0.389 2.081 0.839 3.091 1.818 0.584 1.169 0.384 2.34 0.364 3.636h-1.091l-0.159 -1.204c-0.162 -1.316 -0.162 -1.316 -0.568 -2.432 -1.875 -0.209 -1.875 -0.209 -3.588 0.405C10.069 5.213 9.577 5.696 9.091 6.182l-0.75 -0.909c-1.007 -1.027 -1.007 -1.027 -2.409 -1.068 -1.232 0.038 -1.232 0.038 -1.932 0.886 -0.167 0.717 -0.167 0.717 -0.227 1.5L3.636 8H2.545c-0.285 -2.912 -0.285 -2.912 0.864 -4.364C4.996 2.428 6.088 2.467 8 2.909"/><path fill="#403c3d" d="M7.273 5.818a51.273 51.273 0 0 1 1.818 1.818v0.727l1.455 -1.455c1.409 0.636 1.409 0.636 1.818 1.455 0.94 0.17 0.94 0.17 2.023 0.227l1.115 0.083L16.364 8.727v1.455c-0.696 0.039 -1.394 0.068 -2.091 0.091l-1.176 0.051C11.768 10.152 11.374 9.749 10.545 8.727l-0.727 1.455h-1.091c-0.613 -0.909 -0.613 -0.909 -1.091 -1.818l-0.477 0.909c-1.168 1.087 -1.523 1.033 -3.068 1.023A60.364 60.364 0 0 1 2.182 10.182v-1.455h3.636l0.318 -0.841C6.545 6.909 6.545 6.909 7.273 5.818"/><path fill="#333030" d="M4.364 10.909c1.517 0.189 2.274 0.623 3.387 1.659l0.768 0.705L9.091 13.818a265.091 265.091 0 0 0 1.432 -1.045l0.805 -0.588C12.04 11.68 12.04 11.68 12.364 10.909h1.818c-1.491 1.909 -3.102 3.349 -5.091 4.727q-1.081 -0.975 -2.159 -1.955l-0.622 -0.56C4.769 11.719 4.769 11.719 4.364 10.909"/><path fill="#4f4b4c" d="m6.545 8 0.364 1.091 -0.727 1.091c-0.946 0.107 -0.946 0.107 -2.045 0.068l-1.105 -0.03L2.182 10.182v-1.455l0.862 -0.067 1.115 -0.092 1.113 -0.09c0.887 -0.017 0.887 -0.017 1.274 -0.479"/><path fill="#2c2829" d="M3.273 4.727h0.364v3.273H2.545c-0.045 -1.227 -0.045 -1.227 0 -2.545z"/></svg>