<svg xmlns="http://www.w3.org/2000/svg" width="18" height="15.055" viewBox="0 0 18 15.055"><path fill="#fcfcfc" d="M0 0h18v15.055H0z"/><path fill="#f5f5f5" d="M6.545 5.237a46.8 46.8 0 0 1 1.637 1.637v0.653L9.492 6.216c1.268 0.572 1.268 0.572 1.637 1.31 0.846 0.154 0.846 0.154 1.822 0.205l1.003 0.076 0.775 0.049v1.31l-0.94 0.082 -1.024 0.245A25.2 25.2 0 0 0 12.11 10.8c-0.508 0.594 -0.508 0.594 -1.084 1.166l-0.569 0.575c-0.713 0.616 -1.458 1.07 -2.275 1.534A402 402 0 0 1 6.24 12.336l-0.56 -0.497C4.294 10.585 4.294 10.585 3.928 9.492l-1.963 -0.328V7.854h3.274l0.286 -0.756c0.367 -0.878 0.367 -0.878 1.024 -1.861"/><path fill="#383435" d="M7.2 2.617c0.818 0.511 0.818 0.511 1.31 0.982l0.676 -0.676c0.961 -0.634 0.961 -0.634 2.106 -0.634 1.224 0.35 1.872 0.754 2.783 1.637 0.526 1.052 0.346 2.106 0.328 3.272h-0.982l-0.144 -1.084c-0.145 -1.184 -0.145 -1.184 -0.511 -2.189 -1.688 -0.187 -1.688 -0.187 -3.229 0.365 -0.474 0.402 -0.914 0.835 -1.352 1.272l-0.676 -0.818c-0.91 -0.924 -0.91 -0.924 -2.171 -0.96 -1.109 0.034 -1.109 0.034 -1.739 0.797 -0.151 0.644 -0.151 0.644 -0.205 1.35L3.272 7.2h-0.983c-0.256 -2.621 -0.256 -2.621 0.778 -3.928 1.429 -1.087 2.412 -1.051 4.133 -0.655"/><path fill="#403c3d" d="M6.545 5.237a46.8 46.8 0 0 1 1.637 1.637v0.653L9.492 6.216c1.268 0.572 1.268 0.572 1.637 1.31 0.846 0.154 0.846 0.154 1.822 0.205l1.003 0.076 0.775 0.049v1.31q-0.94 0.053 -1.883 0.082l-1.058 0.046c-1.195 -0.155 -1.552 -0.516 -2.297 -1.436L8.838 9.168h-0.982c-0.551 -0.818 -0.551 -0.818 -0.982 -1.637l-0.428 0.818c-1.051 0.978 -1.369 0.929 -2.761 0.919a54 54 0 0 1 -1.718 -0.103V7.855h3.271l0.286 -0.756c0.367 -0.878 0.367 -0.878 1.024 -1.861"/><path fill="#333030" d="M3.928 9.82c1.364 0.172 2.047 0.56 3.049 1.494l0.691 0.634 0.515 0.492 1.289 -0.94 0.726 -0.529c0.641 -0.456 0.641 -0.456 0.932 -1.148h1.637C11.424 11.54 9.976 12.838 8.184 14.077q-0.972 -0.876 -1.943 -1.76l-0.56 -0.504c-1.386 -1.261 -1.386 -1.261 -1.752 -1.991"/><path fill="#4f4b4c" d="m5.89 7.2 0.328 0.982 -0.653 0.982c-0.852 0.096 -0.852 0.096 -1.84 0.061l-0.994 -0.026 -0.764 -0.034V7.858l0.775 -0.061 1.003 -0.083 1.001 -0.082c0.799 -0.016 0.799 -0.016 1.147 -0.43"/><path fill="#2c2829" d="M2.946 4.255h0.328V7.2h-0.985c-0.04 -1.105 -0.04 -1.105 0 -2.29z"/></svg>