<?xml version="1.0" encoding="UTF-8"?>
<svg version="1.1" xmlns="http://www.w3.org/2000/svg" width="464" height="410">
<path d="M0 0 C2.66832407 2.40666515 4.28262452 4.98252155 6.046875 8.1015625 C6.63710449 9.13692139 7.22733398 10.17228027 7.83544922 11.23901367 C8.46725098 12.35638916 9.09905273 13.47376465 9.75 14.625 C11.09811829 16.99025769 12.45083117 19.35286657 13.8046875 21.71484375 C14.32344955 22.62067955 14.32344955 22.62067955 14.85269165 23.54481506 C18.44732488 29.80668469 22.15019853 36.00228792 25.875 42.1875 C26.80856323 43.73957153 26.80856323 43.73957153 27.76098633 45.32299805 C30.47658143 49.83158919 33.20140151 54.33432794 35.94140625 58.828125 C36.58456787 59.88737183 36.58456787 59.88737183 37.24072266 60.96801758 C38.01116591 62.23590125 38.78529555 63.50155595 39.56396484 64.7644043 C42 68.7760292 42 68.7760292 42 71 C40.15535156 70.58427734 40.15535156 70.58427734 38.2734375 70.16015625 C36.64064416 69.79418533 35.00783059 69.42830468 33.375 69.0625 C32.56675781 68.88009766 31.75851562 68.69769531 30.92578125 68.50976562 C30.13300781 68.33251953 29.34023437 68.15527344 28.5234375 67.97265625 C27.80075684 67.81031494 27.07807617 67.64797363 26.33349609 67.48071289 C18.71127203 65.91049327 11.32322428 65.7590316 3.5625 65.75 C2.88770599 65.74866058 2.21291199 65.74732117 1.51766968 65.74594116 C-8.34559819 65.75019896 -17.46702113 66.25865116 -27 69 C-28.09828125 69.28617187 -29.1965625 69.57234375 -30.328125 69.8671875 C-32.89680001 70.54485302 -35.45089784 71.25275799 -38 72 C-36.71312563 67.86672754 -35.16222121 64.11905499 -33.1640625 60.28125 C-32.60033936 59.19497314 -32.03661621 58.10869629 -31.45581055 56.98950195 C-30.85164307 55.83796631 -30.24747559 54.68643066 -29.625 53.5 C-28.99443693 52.29196853 -28.36398586 51.08387859 -27.73364258 49.87573242 C-20.31633007 35.69109085 -12.63189101 21.65398168 -4.8125 7.6875 C-4.43762451 7.0169458 -4.06274902 6.3463916 -3.67651367 5.65551758 C-1.12145884 1.12145884 -1.12145884 1.12145884 0 0 Z " fill="#000000" transform="translate(225,16)"/>
<path d="M0 0 C-2.435891 9.72870397 -4.87804971 19.45581065 -7.32825279 29.1809206 C-8.4657464 33.69658523 -9.60106278 38.21277418 -10.73144531 42.73022461 C-11.82212845 47.0886831 -12.91847566 51.44568047 -14.01878738 55.80171776 C-14.43785848 57.4649991 -14.85487597 59.12879923 -15.26981735 60.79311562 C-15.85074161 63.12169774 -16.43889884 65.44833876 -17.02880859 67.7746582 C-17.28451881 68.81043755 -17.28451881 68.81043755 -17.5453949 69.86714172 C-18.36146625 73.05470962 -19.15084048 75.22626072 -21 78 C-21.58265625 76.99582031 -22.1653125 75.99164063 -22.765625 74.95703125 C-28.5724295 65.18454557 -35.01654193 57.06329265 -43 49 C-43.92039062 47.98873047 -43.92039062 47.98873047 -44.859375 46.95703125 C-54.41073244 36.62548867 -68.46004813 29.10134578 -81 23 C-77.84148598 21.29397606 -74.69667427 20.2110351 -71.26025391 19.18408203 C-70.1044986 18.83677032 -68.94874329 18.48945862 -67.75796509 18.13162231 C-66.51010223 17.76076508 -65.26223938 17.38990784 -63.9765625 17.0078125 C-62.67051492 16.61698473 -61.36455733 16.2258561 -60.0586853 15.83444214 C-57.31728678 15.01355025 -54.57519601 14.19502978 -51.83251953 13.37841797 C-48.35798116 12.34389498 -44.88460104 11.30555295 -41.41167641 10.26562691 C-38.05868465 9.26175157 -34.70516389 8.2596491 -31.3515625 7.2578125 C-30.12394196 6.89100372 -28.89632141 6.52419495 -27.63150024 6.14627075 C-25.26918953 5.44268516 -22.90582421 4.7426289 -20.5413208 4.04644775 C-18.05649183 3.31218959 -15.57681099 2.56693959 -13.09881592 1.81048584 C-11.84208069 1.43458313 -10.58534546 1.05868042 -9.29052734 0.67138672 C-8.15545746 0.32695526 -7.02038757 -0.0174762 -5.85092163 -0.37234497 C-3 -1 -3 -1 0 0 Z " fill="#000000" transform="translate(356,67)"/>
<path d="M0 0 C10.24231065 1.96672242 20.3830873 4.22018672 30.5078125 6.72265625 C31.93166804 7.07247951 33.35556834 7.42212065 34.7795105 7.77159119 C37.72951322 8.49639359 40.6789273 9.22353119 43.62792969 9.95239258 C47.39801709 10.88395875 51.16962075 11.80921746 54.94168282 12.73275089 C57.86772402 13.44992677 60.79291368 14.17052673 63.71786118 14.89214897 C65.10900098 15.23490152 66.50040858 15.57656913 67.89209366 15.91710091 C69.83012869 16.39183156 71.76690006 16.87171198 73.70361328 17.35180664 C74.80198517 17.62255508 75.90035706 17.89330353 77.03201294 18.17225647 C79.79079094 18.94165357 82.36720403 19.87889235 85 21 C81.7321119 23.69879448 78.43098945 26.04790598 74.8125 28.25 C54.72064146 40.95514584 40.565538 57.93889445 30 79 C29.34 79 28.68 79 28 79 C25.23500468 71.20986853 22.47017438 63.41967852 19.70554161 55.62941837 C18.42112226 52.01016088 17.1366509 48.39092186 15.85205078 44.77172852 C10.55643314 29.85190782 5.26086756 14.93211994 0 0 Z " fill="#000000" transform="translate(88,72)"/>
<path d="M0 0 C0.65846924 0.00054382 1.31693848 0.00108765 1.99536133 0.00164795 C23.68157497 0.08378274 41.78241616 5.36219297 59.4375 18.375 C60.36304688 19.04144531 61.28859375 19.70789063 62.2421875 20.39453125 C81.14484074 34.825877 92.81556241 57.57733091 96.16015625 80.92578125 C98.28646094 107.36982412 94.54144769 134.1066201 77.1875 155.0625 C58.65404187 176.59180318 30.62695469 185.93140425 2.96826172 188.21826172 C-1.97721623 188.52455121 -6.92109124 188.59587763 -11.875 188.625 C-12.87192871 188.63426514 -13.86885742 188.64353027 -14.89599609 188.65307617 C-15.8339502 188.64896729 -16.7719043 188.6448584 -17.73828125 188.640625 C-18.57270752 188.63836914 -19.40713379 188.63611328 -20.2668457 188.63378906 C-22.76136714 188.35258171 -24.40352106 187.62501684 -26.5625 186.375 C-24.92911047 184.74161047 -22.95407123 185.01531073 -20.69921875 184.796875 C8.92286422 181.722621 42.25221736 174.83630782 62.5625 150.8671875 C75.57180216 132.97939703 79.17543879 111.40060285 75.82421875 89.71484375 C73.301414 76.61595214 67.33857402 63.38870827 58.4375 53.375 C57.9528125 52.79878906 57.468125 52.22257812 56.96875 51.62890625 C45.6889574 39.21560508 29.3278315 33.43668139 12.984375 32.1875 C-6.1112168 31.68165651 -26.69021924 37.13993309 -40.85546875 50.5 C-49.93174088 60.46936069 -55.03937317 72.78859279 -54.4375 86.25 C-53.49808985 96.3868909 -50.00920787 103.94806747 -44.5625 112.375 C-44.43875 111.1890625 -44.315 110.003125 -44.1875 108.78125 C-42.09222656 91.39770549 -36.59573901 77.51735349 -22.5625 66.375 C-10.1484352 58.05329587 3.75978348 54.54404939 18.6015625 56.87109375 C34.00997703 60.39472343 46.01854202 68.63557604 54.5234375 81.98828125 C61.91422166 95.06544424 63.2277771 109.61624493 59.53125 124.04296875 C54.78039101 138.51612133 45.67341813 148.7577215 32.37109375 155.9765625 C28.12569908 158.00033253 24.02963505 159.38248375 19.4375 160.375 C18.15166016 160.68050781 18.15166016 160.68050781 16.83984375 160.9921875 C-8.81161392 166.03271619 -35.79074842 162.44541669 -57.84423828 148.12988281 C-74.93889582 136.46458127 -86.66975439 119.3131378 -91.07421875 99.07421875 C-91.78083397 95.16804979 -92.3349752 91.3394472 -92.5625 87.375 C-92.64177734 86.18583984 -92.64177734 86.18583984 -92.72265625 84.97265625 C-93.51744375 61.99293085 -84.34698006 42.33750797 -68.92578125 25.75 C-50.47426889 7.20699254 -25.65490033 -0.0358673 0 0 Z " fill="#000000" transform="translate(225.5625,111.625)"/>
<path d="M0 0 C9.70511826 5.07487227 19.27018102 10.37512452 28.79394531 15.78222656 C37.30603897 20.61491702 45.84582562 25.39680827 54.39990234 30.15478516 C57.27329476 31.7583739 60.13915296 33.37414434 63 35 C63.97372559 35.55187988 64.94745117 36.10375977 65.95068359 36.67236328 C66.8680127 37.20458496 67.7853418 37.73680664 68.73046875 38.28515625 C69.55313232 38.75961182 70.3757959 39.23406738 71.22338867 39.72290039 C71.80967041 40.14434326 72.39595215 40.56578613 73 41 C73 41.66 73 42.32 73 43 C70.67486836 44.58878903 68.35132238 46.05677728 65.9375 47.5 C64.44677649 48.41089709 62.95721651 49.32370073 61.46875 50.23828125 C60.71335937 50.70186035 59.95796875 51.16543945 59.1796875 51.64306641 C56.05231668 53.58996683 52.99138648 55.62787226 49.9375 57.6875 C42.51382385 62.68166442 35.01909698 67.5636964 27.51660156 72.43847656 C23.07894343 75.32553868 18.64975011 78.22150776 14.26171875 81.18359375 C13.21564453 81.88935547 13.21564453 81.88935547 12.1484375 82.609375 C10.87609347 83.47112195 9.60638875 84.33678363 8.33984375 85.20703125 C4.21780711 88 4.21780711 88 2 88 C2.26554687 86.94683594 2.53109375 85.89367187 2.8046875 84.80859375 C9.47448833 57.82994283 10.05254089 32.56502564 0.98828125 6.125 C0 3 0 3 0 0 Z " fill="#000000" transform="translate(341,155)"/>
<path d="M0 0 C-0.268125 1.2375 -0.53625 2.475 -0.8125 3.75 C-5.85020901 29.37345518 -6.21434586 51.69065552 1 77 C1.68843557 79.66195088 2.34596775 82.3293683 3 85 C-3.47834899 81.54736789 -9.5887883 77.72235473 -15.65234375 73.58984375 C-16.55134903 72.98169327 -17.45035431 72.37354279 -18.37660217 71.7469635 C-21.23261687 69.8139643 -24.0851748 67.87593817 -26.9375 65.9375 C-29.74855141 64.03182997 -32.56032413 62.12722826 -35.3722229 60.22280884 C-37.21623971 58.9738634 -39.0599724 57.72449837 -40.90341187 56.47470093 C-49.57072687 50.60230454 -58.27877029 44.79193087 -67 39 C-63.60261265 36.16304629 -60.19299446 33.83784419 -56.3359375 31.671875 C-55.22613525 31.04434326 -54.11633301 30.41681152 -52.97290039 29.77026367 C-52.38654816 29.44109955 -51.80019592 29.11193542 -51.19607544 28.77279663 C-48.06886599 27.01641728 -44.95032841 25.24479746 -41.83203125 23.47265625 C-41.18928757 23.10759476 -40.54654388 22.74253326 -39.88432312 22.3664093 C-32.8958797 18.38757042 -25.97428523 14.29767455 -19.0625 10.1875 C-18.48723572 9.84561646 -17.91197144 9.50373291 -17.3192749 9.15148926 C-10.7715865 5.27647339 -10.7715865 5.27647339 -4.28686523 1.2980957 C-2 0 -2 0 0 0 Z " fill="#000000" transform="translate(112,164)"/>
<path d="M0 0 C2.22359418 3.33539126 2.88484501 5.93719008 3.84765625 9.82299805 C4.02029999 10.51284286 4.19294373 11.20268768 4.37081909 11.91343689 C4.94030097 14.19484749 5.50141388 16.47823015 6.0625 18.76171875 C6.45789994 20.35265183 6.85382235 21.94345514 7.25024414 23.53413391 C8.2936529 27.72686275 9.3299935 31.9213077 10.36486816 36.1161499 C11.41352759 40.36167874 12.46872691 44.60558057 13.5234375 48.84960938 C15.38408179 56.34002881 17.23893609 63.83186141 19.08959961 71.32475281 C20.05399142 75.21796102 21.02593523 79.10920204 22 83 C12.12279889 81.49204293 2.39718707 79.43384372 -7.359375 77.3046875 C-9.00126821 76.94857195 -10.64321664 76.59271093 -12.28521729 76.23709106 C-16.56655132 75.30914785 -20.8471359 74.37779299 -25.12756348 73.44567871 C-29.51167046 72.49163597 -33.89649144 71.5408865 -38.28125 70.58984375 C-46.85486121 68.72974993 -55.42768197 66.86604436 -64 65 C-60.78530988 62.52361604 -57.55491777 60.66296523 -53.9375 58.8125 C-28.99539543 45.47849543 -12.75141996 24.68281292 0 0 Z " fill="#000000" transform="translate(340,250)"/>
<path d="M0 0 C2.73558913 2.66698174 4.73506473 5.0180186 6.5625 8.375 C19.72322022 30.87451411 38.98933 45.59324192 62 57 C58.6958086 59.20279426 55.69979907 59.93663222 51.89819336 60.78759766 C50.81970879 61.03675179 50.81970879 61.03675179 49.71943665 61.29093933 C47.34424622 61.83801953 44.96712654 62.37615367 42.58984375 62.9140625 C40.93971428 63.29186748 39.28969633 63.67015985 37.63978577 64.04891968 C34.18315671 64.84110097 30.7256288 65.62918558 27.26733398 66.4140625 C22.82823209 67.42161143 18.39084654 68.43648127 13.95403194 69.45405006 C10.54792961 70.23488801 7.14127293 71.0132821 3.73440742 71.79078293 C2.09759361 72.16435556 0.46087841 72.53836058 -1.17573738 72.91279984 C-3.45917662 73.43454206 -5.7432649 73.95333412 -8.02758789 74.47119141 C-8.70763885 74.62701187 -9.38768982 74.78283234 -10.08834839 74.94337463 C-14.77067211 76 -14.77067211 76 -17 76 C-13.79797474 60.37112554 -10.26353612 44.82198942 -6.69903564 29.27233887 C-5.94007803 25.95982983 -5.18302199 22.64688623 -4.42578125 19.33398438 C-2.95222502 12.88893207 -1.47685149 6.44429797 0 0 Z " fill="#000000" transform="translate(118,257)"/>
<path d="M0 0 C0.78697266 0.16435547 0.78697266 0.16435547 1.58984375 0.33203125 C3.30403711 0.68285618 5.02053767 1.02246128 6.73828125 1.35546875 C9.03311776 1.80893944 11.32190259 2.293597 13.60546875 2.80078125 C31.72878056 6.63321242 49.98328036 6.00154662 68 2 C70.02017183 1.60080437 72.04090282 1.20441354 74.0625 0.8125 C75.37543751 0.54379565 76.68815183 0.27397321 78 0 C76.50931988 4.88165664 74.50657469 9.31160039 72.25390625 13.87109375 C71.88664932 14.62228485 71.5193924 15.37347595 71.14100647 16.14743042 C69.95146649 18.57908327 68.75695144 21.00825655 67.5625 23.4375 C65.92424212 26.78310186 64.28844754 30.12990682 62.65234375 33.4765625 C62.0480957 34.71110924 62.0480957 34.71110924 61.43164062 35.97059631 C57.6885601 43.62243078 54.00598974 51.30207338 50.34985352 58.99584961 C47.95624095 64.0270192 45.507725 69.0246278 43 74 C40.52509694 71.73786526 38.97504144 69.44745997 37.35546875 66.51953125 C36.85080078 65.61525391 36.34613281 64.71097656 35.82617188 63.77929688 C35.28541016 62.80025391 34.74464844 61.82121094 34.1875 60.8125 C33.01579433 58.71402149 31.84256886 56.61639099 30.66796875 54.51953125 C29.75990479 52.89845459 29.75990479 52.89845459 28.83349609 51.24462891 C25.94379609 46.13089881 22.97320305 41.06548792 20 36 C15.15007311 27.72013606 10.35544202 19.41126026 5.625 11.0625 C4.77615234 9.56879883 4.77615234 9.56879883 3.91015625 8.04492188 C3.39582031 7.13419922 2.88148438 6.22347656 2.3515625 5.28515625 C1.89604004 4.47957275 1.44051758 3.67398926 0.97119141 2.84399414 C0 1 0 1 0 0 Z " fill="#000000" transform="translate(189,318)"/>
</svg>
