<svg xmlns="http://www.w3.org/2000/svg" width="15" height="12.546" viewBox="0 0 15 12.546"><path fill="#fcfcfc" d="M0 0h15v12.546H0z"/><path fill="#f5f5f5" d="M5.454 4.364a39 39 0 0 1 1.364 1.364v0.544l1.092 -1.092c1.057 0.477 1.057 0.477 1.364 1.092 0.705 0.128 0.705 0.128 1.518 0.171l0.836 0.063 0.646 0.041v1.092l-0.783 0.068 -0.853 0.204A21 21 0 0 0 10.092 9c-0.423 0.495 -0.423 0.495 -0.903 0.972l-0.474 0.479c-0.594 0.513 -1.215 0.892 -1.896 1.278a334.5 334.5 0 0 1 -1.619 -1.449l-0.467 -0.414c-1.155 -1.045 -1.155 -1.045 -1.46 -1.956l-1.636 -0.273v-1.092H4.365l0.238 -0.63c0.306 -0.732 0.306 -0.732 0.853 -1.551"/><path fill="#383435" d="M6 2.181c0.682 0.426 0.682 0.426 1.092 0.818l0.563 -0.563c0.801 -0.528 0.801 -0.528 1.755 -0.528 1.02 0.292 1.56 0.628 2.319 1.364 0.438 0.877 0.288 1.755 0.273 2.727h-0.818l-0.12 -0.903c-0.121 -0.987 -0.121 -0.987 -0.426 -1.824 -1.407 -0.156 -1.407 -0.156 -2.691 0.304 -0.395 0.335 -0.762 0.696 -1.127 1.06l-0.563 -0.682c-0.758 -0.77 -0.758 -0.77 -1.809 -0.8 -0.924 0.028 -0.924 0.028 -1.449 0.664 -0.126 0.537 -0.126 0.537 -0.171 1.125L2.727 6h-0.819c-0.213 -2.184 -0.213 -2.184 0.648 -3.273 1.191 -0.906 2.01 -0.876 3.444 -0.546"/><path fill="#403c3d" d="M5.454 4.364a39 39 0 0 1 1.364 1.364v0.544l1.092 -1.092c1.057 0.477 1.057 0.477 1.364 1.092 0.705 0.128 0.705 0.128 1.518 0.171l0.836 0.063 0.646 0.041v1.092q-0.783 0.044 -1.569 0.068l-0.882 0.038c-0.996 -0.129 -1.293 -0.43 -1.914 -1.197l-0.544 1.092h-0.818c-0.459 -0.682 -0.459 -0.682 -0.818 -1.364l-0.357 0.682c-0.876 0.815 -1.141 0.774 -2.301 0.766a45 45 0 0 1 -1.432 -0.086v-1.092H4.365l0.238 -0.63c0.306 -0.732 0.306 -0.732 0.853 -1.551"/><path fill="#333030" d="M3.273 8.183c1.137 0.143 1.706 0.467 2.541 1.245l0.576 0.528 0.429 0.41 1.074 -0.783 0.605 -0.441c0.534 -0.38 0.534 -0.38 0.777 -0.957h1.364c-1.119 1.432 -2.326 2.513 -3.819 3.546q-0.81 -0.73 -1.619 -1.467l-0.467 -0.42c-1.155 -1.051 -1.155 -1.051 -1.46 -1.659"/><path fill="#4f4b4c" d="m4.908 6 0.273 0.818 -0.544 0.818c-0.71 0.08 -0.71 0.08 -1.533 0.051l-0.828 -0.022 -0.637 -0.028v-1.089l0.646 -0.051 0.836 -0.069 0.834 -0.068c0.666 -0.013 0.666 -0.013 0.956 -0.358"/><path fill="#2c2829" d="M2.455 3.546h0.273V6h-0.821c-0.033 -0.921 -0.033 -0.921 0 -1.908z"/></svg>