<?xml version="1.0" encoding="UTF-8"?>
<svg version="1.1" xmlns="http://www.w3.org/2000/svg" width="55" height="46">
<path d="M0 0 C18.15 0 36.3 0 55 0 C55 15.18 55 30.36 55 46 C36.85 46 18.7 46 0 46 C0 30.82 0 15.64 0 0 Z " fill="#FCFCFC" transform="translate(0,0)"/>
<path d="M0 0 C1.70884005 1.62339805 3.37446717 3.29319053 5 5 C5 5.66 5 6.32 5 7 C6.32 5.68 7.64 4.36 9 3 C12.875 4.75 12.875 4.75 14 7 C16.58605332 7.4683265 16.58605332 7.4683265 19.5625 7.625 C20.57441406 7.69976563 21.58632813 7.77453125 22.62890625 7.8515625 C23.80259766 7.92503906 23.80259766 7.92503906 25 8 C25 9.32 25 10.64 25 12 C23.576875 12.12375 23.576875 12.12375 22.125 12.25 C21.09375 12.4975 20.0625 12.745 19 13 C18.28990859 14.31072209 17.62853988 15.64827524 17 17 C15.44921875 18.81640625 15.44921875 18.81640625 13.6875 20.5625 C13.11386719 21.14128906 12.54023437 21.72007813 11.94921875 22.31640625 C9.77523254 24.19413782 7.49570405 25.58676999 5 27 C3.01436365 25.23598822 1.03656344 23.46438117 -0.9375 21.6875 C-1.50146484 21.18798828 -2.06542969 20.68847656 -2.64648438 20.17382812 C-6.88671875 16.33984375 -6.88671875 16.33984375 -8 13 C-10.97 12.505 -10.97 12.505 -14 12 C-14 10.68 -14 9.36 -14 8 C-10.7 8 -7.4 8 -4 8 C-3.71125 7.236875 -3.4225 6.47375 -3.125 5.6875 C-2 3 -2 3 0 0 Z " fill="#F5F5F5" transform="translate(20,16)"/>
<path d="M0 0 C2.5 1.5625 2.5 1.5625 4 3 C4.680625 2.319375 5.36125 1.63875 6.0625 0.9375 C9 -1 9 -1 12.5 -1 C16.24412542 0.06975012 18.22445104 1.30608483 21 4 C22.60725635 7.21451269 22.05748185 10.43612536 22 14 C21.01 14 20.02 14 19 14 C18.855625 12.906875 18.71125 11.81375 18.5625 10.6875 C18.11711896 7.06877013 18.11711896 7.06877013 17 4 C11.84359528 3.42399311 11.84359528 3.42399311 7.1328125 5.11328125 C5.69138998 6.33745588 4.33721771 7.66278229 3 9 C2.319375 8.175 1.63875 7.35 0.9375 6.5 C-1.83290312 3.67462684 -1.83290312 3.67462684 -5.6875 3.5625 C-9.07357392 3.66795289 -9.07357392 3.66795289 -11 6 C-11.45811675 7.97235333 -11.45811675 7.97235333 -11.625 10.125 C-11.74875 11.40375 -11.8725 12.6825 -12 14 C-12.99 14 -13.98 14 -15 14 C-15.78512397 5.99173554 -15.78512397 5.99173554 -12.625 2 C-8.26185035 -1.32430449 -5.25812856 -1.21581234 0 0 Z " fill="#383435" transform="translate(22,8)"/>
<path d="M0 0 C1.70884005 1.62339805 3.37446717 3.29319053 5 5 C5 5.66 5 6.32 5 7 C6.32 5.68 7.64 4.36 9 3 C12.875 4.75 12.875 4.75 14 7 C16.58605332 7.4683265 16.58605332 7.4683265 19.5625 7.625 C20.57441406 7.69976563 21.58632813 7.77453125 22.62890625 7.8515625 C23.80259766 7.92503906 23.80259766 7.92503906 25 8 C25 9.32 25 10.64 25 12 C23.08458862 12.10841951 21.16740227 12.18578079 19.25 12.25 C17.64898437 12.31960937 17.64898437 12.31960937 16.015625 12.390625 C12.36197888 11.91735478 11.27771895 10.80844958 9 8 C8.34 9.32 7.68 10.64 7 12 C6.01 12 5.02 12 4 12 C2.3125 9.5 2.3125 9.5 1 7 C0.566875 7.825 0.13375 8.65 -0.3125 9.5 C-3.5250923 12.48845795 -4.4999469 12.33984912 -8.75 12.3125 C-10.50126074 12.23227209 -12.25215533 12.13560864 -14 12 C-14 10.68 -14 9.36 -14 8 C-10.7 8 -7.4 8 -4 8 C-3.71125 7.236875 -3.4225 6.47375 -3.125 5.6875 C-2 3 -2 3 0 0 Z " fill="#403C3D" transform="translate(20,16)"/>
<path d="M0 0 C4.1724106 0.51881113 6.25416821 1.71151274 9.3125 4.5625 C10.00988281 5.20316406 10.70726562 5.84382813 11.42578125 6.50390625 C11.94527344 6.99761719 12.46476562 7.49132813 13 8 C14.31611677 7.04663979 15.62778961 6.08714226 16.9375 5.125 C17.66839844 4.59132813 18.39929688 4.05765625 19.15234375 3.5078125 C21.11098235 2.11987896 21.11098235 2.11987896 22 0 C23.65 0 25.3 0 27 0 C22.89962427 5.24972347 18.47035213 9.20962911 13 13 C11.01752198 11.21188257 9.03896272 9.41974481 7.0625 7.625 C6.49853516 7.11710937 5.93457031 6.60921875 5.35351562 6.0859375 C1.11328125 2.2265625 1.11328125 2.2265625 0 0 Z " fill="#333030" transform="translate(12,30)"/>
<path d="M0 0 C0.33 0.99 0.66 1.98 1 3 C0.01 4.485 0.01 4.485 -1 6 C-3.6015625 6.29296875 -3.6015625 6.29296875 -6.625 6.1875 C-8.12933594 6.14689453 -8.12933594 6.14689453 -9.6640625 6.10546875 C-10.82035156 6.05326172 -10.82035156 6.05326172 -12 6 C-12 4.68 -12 3.36 -12 2 C-11.21753906 1.93941406 -10.43507813 1.87882812 -9.62890625 1.81640625 C-8.61699219 1.73261719 -7.60507813 1.64882813 -6.5625 1.5625 C-5.55316406 1.48128906 -4.54382813 1.40007813 -3.50390625 1.31640625 C-1.06359221 1.26788532 -1.06359221 1.26788532 0 0 Z " fill="#4F4B4C" transform="translate(18,22)"/>
<path d="M0 0 C0.33 0 0.66 0 1 0 C1 2.97 1 5.94 1 9 C0.01 9 -0.98 9 -2 9 C-2.125 5.625 -2.125 5.625 -2 2 C-1.34 1.34 -0.68 0.68 0 0 Z " fill="#2C2829" transform="translate(9,13)"/>
</svg>
